<svg version="1.1" xmlns="http://www.w3.org/2000/svg" xmlns:xlink="http://www.w3.org/1999/xlink" width="2493.14764" height="382.08899" viewBox="-383.1954,389.40821,2493.14764,382.08899"><g fill="none" fill-rule="nonzero" stroke="none" stroke-width="none" stroke-linecap="butt" stroke-linejoin="miter" stroke-miterlimit="10" stroke-dasharray="" stroke-dashoffset="0" font-family="none" font-weight="none" font-size="none" text-anchor="none" style="mix-blend-mode: normal"><path d="M-383.1954,770.05209l0.08099,-49.24796l4.65725,0.6776l9.39614,-4.9959l14.7661,0.43811l12.08753,-7.72336l14.35565,6.568l14.01605,-3.16149l12.07792,3.66518l8.14222,8.6567l12.68416,-1.66349l9.54731,4.39753l13.0053,5.15887l6.69619,12.31389l8.14718,12.03125l15.04479,3.45845l4.8642,9.68904z" fill="#d0d0ce" stroke="none" stroke-width="1"/><path d="M273.25894,770.41102l-33.27719,-98.07588l-72.49981,-0.16477l-33.22263,97.92475l-95.49975,-0.21704l102.11413,-345.5871l8.65936,2.09265l10.94466,1.82484l12.65218,5.92927l11.12741,4.42769l10.23562,4.08115l10.84699,8.44211l8.43391,4.01323l8.33004,1.49847l15.13778,1.07664l14.86112,0.77243l13.21074,-6.26327l8.59017,-8.03137l94.85504,326.47323z" fill="#d0d0ce" stroke="none" stroke-width="1"/><path d="M384.0268,398.48937l83.99977,0.19678l-0.06449,27.52875l-4.31299,-1.52102l-15.0877,1.31309l-14.01339,0.3631l-11.63771,-8.49168l-11.14911,4.61044l-9.97171,0.73362l-9.96745,3.83925l-7.85129,-4.63833z" fill="#d0d0ce" stroke="none" stroke-width="1"/><path d="M567.16609,542.57332l0.17145,-117.83593l10.50557,-2.69069l8.74921,-2.24773l13.26336,-11.66977l6.84879,-9.4985l44.67106,0.065l-0.54126,371.99961l-83.99991,-0.12222l0.20952,-143.99985l-99.49989,-0.14477l-0.20952,143.99985l-83.99991,-0.12222l0.50644,-348.06557l7.8554,4.63136l9.96404,-3.84809l9.97105,-0.74247l11.14502,-4.62034l11.64524,8.48135l14.01306,-0.37554l15.08653,-1.32648l4.31433,1.51719l-0.16947,116.47105z" fill="#d0d0ce" stroke="none" stroke-width="1"/><path d="M1232.78929,544.09537c-2.907,17.76371 -8.01202,33.47888 -15.31505,47.14551c-7.30303,13.66663 -16.33905,25.02306 -27.10805,34.06929c-3.2285,2.71202 -6.59192,5.18186 -10.09026,7.40953l-3.30797,-1.76626l-10.81363,-12.79288l0.00852,-13.66212l-3.70267,-14.46851l8.88588,-12.85383l15.07997,-6.56873l4.98893,-7.58956l0.41647,-12.83153l9.07456,-10.60962l13.29065,-1.81448l0.72099,-13.51069l7.87253,-10.0494l12.09784,-7.44986c0.75223,11.74907 0.05265,24.19678 -2.09873,37.34314z" fill="#d0d0ce" stroke="none" stroke-width="1"/><path d="M1278.14172,524.64938l6.00322,8.75442l11.63492,8.69584l1.29413,14.87976l-2.90847,10.95566l0.40884,11.39648l3.07765,14.79969l-7.61657,9.83103l-10.7352,10.70166l2.75482,12.6696l-8.18712,4.53525l-9.54618,9.56699l-9.99655,10.60419l-8.00401,10.75498l-14.00334,-1.28453l-9.18285,11.17935l-16.75209,-0.74186l-16.15805,0.22095l-11.51125,-3.31475l-10.45446,-6.65353l98.00692,-141.2804z" fill="#d0d0ce" stroke="none" stroke-width="1"/><path d="M1317.06152,397.63513l-1.8173,287.99427l99.49802,0.62785l-0.53005,83.99833l-183.49635,-1.1579l0.66343,-105.13593l12.38523,-0.41384l11.37162,-3.76599l13.2094,-9.30823l14.2434,-8.8492l1.26402,-14.41197l12.28153,-6.84891l0.53089,-13.39597l2.26036,-14.3969l2.4745,-13.2866l4.19483,-8.36665l-9.42904,-8.89949l2.81487,-14.89451l0.73299,-12.41467l-10.8985,-10.475l-6.774,-9.17387l-3.78748,-10.68366l-9.4719,-11.54838l-14.51286,-0.60483l-9.89847,-3.83389l-11.9064,3.62975l0.59893,-94.91385z" fill="#d0d0ce" stroke="none" stroke-width="1"/><path d="M1648.39559,770.4103l-33.46959,-98.01039l-72.5,-0.0225l-33.03041,97.98975l-95.5,-0.02964l109.11544,-371.96616l111.99999,0.03476l7.06838,24.15106l-12.07413,10.51095l-6.13117,6.33276l-8.87195,4.07543l-5.99486,9.56913l0.84944,16.3415l-10.99157,11.29078l-2.51481,10.46505l3.26601,9.74465l-2.1818,11.39652l0.34638,9.35196l5.28767,13.9525l6.06598,13.35505l-3.22658,14.08402l4.82389,14.55419l7.44769,10.3766l1.51027,15.61408l10.65314,11.87153l-0.96396,17.73084l7.88859,7.38847l3.14339,11.78111l12.05181,2.51728l3.89136,10.36429l7.71841,7.24044l12.25966,8.72247l13.05266,5.82218l16.62534,2.53281l12.32082,-5.74005l0.03195,-0.60269l25.53254,87.2389z" fill="#d0d0ce" stroke="none" stroke-width="1"/><path d="M2100.34849,763.90947l-10.09881,-5.33459l-11.449,-10.25862l-11.45431,-8.92885l-5.23203,-9.05813l-10.79694,-7.24868l-0.51541,-14.63956l-11.14433,-2.6304l2.7149,-13.34808l-15.73642,-9.5172l1.50873,-9.65261l1.02419,-13.16062l-3.9551,-8.41637l-3.41388,-12.08579l-3.92963,-8.68713l8.92056,-11.58005l4.50999,-11.34413l-2.59839,-12.36758l10.51875,-10.15103l70.73087,184.73287z" fill="#d0d0ce" stroke="none" stroke-width="1"/><path d="M539.3377,542.58294l-39.32877,-0.0994l6.85897,-9.49115l5.64711,-4.95788l6.37491,0.0274l-4.53219,-1.64522l5.78603,-5.07985l8.75161,-2.23835l10.50844,-2.67942z" fill="#d0d0ce" stroke="none" stroke-width="1"/><path d="M512.51502,528.03452l1.84272,-1.61782" fill="none" stroke="none" stroke-width="1"/><path d="" fill="none" stroke="#00bb31" stroke-width="6" opacity="0"/><path d="M1618.80625,591.31496l-7.97027,-13.87481" fill="none" stroke="none" stroke-width="1"/><path d="" fill="none" stroke="#00bb31" stroke-width="6" opacity="0"/><path d="M1718.90599,684.02976l-12.30672,5.77021l-16.63149,-2.49208l-13.06688,-5.79019l-12.28099,-8.69242l-7.73612,-7.22152l-3.91674,-10.35473l-12.05794,-2.48775l-3.17224,-11.77337l-7.90666,-7.36913l0.92053,-17.73314l-10.68218,-11.8454l-1.26231,-12.72528l7.88389,-10.40198l-0.34128,-9.3515l-0.30464,-14.73654l10.82621,-6.68032l-0.52962,-0.46555l1.98408,-1.37696l-0.30464,-14.73654l9.12517,-8.73l0.0362,-15.16981l-2.37653,11.92592l-10.29534,7.10805l-0.86552,13.11459l-3.94693,2.02495l-1.39047,-1.22225l-1.87532,-9.82258l-7.16168,-10.84944l2.84844,-11.7425l-6.77747,12.49263l5.19716,11.22451l-0.0892,10.19765l3.20883,2.82064l-3.46419,1.77729l-0.86552,13.11459l-0.82889,7.72955l-7.663,7.88081l-4.64852,-13.91092l3.19207,-14.09189l-6.09867,-13.34015l-5.32183,-13.93951l-0.36929,-9.35109l2.15388,-11.40183l-3.28987,-9.73663l2.48917,-10.47118l10.96389,-11.31767l-0.88946,-16.33937l5.9714,-9.58378l8.86194,-4.09714l6.11564,-6.34775l12.04835,-10.54049l76.92178,260.45623z" fill="#d0d0ce" stroke="none" stroke-width="1"/><path d="M148.7763,398.50669l111.99994,-0.12051l13.45246,45.72873l-8.56323,8.06009l-13.1897,6.30747l-14.86363,-0.72266l-15.1413,-1.02594l-8.33501,-1.47057l-3.95182,-1.86425l-2.24431,-12.7739l-1.09507,11.19857l-1.1561,-0.54538l-10.8752,-8.40574l-10.24922,-4.04685l-11.14217,-4.3904l-12.67196,-5.88687l-10.95071,-1.78818l-8.66632,-2.06364z" fill="#d0d0ce" stroke="none" stroke-width="1"/><path d="M210.18401,453.39905l-3.33938,-1.57533" fill="none" stroke="none" stroke-width="1"/><path d="" fill="none" stroke="#00bb31" stroke-width="6" opacity="0"/><path d="M1191.61619,555.3499l-4.06199,13.20448" fill="none" stroke="none" stroke-width="1"/><path d="" fill="none" stroke="#00bb31" stroke-width="6" opacity="0"/><path d="M1148.23452,407.84398c15.78752,2.59888 29.63475,7.74981 41.54167,15.45281c11.90693,7.703 21.5301,17.47925 28.86952,29.32875c7.33942,11.8495 12.27125,25.4985 14.79547,40.947c0.69009,4.22342 1.17457,8.54556 1.45343,12.9664l-12.10486,7.43846l-7.882,10.04198l-0.73371,13.51001l-13.29235,1.80195l-9.08456,10.60107l-0.18094,5.41749l-10.7382,3.1521l-12.81251,-4.60848l-14.21447,8.46953l-11.90525,-6.65222l-5.8283,-3.20865l-13.15355,2.23251l-5.84526,6.77l-10.68521,-1.56572l-6.18755,-1.88705l-14.99376,4.3099l12.79344,-0.96945l4.44115,2.00416l-5.67464,6.57239l-9.46145,0.69356l-13.84539,5.77106l-8.76789,10.15501l-6.99947,4.00093l-14.07658,2.61725l-7.38421,3.0779l8.92316,0.6142l14.84605,-0.77119l7.76895,-2.15487l9.53736,-8.30895l13.84539,-5.77106l9.46145,-0.69356l8.76789,-10.15501l11.53869,1.69078l5.84526,-6.77l3.19273,-0.54189l6.44094,0.63889l10.80509,8.32245l13.11431,-6.79931l11.71235,6.27871l14.29663,-2.84936l1.18088,-0.46004l-1.18171,1.79403l-15.08615,6.55452l-8.89799,12.84545l3.68904,14.472l-0.02139,13.6621l10.80158,12.80307l3.3063,1.76937c-8.17567,5.19527 -17.08611,9.06877 -26.73134,11.62051c-13.77487,3.64428 -28.55606,4.16698 -44.34359,1.56811l-27.62816,-4.54803l-21.2783,129.26033l-84.36457,-13.88774l60.42386,-367.05988z" fill="#d0d0ce" stroke="none" stroke-width="1"/><path d="M746.63706,399.54293l101.10411,-0.77322l0.99229,2.08566l-6.59529,6.76657l-3.8141,12.50181l-4.43115,14.43151l-4.72346,10.19247l-5.2278,13.06152l0.81119,8.44626l-3.24736,-0.41791l-11.51315,-9.01655l-11.1747,-10.31691l7.25928,11.13509l9.55543,9.42565l9.35217,1.60282l0.35644,3.71139l-14.60248,3.05141l-9.76777,-5.32133l-13.53197,-4.19961l-12.35769,0.76089l-7.74501,-6.58232l-8.87537,-1.20103l-11.38391,-1.84857z" fill="#d0d0ce" stroke="none" stroke-width="1"/><path d="M824.75286,466.25551l0.23167,2.4122" fill="none" stroke="none" stroke-width="1"/><path d="" fill="none" stroke="#00bb31" stroke-width="6" opacity="0"/><path d="M833.7669,660.26749l5.57755,0.12601" fill="none" stroke="none" stroke-width="1"/><path d="" fill="none" stroke="#00bb31" stroke-width="6" opacity="0"/><path d="M982.71182,768.43263l-96.49154,1.27745l-46.87583,-109.31659l20.72729,-0.27441l-9.71448,-4.89148l1.37803,-11.95946l-13.15652,-7.74672l0.16938,-14.70521l-5.8345,-10.96978l-9.71448,-4.89148l3.11227,-9.59002l-10.03533,-7.69908l-0.27918,-4.43149l-4.80976,-13.60605l-11.72889,-9.46774l-7.9584,-13.31266l0.26863,-9.71283l-4.26828,9.76578l5.95858,13.33913l9.72907,9.49422l1.88631,9.1515l-0.32553,-0.25535l-7.60782,-7.94488l-9.71332,-8.69778l-8.2688,-10.08102l5.37975,12.8475l8.2688,10.08102l6.1633,9.32812l5.90772,6.16946l-0.31833,1.98074l4.64044,12.82676l7.71466,4.91796l3.83468,10.99626l-2.1692,14.73169l11.15669,7.7732l-3.37785,11.98593l7.40754,4.72217l1.45785,110.11773l-83.99264,1.11198l-4.16334,-314.47514l11.39406,1.7849l8.88195,1.15139l7.78168,6.53891l12.35325,-0.82997l13.55523,4.12389l9.79737,5.26664l14.58519,-3.133l-1.48073,-14.5618l5.15469,-13.09054l4.6664,-10.21872l4.3504,-14.45606l3.74415,-12.52294l6.55736,-6.80333l-1.00394,-2.08008l12.39185,-0.16406c21.33146,-0.28241 39.12293,2.73234 53.3744,9.04423c14.25147,6.31189 25.69854,14.82777 34.34121,25.54763c8.64267,10.71986 14.89315,23.30489 18.75144,37.75508c3.85829,14.45019 5.89334,29.67458 6.10515,45.67318c0.22063,16.66521 -2.33277,31.53364 -7.66019,44.60531c-5.32743,13.07167 -11.68234,24.07343 -19.06475,33.00527c-7.38241,8.93184 -14.87682,15.69831 -22.48325,20.29941c-7.60642,4.6011 -13.57611,6.93033 -17.90907,6.98769z" fill="#d0d0ce" stroke="none" stroke-width="1"/><path d="M114.61522,512.51942l-40.19658,73.75795l-126.44219,-68.90843l-28.71185,52.68425l93.0755,50.72426l-40.19658,73.75795l-93.0755,-50.72426l-68.90843,126.44219l-73.75795,-40.19658l101.65467,-186.52928l10.83592,0.34757l10.21714,-11.57224l14.46065,-1.42026l14.0168,-0.01021l10.73856,-8.96857l8.41969,-6.29271l3.81052,-9.91447l11.22406,1.74581l-10.72059,-3.05578l0.27547,-0.71675l11.49254,-3.02585l8.98337,-8.86615l3.90837,-13.8264l12.62121,-9.48306l-1.02094,-14.30792l7.42973,-12.76827l0.09209,-10.64133l2.81742,-3.76978z" fill="#d0d0ce" stroke="none" stroke-width="1"/><path d="M-89.4444,505.69658l0.50347,-1.30997" fill="none" stroke="none" stroke-width="1"/><path d="" fill="none" stroke="#00bb31" stroke-width="6" opacity="0"/><path d="M1981.13028,540.32018l-0.42314,-30.89514" fill="none" stroke="none" stroke-width="1"/><path d="" fill="none" stroke="#00bb31" stroke-width="6" opacity="0"/><path d="M1976.87713,519.3987l5.4446,-12.51553" fill="none" stroke="none" stroke-width="1"/><path d="" fill="none" stroke="#00bb31" stroke-width="6" opacity="0"/><path d="M1928.76562,580.66433l-0.07701,-182.49998l88.99999,-0.03756l0.00319,7.55202l-13.4506,5.72442l-1.99039,12.47987l-8.26434,8.98499l-12.46824,7.63001l0.5676,9.51767l-1.12804,12.50793l0.6881,9.27387l-5.65727,11.9267l-4.85688,8.47702l11.29911,14.51007l-0.10913,0.1718l-15.37577,-10.45221l-9.14948,11.44656l0.0538,15.83969l-2.11815,12.19516l2.48349,14.39172l-7.68921,9.75316l-2.84214,10.98031l-0.83908,4.90507l-0.60266,9.46767l0.61952,10.1792l1.5093,2.97661l0.48064,7.86669l-10.36433,12.17055l2.81964,16.89274l0.4884,-14.64399l12.01835,-11.04617l0.01617,-0.22095l2.51637,6.25405l-4.87185,16.80075l8.35437,8.13662l1.8417,10.89074l5.50824,13.02533l0.41864,13.33509l11.51026,8.3375l-7.64283,-9.3588l1.51508,-13.84574l-3.57453,-13.53598l0.09201,-11.40138l-6.42066,-8.64726l4.87185,-16.80075l-3.00944,-7.47952l-6.47509,-12.77001l-0.61952,-10.1792l0.37586,-5.90478l3.88387,-8.51376l9.34323,-8.62879l-0.82947,-13.26735l3.77217,-11.07078l1.60022,-14.71532l0.88645,-0.84696l7.72002,5.24795l-4.74746,13.85799l7.49571,10.62693l1.65158,10.32938l7.5096,12.43106l7.02968,13.67123l7.52729,8.58975l6.7117,9.33655l0.07032,166.63722l-84.99999,0.03587l-100.07721,-182.95779l0.07722,182.99998l-88.99999,0.03756l-0.15697,-371.99997l85.49999,-0.03608z" fill="#d0d0ce" stroke="none" stroke-width="1"/><path d="M489.02529,499.42096l-35,-35h-23" fill="none" stroke="#00bb31" stroke-width="6"/><path d="M513.43638,527.22561l-24.41109,-27.80465v-20l-35,-35h-46l23,55h23" fill="none" stroke="#00bb31" stroke-width="6"/><path d="M425.02529,464.42096c0,-3.31371 2.68629,-6 6,-6c3.31371,0 6,2.68629 6,6c0,3.31371 -2.68629,6 -6,6c-3.31371,0 -6,-2.68629 -6,-6z" fill="#00bb31" stroke="none" stroke-width="1"/><path d="M448.02529,499.42096c0,-3.31371 2.68629,-6 6,-6c3.31371,0 6,2.68629 6,6c0,3.31371 -2.68629,6 -6,6c-3.31371,0 -6,-2.68629 -6,-6z" fill="#00bb31" stroke="none" stroke-width="1"/><path d="M489.02529,499.42096l23.48973,28.61356l6.37491,0.0274l-4.53219,-1.64522" fill="#00bb31" stroke="none" stroke-width="1"/><path d="M1581.00361,603.80374l-31,-31h-27" fill="none" stroke="#00bb31" stroke-width="6"/><path d="M1614.82112,584.37756l-33.8175,19.42618v-17l-31,-31h-54l27,48h27" fill="none" stroke="#00bb31" stroke-width="6"/><path d="M1517.00361,572.80374c0,-3.31371 2.68629,-6 6,-6c3.31371,0 6,2.68629 6,6c0,3.31371 -2.68629,6 -6,6c-3.31371,0 -6,-2.68629 -6,-6z" fill="#00bb31" stroke="none" stroke-width="1"/><path d="M1544.00361,603.80374c0,-3.31371 2.68629,-6 6,-6c3.31371,0 6,2.68629 6,6c0,3.31371 -2.68629,6 -6,6c-3.31371,0 -6,-2.68629 -6,-6z" fill="#00bb31" stroke="none" stroke-width="1"/><path d="M1610.83598,577.44016l7.663,-7.88081l0.82889,-7.72955l0.86552,-13.11459l3.46419,-1.77729l-3.20883,-2.82064l0.0892,-10.19765l-5.19716,-11.22451l6.77747,-12.49263l-2.84844,11.7425l7.16168,10.84944l1.87532,9.82258l1.39047,1.22225l3.94693,-2.02495l0.86552,-13.11459l10.29534,-7.10805l2.37653,-11.92592l-0.0362,15.16981l-9.12517,8.73l0.30464,14.73654l-1.98408,1.37696l0.52962,0.46555l-10.82621,6.68032l0.30464,14.73654l0.34128,9.3515l-7.88389,10.40198l-37.80264,12.48878" fill="#00bb31" stroke="none" stroke-width="1"/><path d="M199.12795,472.50853l-21,-21h-23.5" fill="none" stroke="#00bb31" stroke-width="6"/><path d="M208.51432,452.61139l-9.38637,19.89714v-18l-21,-21h-47l23.5,39h23.5" fill="none" stroke="#00bb31" stroke-width="6"/><path d="M148.62795,451.50853c0,-3.31371 2.68629,-6 6,-6c3.31371,0 6,2.68629 6,6c0,3.31371 -2.68629,6 -6,6c-3.31371,0 -6,-2.68629 -6,-6z" fill="#00bb31" stroke="none" stroke-width="1"/><path d="M172.12795,472.50853c0,-3.31371 2.68629,-6 6,-6c3.31371,0 6,2.68629 6,6c0,3.31371 -2.68629,6 -6,6c-3.31371,0 -6,-2.68629 -6,-6z" fill="#00bb31" stroke="none" stroke-width="1"/><path d="M199.12795,472.50853l11.05606,-19.10947l-2.24431,-12.7739l-1.09507,11.19857" fill="#00bb31" stroke="none" stroke-width="1"/><path d="M1211.56855,568.7147l36,-36h29.5" fill="none" stroke="#00bb31" stroke-width="6"/><path d="M1189.5852,561.95214l21.98335,6.76256v-17l36,-36h59l-29.5,53h-29.5" fill="none" stroke="#00bb31" stroke-width="6"/><path d="M1271.06855,532.7147c0,-3.31371 2.68629,-6 6,-6c3.31371,0 6,2.68629 6,6c0,3.31371 -2.68629,6 -6,6c-3.31371,0 -6,-2.68629 -6,-6z" fill="#00bb31" stroke="none" stroke-width="1"/><path d="M1241.56855,568.7147c0,-3.31371 2.68629,-6 6,-6c3.31371,0 6,2.68629 6,6c0,3.31371 -2.68629,6 -6,6c-3.31371,0 -6,-2.68629 -6,-6z" fill="#00bb31" stroke="none" stroke-width="1"/><path d="M1187.5542,568.55438l-1.18088,0.46004l-14.29663,2.84936l-11.71235,-6.27871l-13.11431,6.79931l-10.80509,-8.32245l-6.44094,-0.63889l-3.19273,0.54189l-5.84526,6.77l-11.53869,-1.69078l-8.76789,10.15501l-9.46145,0.69356l-13.84539,5.77106l-9.53736,8.30895l-7.76895,2.15487l-14.84605,0.77119l-8.92316,-0.6142l7.38421,-3.0779l14.07658,-2.61725l6.99947,-4.00093l8.76789,-10.15501l13.84539,-5.77106l9.46145,-0.69356l5.67464,-6.57239l-4.44115,-2.00416l-12.79344,0.96945l14.99376,-4.3099l6.18755,1.88705l10.68521,1.56572l5.84526,-6.77l13.15355,-2.23251l5.8283,3.20865l11.90525,6.65222l14.21447,-8.46953l12.81251,4.60848l10.7382,-3.1521l19.95236,13.3648" fill="#00bb31" stroke="none" stroke-width="1"/><path d="M863.69007,463.73317l34,-34h34.5" fill="none" stroke="#00bb31" stroke-width="6"/><path d="M824.8687,467.4616l38.82137,-3.72844v-16l34,-34h69l-34.5,50h-34.5" fill="none" stroke="#00bb31" stroke-width="6"/><path d="M926.19007,429.73317c0,-3.31371 2.68629,-6 6,-6c3.31371,0 6,2.68629 6,6c0,3.31371 -2.68629,6 -6,6c-3.31371,0 -6,-2.68629 -6,-6z" fill="#00bb31" stroke="none" stroke-width="1"/><path d="M891.69007,463.73317c0,-3.31371 2.68629,-6 6,-6c3.31371,0 6,2.68629 6,6c0,3.31371 -2.68629,6 -6,6c-3.31371,0 -6,-2.68629 -6,-6z" fill="#00bb31" stroke="none" stroke-width="1"/><path d="M863.69007,463.73317l-38.9372,2.52234l-3.24736,-0.41791l-11.51315,-9.01655l-11.1747,-10.31691l7.25928,11.13509l9.55543,9.42565l9.35217,1.60282" fill="#00bb31" stroke="none" stroke-width="1"/><path d="M837.1655,633.33738l35,-35h22.5" fill="none" stroke="#00bb31" stroke-width="6"/><path d="M836.55567,660.33049l0.60983,-26.99311v-20l35,-35h45l-22.5,55h-22.5" fill="none" stroke="#00bb31" stroke-width="6"/><path d="M888.6655,598.33738c0,-3.31371 2.68629,-6 6,-6c3.31371,0 6,2.68629 6,6c0,3.31371 -2.68629,6 -6,6c-3.31371,0 -6,-2.68629 -6,-6z" fill="#00bb31" stroke="none" stroke-width="1"/><path d="M866.1655,633.33738c0,-3.31371 2.68629,-6 6,-6c3.31371,0 6,2.68629 6,6c0,3.31371 -2.68629,6 -6,6c-3.31371,0 -6,-2.68629 -6,-6z" fill="#00bb31" stroke="none" stroke-width="1"/><path d="M839.34445,660.39349l-5.27043,0.06978l-0.30712,-0.19578l3.3986,-26.93011M809.20039,605.14028l8.44391,-1.47591l-18.67374,-19.50106l-6.1633,-9.32812l-8.2688,-10.08102l-5.37975,-12.8475l8.2688,10.08102l9.71332,8.69778l7.60782,7.94488l11.12721,8.72842l10.43558,8.00616l-3.11227,9.59002z" fill="#00bb31" stroke="none" stroke-width="1"/><path d="M-107.86131,497.8665l-22,-22h-26" fill="none" stroke="#00bb31" stroke-width="6"/><path d="M-89.19267,505.04159l-18.66864,-7.17509v-19l-22,-22h-52l26,41h26" fill="none" stroke="#00bb31" stroke-width="6"/><path d="M-161.86131,475.8665c0,-3.31371 2.68629,-6 6,-6c3.31371,0 6,2.68629 6,6c0,3.31371 -2.68629,6 -6,6c-3.31371,0 -6,-2.68629 -6,-6z" fill="#00bb31" stroke="none" stroke-width="1"/><path d="M-135.86131,497.8665c0,-3.31371 2.68629,-6 6,-6c3.31371,0 6,2.68629 6,6c0,3.31371 -2.68629,6 -6,6c-3.31371,0 -6,-2.68629 -6,-6z" fill="#00bb31" stroke="none" stroke-width="1"/><path d="M-107.86131,497.8665l18.4169,7.83007l11.22406,1.74581l-10.72059,-3.05578" fill="#00bb31" stroke="none" stroke-width="1"/><path d="M2014.44497,528.29969l34,-34h24.5" fill="none" stroke="#00bb31" stroke-width="6"/><path d="M1979.59943,513.14093l34.84554,15.15876v-18l34,-34h49l-24.5,52h-24.5" fill="none" stroke="#00bb31" stroke-width="6"/><path d="M2066.94497,494.29969c0,-3.31371 2.68629,-6 6,-6c3.31371,0 6,2.68629 6,6c0,3.31371 -2.68629,6 -6,6c-3.31371,0 -6,-2.68629 -6,-6z" fill="#00bb31" stroke="none" stroke-width="1"/><path d="M2042.44497,528.29969c0,-3.31371 2.68629,-6 6,-6c3.31371,0 6,2.68629 6,6c0,3.31371 -2.68629,6 -6,6c-3.31371,0 -6,-2.68629 -6,-6z" fill="#00bb31" stroke="none" stroke-width="1"/><path d="M2014.44497,528.29969l-37.56784,-8.901l9.91705,-9.47523l-4.47245,-3.0403M1957.60837,577.78383l0.83908,-4.90507l-0.60266,9.46767l0.61952,10.1792l6.47509,12.77001l3.00944,7.47952l-4.87185,16.80075l6.42066,8.64726l-0.09201,11.40138l3.57453,13.53598l-1.51508,13.84574l7.64283,9.3588l-11.51026,-8.3375l-0.41864,-13.33509l-5.50824,-13.02533l-1.8417,-10.89074l-8.35437,-8.13662l4.87185,-16.80075l-3.00944,-7.47952l-6.47509,-12.77001l-0.61952,-10.1792l0.60266,-9.46767l0.83908,-4.90507z" fill="#00bb31" stroke="none" stroke-width="1"/></g></svg>