<?xml version="1.0" encoding="UTF-8" standalone="no"?>
<!-- Created with Inkscape (http://www.inkscape.org/) -->

<svg
   xmlns:dc="http://purl.org/dc/elements/1.1/"
   xmlns:cc="http://creativecommons.org/ns#"
   xmlns:rdf="http://www.w3.org/1999/02/22-rdf-syntax-ns#"
   xmlns:svg="http://www.w3.org/2000/svg"
   xmlns="http://www.w3.org/2000/svg"
   xmlns:xlink="http://www.w3.org/1999/xlink"
   xmlns:sodipodi="http://sodipodi.sourceforge.net/DTD/sodipodi-0.dtd"
   xmlns:inkscape="http://www.inkscape.org/namespaces/inkscape"
   width="210mm"
   height="297mm"
   viewBox="0 0 210 297"
   version="1.1"
   id="svg1305"
   inkscape:version="0.92.5 (2060ec1f9f, 2020-04-08)"
   sodipodi:docname="Aufkleber.svg">
  <defs
     id="defs1299">
    <linearGradient
       inkscape:collect="always"
       id="linearGradient1922">
      <stop
         style="stop-color:#000000;stop-opacity:1;"
         offset="0"
         id="stop1918" />
      <stop
         style="stop-color:#000000;stop-opacity:0;"
         offset="1"
         id="stop1920" />
    </linearGradient>
    <linearGradient
       inkscape:collect="always"
       xlink:href="#linearGradient1922"
       id="linearGradient1928"
       x1="-92.137291"
       y1="144.5675"
       x2="12.528766"
       y2="144.5675"
       gradientUnits="userSpaceOnUse" />
  </defs>
  <sodipodi:namedview
     id="base"
     pagecolor="#ffffff"
     bordercolor="#666666"
     borderopacity="1.0"
     inkscape:pageopacity="0.0"
     inkscape:pageshadow="2"
     inkscape:zoom="0.7"
     inkscape:cx="131.70664"
     inkscape:cy="647.75119"
     inkscape:document-units="mm"
     inkscape:current-layer="layer1"
     showgrid="false"
     inkscape:window-width="1920"
     inkscape:window-height="1009"
     inkscape:window-x="0"
     inkscape:window-y="0"
     inkscape:window-maximized="1" />
  <metadata
     id="metadata1302">
    <rdf:RDF>
      <cc:Work
         rdf:about="">
        <dc:format>image/svg+xml</dc:format>
        <dc:type
           rdf:resource="http://purl.org/dc/dcmitype/StillImage" />
        <dc:title />
      </cc:Work>
    </rdf:RDF>
  </metadata>
  <g
     inkscape:label="Ebene 1"
     inkscape:groupmode="layer"
     id="layer1">
    <rect
       style="opacity:1;fill:#181818;fill-opacity:1;stroke:none;stroke-width:20.81592369;stroke-linecap:round;stroke-linejoin:miter;stroke-miterlimit:4;stroke-dasharray:none;stroke-dashoffset:0;stroke-opacity:0.9945504;paint-order:normal"
       id="rect1930"
       width="148.46176"
       height="160.59685"
       x="3.7738633"
       y="1.4634563"
       ry="2.5721703" />
    <g
       style="fill:#ffffff;fill-opacity:1;stroke:#ffffff;stroke-width:12.41570139;stroke-miterlimit:4;stroke-dasharray:none;stroke-opacity:0.9945504"
       transform="matrix(1.4170756,0,0,1.3543202,-1.1611826,-39.50276)"
       id="layer1-4-8-0-8"
       inkscape:export-filename="/home/falk/Schreibtisch/auskleber.png"
       inkscape:export-xdpi="150"
       inkscape:export-ydpi="150">
      <path
         id="path896-1-9-5"
         d="m 73.830016,120.83559 c -0.91483,-0.84649 -6.29242,-5.79981 -11.95021,-11.00738 l -10.28688,-9.4683 -9.860702,9.84777 c -5.423385,5.41627 -9.98232,9.80404 -10.130969,9.7506 -0.40098,-0.14415 -9.837693,-8.79323 -9.837693,-9.01659 0,-0.10526 4.225889,-4.74942 9.390865,-10.32035 5.164975,-5.570925 9.391694,-10.195285 9.392708,-10.276345 0.001,-0.0811 -4.73089,-4.50513 -10.515344,-9.831254 C 16.615637,68.160605 17.794812,69.364404 17.794812,68.021217 c 0,-1.086767 0.16813,-1.292713 8.236388,-10.088917 4.530013,-4.938727 8.540991,-9.143863 8.913283,-9.344745 1.397689,-0.75417 1.892776,-0.37477 13.729155,10.521048 l 11.319908,10.420389 1.93945,-2.086014 c 1.06669,-1.147309 2.71885,-2.949144 3.67145,-4.004079 l 1.73201,-1.918063 -1.18764,-1.389229 c -0.65321,-0.764075 -2.45367,-2.725418 -4.00103,-4.358541 -1.54737,-1.633121 -2.81339,-3.075714 -2.81339,-3.20576 0,-0.276466 9.80647,-9.567635 10.09827,-9.567635 0.10836,0 4.81597,4.770231 10.46136,10.600512 l 10.26433,10.600512 v 3.396995 3.396996 l 1.5875,3.120543 c 0.87312,1.716297 1.62456,3.208131 1.66986,3.315187 0.1139,0.269211 -4.42092,5.256759 -4.7796,5.256759 -0.1595,0 -2.64894,-2.41102 -5.53208,-5.357816 l -5.24207,-5.357813 -0.99556,1.084546 c -0.54755,0.5965 -2.08795,2.332564 -3.42312,3.857918 l -2.42756,2.773373 10.23277,9.413802 c 15.03873,13.835115 13.54007,12.324805 13.54007,13.645325 0,0.96301 -0.16859,1.31403 -1.14089,2.37543 -12.13448,13.24647 -15.59738,16.95821 -15.94623,17.09207 -0.23026,0.0884 -0.82129,0.16066 -1.31338,0.16066 -0.72341,0 -1.21321,-0.2947 -2.55805,-1.53908 z m 3.3908,0.27825 c 0.1604,-0.10691 3.9455,-4.17926 8.41134,-9.04966 5.8392,-6.36818 8.09809,-9.00486 8.04274,-9.38786 -0.11656,-0.8066 -56.975435,-53.062066 -57.736533,-53.062066 -0.44973,0 -2.65984,2.248961 -8.842407,8.997844 -4.533546,4.948815 -8.242811,9.180144 -8.242811,9.402954 0,0.22281 0.446485,0.86398 0.992188,1.42482 0.864401,0.888381 52.344203,48.251198 55.307353,50.884278 1.12047,0.99565 1.52653,1.1507 2.06813,0.78969 z m -7.65891,-7.04959 c -2.34048,-2.1981 -2.33617,-2.16107 -0.46283,-3.9764 l 1.07533,-1.04202 0.73156,0.63819 c 1.76431,1.53913 3.77426,3.56748 3.77426,3.80881 0,0.42996 -2.1926,2.5323 -2.63477,2.5263 -0.22436,-0.003 -1.34196,-0.88274 -2.48355,-1.95488 z m 5.20558,-1.94429 c -2.35311,-2.14528 -4.35551,-4.1091 -4.44977,-4.36405 -0.21523,-0.58209 1.63001,-2.82248 2.33503,-2.83507 0.59583,-0.0106 9.17123,7.84526 9.17123,8.40174 0,0.59563 -1.82027,2.7024 -2.33281,2.69998 -0.24492,-0.001 -2.37058,-1.75733 -4.72368,-3.9026 z m 4.2743,-2.87201 c -1.81677,-1.6899 -3.30322,-3.24744 -3.30322,-3.4612 0,-0.58347 1.85223,-2.72804 2.34697,-2.71739 0.50619,0.0109 7.00456,5.93867 7.13365,6.50728 0.12761,0.56206 -1.74789,2.74386 -2.35865,2.74386 -0.29175,0 -1.94938,-1.33372 -3.81875,-3.07255 z m -14.55649,0.13404 c -0.94123,-0.90381 -1.71132,-1.74613 -1.71132,-1.87184 0,-0.40276 2.16981,-2.59798 2.5679,-2.59798 0.53528,0 3.50385,2.68916 3.51137,3.18086 0.008,0.49224 -1.42919,2.27533 -2.13973,2.65561 -0.44144,0.23625 -0.76677,0.0367 -2.22822,-1.36665 z m 19.73495,-2.15242 c -1.17032,-1.05629 -2.12872,-2.09462 -2.12977,-2.30739 -0.002,-0.49647 2.10738,-2.65585 2.59492,-2.65585 0.44076,0 4.28233,3.66498 4.28233,4.08548 0,0.4001 -1.51559,2.20742 -2.1243,2.53319 -0.41375,0.22144 -0.84578,-0.0512 -2.62318,-1.65543 z m -24.71,-2.45387 c -0.84917,-0.79629 -1.50401,-1.55845 -1.45521,-1.69369 0.15923,-0.44126 2.35964,-2.66776 2.63649,-2.66776 0.33452,0 3.40537,2.90475 3.40537,3.22119 0,0.4328 -2.18317,2.59966 -2.61338,2.59385 -0.23613,-0.003 -1.1241,-0.6573 -1.97327,-1.45359 z m 7.56321,0.23848 c -0.76398,-0.66439 -1.38829,-1.3461 -1.38735,-1.5149 0.002,-0.43517 2.09201,-2.82045 2.47082,-2.82045 0.4339,0 3.08412,2.34967 3.08201,2.7325 -0.002,0.43832 -2.0918,2.82509 -2.46627,2.8173 -0.17058,-0.004 -0.93522,-0.55005 -1.69921,-1.21445 z m 19.38073,-2.52099 c -1.60073,-1.47242 -2.94373,-2.869945 -2.98444,-3.105625 -0.0829,-0.47987 1.29976,-2.27147 2.07195,-2.68473 0.42656,-0.22829 0.95561,0.15217 3.55113,2.55376 1.67745,1.552105 3.0499,2.993035 3.0499,3.202075 0,0.5737 -1.85419,2.71854 -2.34697,2.71486 -0.23713,-0.002 -1.74084,-1.20793 -3.34157,-2.68034 z m -13.64037,0.92476 c -0.71972,-0.67322 -1.30859,-1.32946 -1.30859,-1.45832 0,-0.427 2.17643,-2.603705 2.60337,-2.603705 0.43496,0 2.6883,2.055345 2.6883,2.452085 0,0.33162 -1.88699,2.53177 -2.31094,2.69445 -0.20306,0.0779 -0.94127,-0.40087 -1.67214,-1.08451 z m 6.56277,-0.64474 c -0.69123,-0.59247 -1.25677,-1.24921 -1.25677,-1.45942 0,-0.46405 2.06457,-2.752305 2.48109,-2.749905 0.42767,0.002 2.81142,2.097525 2.80609,2.466265 -0.005,0.35307 -2.25417,2.82458 -2.56798,2.82197 -0.11311,-0.001 -0.77121,-0.48645 -1.46243,-1.07891 z m -16.16848,-1.32311 c -0.67533,-0.59445 -1.22788,-1.28404 -1.22788,-1.532415 0,-0.44389 2.06818,-2.67843 2.47903,-2.67843 0.34001,0 2.48734,1.84138 2.65409,2.27595 0.14401,0.37527 -2.03285,3.015715 -2.48624,3.015715 -0.10512,0 -0.74367,-0.48637 -1.419,-1.08082 z M 45.646561,92.009495 c -5.78376,-5.35023 -10.55389,-9.92481 -10.600288,-10.16574 -0.12456,-0.646783 2.183054,-2.970293 2.669013,-2.687393 1.080819,0.629198 20.97033,19.278383 21.04652,19.734053 0.0578,0.34563 -0.30839,0.93624 -1.04727,1.689105 -0.62488,0.63671 -1.22973,1.15765 -1.3441,1.15765 -0.11437,0 -4.94011,-4.377455 -10.723875,-9.727675 z m 23.259025,7.8374 c -0.75301,-0.61254 -1.36911,-1.30599 -1.36911,-1.541 0,-0.53505 2.12929,-2.65414 2.66691,-2.65414 0.21885,0 0.91042,0.5222 1.5368,1.16044 1.30145,1.32607 1.27895,1.48979 -0.43241,3.14763 l -1.03309,1.000785 z m 6.43019,-0.78925 c -0.65159,-0.60062 -1.18471,-1.29021 -1.18471,-1.53242 0,-0.43218 2.07242,-2.66722 2.47316,-2.66722 0.31602,0 2.51653,1.90218 2.67339,2.31094 0.13917,0.36269 -2.09425,2.980725 -2.54284,2.980725 -0.12886,0 -0.76741,-0.491415 -1.419,-1.092025 z m -15.875,-1.05834 c -0.65159,-0.60062 -1.18471,-1.26255 -1.18471,-1.47096 0,-0.51897 1.87935,-2.72867 2.32074,-2.72867 0.61122,0 2.70634,1.93028 2.70634,2.49341 0,0.50838 -1.99854,2.79825 -2.44225,2.79825 -0.11847,0 -0.74853,-0.49141 -1.40012,-1.09203 z m 21.23873,-0.79682 c -0.69123,-0.59215 -1.25678,-1.27758 -1.25678,-1.52318 0,-0.48453 2.08984,-2.67338 2.55246,-2.67338 0.4135,0 2.73921,2.10547 2.73921,2.47982 0,0.2996 -2.38993,2.82247 -2.65492,2.8026 -0.0678,-0.005 -0.68875,-0.49372 -1.37997,-1.08586 z m -15.74681,-0.96331 c -0.62072,-0.54136 -1.12673,-1.14285 -1.12448,-1.33664 0.007,-0.59465 1.88926,-2.69036 2.41646,-2.69036 0.67205,0 2.61472,1.79151 2.61472,2.41127 0,0.63983 -1.77965,2.61826 -2.34589,2.60791 -0.23773,-0.004 -0.94009,-0.45082 -1.56081,-0.99218 z m 6.68747,-0.61323 c -0.65629,-0.60495 -1.19327,-1.28085 -1.19327,-1.50199 0,-0.60295 1.82163,-2.70714 2.33282,-2.69468 0.56291,0.0137 2.69426,1.92194 2.69426,2.41221 0,0.46293 -1.46303,2.25421 -2.13475,2.6137 -0.41786,0.22363 -0.71321,0.0795 -1.69906,-0.82924 z m -16.14814,-1.3308 c -0.65159,-0.60062 -1.18471,-1.25812 -1.18471,-1.46112 0,-0.45531 2.07203,-2.7397 2.48109,-2.73539 0.28772,0.003 2.81057,2.29378 2.81057,2.552 0,0.33809 -2.24448,2.73654 -2.56087,2.73654 -0.19875,0 -0.89449,-0.49142 -1.54608,-1.09203 z m 21.20983,-0.78254 c -0.67533,-0.59445 -1.22299,-1.27906 -1.21703,-1.52136 0.013,-0.52748 1.9116,-2.68949 2.36182,-2.68949 0.60671,0 2.65442,1.90487 2.65442,2.46925 0,0.49742 -1.97627,2.82242 -2.39909,2.82242 -0.0947,0 -0.72479,-0.48637 -1.40012,-1.08082 z m -15.63417,-0.87754 c -1.43069,-1.33232 -1.41577,-1.46542 0.35673,-3.18301 l 1.07358,-1.04032 1.26247,1.06942 c 0.69436,0.58817 1.30089,1.26428 1.34785,1.50246 0.10715,0.54351 -1.78912,2.79568 -2.36375,2.80738 -0.23446,0.005 -0.98905,-0.5154 -1.67688,-1.15593 z m 6.4705,-0.84378 c -0.72855,-0.68146 -1.32462,-1.34446 -1.32462,-1.47331 0,-0.427 2.17643,-2.60372 2.60337,-2.60372 0.44639,0 2.68829,2.0602 2.68829,2.47042 0,0.28142 -1.77663,2.32201 -2.29415,2.635 -0.23082,0.1396 -0.79502,-0.20724 -1.67289,-1.02839 z m -16.0862,-1.24277 c -0.61238,-0.62398 -1.113423,-1.24455 -1.113423,-1.37905 0,-0.40803 2.198673,-2.51354 2.624763,-2.51354 0.44441,0 2.6669,2.07712 2.6669,2.49247 0,0.43481 -2.19193,2.53461 -2.64583,2.53461 -0.23044,0 -0.92003,-0.51052 -1.53241,-1.13449 z m 21.12565,-0.86527 c -1.22498,-1.32894 -1.23601,-1.23689 0.35476,-2.96118 0.43632,-0.47294 0.97831,-0.85501 1.20442,-0.84904 0.5061,0.0134 2.66008,1.92582 2.66008,2.36182 0,0.17401 -0.43106,0.84245 -0.95791,1.4854 -1.24528,1.5197 -1.83258,1.51304 -3.26135,-0.037 z m -15.19036,-0.40398 c -0.67533,-0.59445 -1.22788,-1.28403 -1.22788,-1.53241 0,-0.4439 2.06818,-2.67843 2.47903,-2.67843 0.52529,0 2.54805,1.96021 2.54805,2.46925 0,0.49742 -1.97627,2.82241 -2.39908,2.82241 -0.0947,0 -0.72479,-0.48636 -1.40012,-1.08082 z m 6.23554,-1.112 c -0.61238,-0.62398 -1.11342,-1.24455 -1.11342,-1.37905 0,-0.40803 2.19868,-2.51354 2.62476,-2.51354 0.41335,0 2.66691,2.06372 2.66691,2.44225 0,0.42474 -2.19319,2.58483 -2.62444,2.58483 -0.24221,0 -0.94143,-0.51052 -1.55381,-1.13449 z m -16.040584,-1.22463 -1.281232,-1.3008 1.134158,-1.34504 c 0.623784,-0.73977 1.319371,-1.34504 1.545746,-1.34504 0.503057,0 2.680572,2.09138 2.680572,2.57454 0,0.4441 -2.083889,2.71713 -2.491035,2.71713 -0.168839,0 -0.883534,-0.58536 -1.588209,-1.30079 z m 21.067674,-0.89204 c -0.61239,-0.62397 -1.11343,-1.22194 -1.11343,-1.32883 0,-0.39763 2.1996,-2.56376 2.60337,-2.56376 0.45997,0 2.6883,2.066 2.6883,2.49247 0,0.43482 -2.19193,2.53461 -2.64583,2.53461 -0.23045,0 -0.92003,-0.51052 -1.53241,-1.13449 z m -15.27455,-0.4867 c -0.65159,-0.60062 -1.18394,-1.2257 -1.183,-1.38907 0.002,-0.42767 2.09754,-2.811417 2.46627,-2.806089 0.35307,0.0051 2.82459,2.254169 2.82198,2.567979 -0.003,0.40483 -2.16379,2.71921 -2.53833,2.71921 -0.21021,0 -0.91532,-0.49142 -1.56692,-1.09203 z m 6.28977,-1.00529 c -0.61846,-0.55951 -1.12448,-1.16257 -1.12448,-1.34014 0,-0.43886 1.52002,-2.328643 2.13981,-2.660346 0.41136,-0.220152 0.7137,-0.07167 1.694,0.831943 0.6563,0.604953 1.19327,1.301453 1.19327,1.547763 0,0.62367 -1.79743,2.66211 -2.33572,2.64891 -0.24332,-0.006 -0.94842,-0.46863 -1.56688,-1.02813 z m -15.742709,-0.97144 c -0.691224,-0.66572 -1.256771,-1.32181 -1.256771,-1.45798 0,-0.4368 2.16885,-2.617014 2.60337,-2.617014 0.468628,0 2.690816,2.072044 2.683815,2.502484 -0.0054,0.32979 -2.273504,2.79054 -2.567983,2.78605 -0.113112,-0.002 -0.771207,-0.54782 -1.462431,-1.21354 z m 21.023319,-0.97615 c -0.61238,-0.62398 -1.11342,-1.226377 -1.11342,-1.338674 0,-0.316016 1.90218,-2.516529 2.31094,-2.673385 0.36269,-0.139178 2.98072,2.094246 2.98072,2.542831 0,0.438688 -2.18226,2.603718 -2.62444,2.603718 -0.24221,0 -0.94142,-0.51052 -1.5538,-1.13449 z m -15.610418,-0.79375 c -0.612383,-0.623976 -1.113422,-1.221948 -1.113422,-1.328832 0,-0.409215 2.205543,-2.563762 2.62444,-2.563762 0.52038,0 2.77167,2.214666 2.63151,2.588689 -0.23833,0.635984 -2.12644,2.438395 -2.55434,2.438395 -0.26112,0 -0.975807,-0.51052 -1.588188,-1.13449 z m 6.625638,-0.669945 c -0.62379,-0.548148 -1.12448,-1.225447 -1.12448,-1.521129 0,-0.293156 0.53015,-1.053307 1.1781,-1.689225 1.04786,-1.028393 1.23067,-1.116446 1.65365,-0.796494 1.17462,0.888524 2.19534,1.979962 2.19534,2.347442 0,0.459264 -2.08626,2.675841 -2.50249,2.658811 -0.1516,-0.006 -0.78165,-0.45594 -1.40012,-0.999405 z M 40.21825,80.17637 c -0.691224,-0.648406 -1.256771,-1.28447 -1.256771,-1.413475 0,-0.415973 2.148907,-2.690307 2.54194,-2.690307 0.465292,0 2.749727,2.066049 2.749727,2.486861 0,0.373065 -2.205158,2.80652 -2.537609,2.800323 -0.132284,-0.0024 -0.806063,-0.534998 -1.497287,-1.183402 z m -8.598958,-1.093515 c -0.909506,-0.810204 -1.652236,-1.610603 -1.650512,-1.778664 0.0033,-0.325855 2.304058,-2.819916 2.599465,-2.817915 0.33354,0.0024 3.482812,2.952488 3.481109,3.261092 -0.0024,0.438346 -2.092445,2.824631 -2.466274,2.815863 -0.170578,-0.004 -1.054283,-0.670171 -1.963788,-1.480376 z m 29.368754,-0.0805 c -0.61847,-0.559507 -1.12448,-1.212128 -1.12448,-1.450269 0,-0.461229 2.02242,-2.802411 2.42086,-2.802411 0.40933,0 2.60622,2.165387 2.60622,2.568855 0,0.581409 -1.85454,2.724354 -2.34698,2.711961 -0.23713,-0.006 -0.93716,-0.46863 -1.55562,-1.028136 z M 45.631152,78.377677 c -0.612384,-0.623972 -1.113423,-1.23462 -1.113423,-1.356995 0,-0.265578 1.797378,-2.313493 2.294155,-2.613935 0.230814,-0.139594 0.795017,0.207243 1.672894,1.028393 0.728541,0.681464 1.324618,1.344457 1.324618,1.473314 0,0.438692 -2.182259,2.603717 -2.624442,2.603717 -0.24221,0 -0.941422,-0.510521 -1.553802,-1.134494 z m 6.199874,-1.00466 c -0.67533,-0.59445 -1.22647,-1.219528 -1.22474,-1.389062 0.003,-0.30272 2.29089,-2.821784 2.56274,-2.821784 0.38798,0 2.72579,2.225045 2.72579,2.594311 0,0.490082 -2.07146,2.697356 -2.53138,2.697356 -0.1675,0 -0.85708,-0.486368 -1.53241,-1.080821 z M 36.514083,76.759912 c -0.691224,-0.637514 -1.256002,-1.261322 -1.255062,-1.38624 0.0032,-0.420298 2.152224,-2.740668 2.538331,-2.740668 0.464049,0 2.752314,2.064571 2.749919,2.481094 -0.0025,0.426706 -2.096868,2.811113 -2.466274,2.80775 -0.170579,-0.0016 -0.87569,-0.524423 -1.566914,-1.161936 z m 20.637503,-1.322917 c -0.69123,-0.637514 -1.25677,-1.236657 -1.25677,-1.331428 0,-0.271455 2.42694,-2.795479 2.68795,-2.795479 0.427,0 2.60371,2.176428 2.60371,2.60337 0,0.46768 -2.07079,2.689894 -2.50248,2.685473 -0.1516,-0.0016 -0.84119,-0.524422 -1.53241,-1.161936 z M 26.968462,74.769872 25.346878,73.20257 26.428585,71.925601 c 0.594939,-0.702334 1.27538,-1.315162 1.512091,-1.361837 0.522823,-0.103089 3.61247,2.557039 3.61247,3.110273 0,0.501856 -2.105959,2.663134 -2.594972,2.663134 -0.20247,0 -1.09784,-0.705284 -1.989712,-1.567299 z m 14.958522,0.168222 c -0.612382,-0.623972 -1.113421,-1.244544 -1.113421,-1.379048 0,-0.40803 2.198677,-2.513542 2.624761,-2.513542 0.413348,0 2.666905,2.063721 2.666905,2.44225 0,0.424746 -2.193187,2.584834 -2.624442,2.584834 -0.24221,0 -0.941421,-0.510522 -1.553803,-1.134494 z m 6.464454,-0.740077 c -0.67533,-0.59445 -1.227875,-1.232529 -1.227875,-1.417957 0,-0.422344 2.065218,-2.792889 2.433164,-2.792889 0.375496,0 2.858499,2.106073 2.858499,2.424565 0,0.40482 -2.162216,2.867102 -2.517705,2.867102 -0.175014,0 -0.870752,-0.486368 -1.546083,-1.080821 z M 32.809917,73.389983 c -0.691224,-0.592146 -1.256771,-1.277575 -1.256771,-1.523175 0,-0.484529 2.08984,-2.673387 2.552452,-2.673387 0.413506,0 2.739214,2.105477 2.739214,2.479828 0,0.299599 -2.389932,2.82247 -2.654921,2.802599 -0.06776,-0.0051 -0.68875,-0.49372 -1.379974,-1.085865 z m 20.372919,-1.573022 c -0.69123,-0.592466 -1.25677,-1.195417 -1.25677,-1.339888 0,-0.389641 2.15258,-2.871429 2.48881,-2.869444 0.46545,0.0027 2.80285,2.11956 2.80285,2.538332 0,0.46405 -2.06457,2.752315 -2.48109,2.749917 -0.16337,-0.0011 -0.86258,-0.486452 -1.5538,-1.078917 z M 38.233875,71.551925 c -0.618464,-0.591458 -1.124479,-1.210744 -1.124479,-1.376196 0,-0.449442 2.165707,-2.569808 2.624761,-2.569808 0.444413,0 2.666906,2.077125 2.666906,2.49247 0,0.430504 -2.189991,2.53487 -2.634776,2.531761 -0.224363,-0.0016 -0.913948,-0.48677 -1.532412,-1.078227 z M 22.226583,70.427872 c -1.127787,-1.053129 -2.050521,-2.062023 -2.050521,-2.241986 0,-0.464803 2.110586,-2.696632 2.550139,-2.696632 0.436632,0 4.593611,3.913511 4.593611,4.32457 0,0.450863 -2.182223,2.556007 -2.634776,2.541712 -0.224363,-0.0071 -1.330667,-0.874535 -2.458453,-1.927664 z m 22.152944,0.05477 c -0.651593,-0.600617 -1.184714,-1.204781 -1.184714,-1.342587 0,-0.137806 0.568112,-0.846105 1.262472,-1.573997 l 1.262473,-1.32344 1.383361,1.125313 c 0.760849,0.618922 1.38336,1.308112 1.38336,1.531533 0,0.499096 -2.094227,2.675209 -2.574541,2.675209 -0.191236,0 -0.880819,-0.491413 -1.532411,-1.092031 z M 26.961732,67.971095 c -1.840347,-1.690925 -3.346087,-3.273479 -3.346087,-3.516786 0,-0.532018 2.215414,-2.770626 2.606215,-2.633501 0.501358,0.175917 6.918873,6.144364 6.914303,6.430472 -0.0056,0.349172 -2.276591,2.794224 -2.595332,2.794224 -0.128156,0 -1.738751,-1.383485 -3.579099,-3.074409 z M 49.74325,68.64196 c -0.691224,-0.592466 -1.256771,-1.249201 -1.256771,-1.459412 0,-0.464049 2.064567,-2.752314 2.481097,-2.749919 0.42767,0.0025 2.81142,2.097539 2.80609,2.466274 -0.005,0.353069 -2.25417,2.824584 -2.56798,2.821975 -0.11312,-0.0011 -0.771212,-0.486452 -1.462436,-1.078918 z M 34.529708,68.182738 c -0.618463,-0.543467 -1.124479,-1.143431 -1.124479,-1.333253 0,-0.189823 0.431061,-0.871185 0.957914,-1.51414 1.245281,-1.519701 1.832575,-1.513038 3.261352,0.037 1.224974,1.328941 1.236002,1.236891 -0.354763,2.961179 -0.436319,0.472943 -0.978311,0.854819 -1.204426,0.848615 -0.226115,-0.0062 -0.917134,-0.455936 -1.535598,-0.999401 z m 6.418796,-0.867206 c -0.656301,-0.604958 -1.193275,-1.27308 -1.193275,-1.484717 0,-0.581408 1.854542,-2.724353 2.346977,-2.711959 0.583654,0.01469 2.680107,1.941539 2.680107,2.463286 0,0.480346 -1.422989,2.181701 -2.150304,2.570947 -0.39786,0.212929 -0.715073,0.05511 -1.683505,-0.837557 z m 4.75394,-2.389142 c -0.651592,-0.600617 -1.183304,-1.225695 -1.181579,-1.389062 0.003,-0.287725 2.293778,-2.810574 2.551996,-2.810574 0.368617,0 2.736535,2.25937 2.736535,2.61109 0,0.50306 -2.09138,2.680577 -2.574541,2.680577 -0.191236,0 -0.880819,-0.491414 -1.532411,-1.092031 z M 29.470696,63.480018 c -1.328507,-1.250601 -2.415467,-2.475967 -2.415467,-2.723037 0,-0.671411 2.251181,-2.786228 2.6873,-2.524519 0.981869,0.589208 4.984186,4.497118 4.974765,4.857419 -0.01456,0.556676 -1.943314,2.663957 -2.438275,2.663957 -0.21607,0 -1.479815,-1.023219 -2.808323,-2.27382 z m 7.429205,0.08099 c -0.612382,-0.623971 -1.113422,-1.221944 -1.113422,-1.328828 0,-0.397632 2.199595,-2.563761 2.60337,-2.563761 0.472269,0 2.694206,2.076742 2.677446,2.502484 -0.02046,0.519794 -2.045199,2.524599 -2.549697,2.524599 -0.277352,0 -1.005315,-0.510522 -1.617697,-1.134494 z m 5.157983,-1.985515 c -0.538856,-0.551839 -0.979738,-1.185252 -0.979738,-1.407584 0,-0.554194 1.801217,-2.616157 2.28533,-2.616157 0.543576,0 2.741753,1.879188 2.741753,2.343883 0,0.683383 -1.846551,2.683201 -2.477559,2.683201 -0.334371,0 -1.014582,-0.434764 -1.569786,-1.003343 z m -9.678655,-2.149092 c -1.219143,-1.137757 -2.171643,-2.194454 -2.116666,-2.348216 0.15597,-0.436227 2.349771,-2.701431 2.616277,-2.701431 0.131025,0 1.2811,0.994773 2.555723,2.210606 l 2.317495,2.210606 -1.139718,1.361269 c -0.626846,0.748698 -1.336992,1.355542 -1.578103,1.348542 -0.24111,-0.007 -1.435864,-0.943619 -2.655008,-2.081376 z m 5.843589,-1.421641 c -0.612382,-0.623971 -1.113422,-1.221944 -1.113422,-1.328828 0,-0.40475 2.203122,-2.563634 2.613385,-2.560909 0.494606,0.0033 2.678282,2.004443 2.678282,2.454423 0,0.460842 -2.171359,2.569808 -2.645834,2.569808 -0.230444,0 -0.92003,-0.510522 -1.532411,-1.134494 z m -3.439584,-3.175 c -0.612382,-0.623971 -1.112152,-1.24905 -1.1106,-1.389062 0.0044,-0.398139 2.33561,-2.827287 2.61624,-2.726168 0.432305,0.155772 2.672605,2.355639 2.672605,2.62437 0,0.4547 -2.169899,2.625354 -2.624442,2.625354 -0.24221,0 -0.941421,-0.510522 -1.553803,-1.134494 z"
         style="fill:#ffffff;fill-opacity:1;stroke:#ffffff;stroke-width:12.41570139;stroke-miterlimit:4;stroke-dasharray:none;stroke-opacity:0.9945504"
         inkscape:connector-curvature="0" />
    </g>
    <rect
       style="opacity:1;fill:#fcfcfc;fill-opacity:1;stroke:none;stroke-width:0.76900584;stroke-linecap:round;stroke-linejoin:miter;stroke-miterlimit:4;stroke-dasharray:none;stroke-dashoffset:0;stroke-opacity:1;paint-order:normal"
       id="rect1286"
       width="110.894"
       height="37.449463"
       x="53.698299"
       y="-13.164008"
       transform="matrix(0.75384606,0.65705108,-0.6728383,0.73978958,0,0)"
       ry="1.9261912"
       inkscape:export-filename="/home/falk/Schreibtisch/auskleber.png"
       inkscape:export-xdpi="150"
       inkscape:export-ydpi="150" />
    <g
       id="g857"
       transform="translate(16.486636,-7.7659522)"
       inkscape:export-filename="/home/falk/Schreibtisch/auskleber.png"
       inkscape:export-xdpi="150"
       inkscape:export-ydpi="150">
      <path
         sodipodi:nodetypes="cccccssccccccscccccccccsccssccsccccccccccccssscccccccccccssccccccccsscccccccccccccccccsscccscsccsccccccsccccsscccccccccccccsscscccsccscccccccssscccccccccccsssccccccccssccccccscccccsccsccsccssccsccccsccsccccccccccccccccccccccccccccccccccccccccccccccccccccccccccccccccccccccccccccccccccccccccccccccsccsccsccccssccccsccccsccsccscccccssccccccccsccsssccscccssccsccccsccscscssccccccccccccccccccsscccscccsccscccscsscccccccccccccsssccccscccssccscccssccsccccccsccsccsccccssccccsccccsccsccsccccccscccccccccccccccccccccccccccccccccccccccccccccccccccccccccccccccccccccccccccccccccccccccccccccccccccccccccccccsccssccsccssccssccssccsccssccscccccssccccsccsscccccccccssccccsccsscccccccccccccccccccccccccccccccccccccacccaaccaccccccccccccccc"
         inkscape:connector-curvature="0"
         id="text1881-8"
         d="m 7.8258631,129.9409 c -0.9233601,0 -1.7442504,0.24791 -2.4361895,0.76688 -0.6878498,0.50603 -1.229388,1.2653 -1.5949753,2.22591 l -0.00208,0.003 v 0.003 c -0.3593485,0.96723 -0.5288823,2.10373 -0.5288823,3.39422 v 11.6279 c 0,1.29051 0.1695338,2.42977 0.5288823,3.397 v 0.003 l 0.00208,0.003 c 0.3661815,0.96218 0.9066081,1.72622 1.5949753,2.24253 h 0.00208 l 0.00208,0.003 c 0.6914054,0.50679 1.5100623,0.74749 2.4320251,0.74749 0.921963,0 1.7406189,-0.2407 2.4320233,-0.74749 v -0.003 h 0.002 c 0.697037,-0.5162 1.240142,-1.28176 1.59914,-2.24806 v -0.003 c 0.358262,-0.97594 0.528883,-2.12035 0.528883,-3.41084 -0.611833,-3.58815 -3.8708011,-4.03578 -3.8708011,0 0,0.33442 -0.038781,0.59283 -0.095782,0.78072 -0.054447,0.16934 -0.1163626,0.26558 -0.208221,0.34331 -0.08695,0.0736 -0.2038039,0.1246 -0.3872919,0.1246 -0.1633343,0 -0.2720991,-0.0466 -0.3643872,-0.1246 -0.092557,-0.0784 -0.1597419,-0.18437 -0.2207146,-0.35438 -0.05624,-0.1892 -0.0937,-0.43535 -0.0937,-0.75304 v -11.62886 c 0,-0.32128 0.038429,-0.56861 0.095782,-0.75858 0.062373,-0.18147 0.1297223,-0.28744 0.2186324,-0.36267 0.092289,-0.078 0.2010529,-0.1246 0.3643872,-0.1246 0.1685255,0 0.2732134,0.0466 0.362305,0.12729 l 0.010417,0.0118 0.010417,0.008 c 0.095651,0.0773 0.1580579,0.16877 0.2123858,0.34606 2.5225764,4.15531 4.5604814,0.7349 3.4377344,-2.62456 v -0.003 c -0.35795,-0.97417 -0.901841,-1.73875 -1.599139,-2.24531 -0.6915352,-0.51812 -1.5114418,-0.76687 -2.4340538,-0.76687 z m 30.8521539,0 c -0.969276,0 -1.827934,0.2196 -2.561123,0.68383 h -0.0021 c -0.725862,0.46511 -1.303188,1.16975 -1.69284,2.0764 -0.390826,0.90938 -0.578855,1.9865 -0.578855,3.19491 v 12.50274 c 0,1.20839 0.188029,2.28551 0.578855,3.19491 v 0.003 h 0.0021 c 0.389728,0.89505 0.963843,1.59617 1.686593,2.07088 l 0.0021,0.003 0.0041,0.003 c 0.733189,0.46423 1.591848,0.68385 2.561123,0.68384 0.969274,0 1.824051,-0.22097 2.550711,-0.68659 h 0.0021 c 0.730568,-0.47413 1.310683,-1.17686 1.701168,-2.07365 v -0.003 c 0.390826,-0.9094 0.578856,-1.98652 0.578856,-3.19491 v -12.50274 c 0,-1.20841 -0.18803,-2.28553 -0.578856,-3.19491 -0.390139,-0.90779 -0.970299,-1.61188 -1.70325,-2.0764 -0.72666,-0.46564 -1.581438,-0.68382 -2.550711,-0.68382 z m 10.481861,0 c -0.949847,0 -1.789688,0.2337 -2.50282,0.72534 -0.711265,0.49038 -1.273048,1.22407 -1.651196,2.15948 l -0.0021,0.003 c -0.371102,0.92811 -0.547623,2.0221 -0.547623,3.25582 v 1.17385 c 0,1.18729 0.159386,2.22591 0.499732,3.09525 0.323422,0.82609 0.736243,1.51275 1.238916,2.04042 l 0.0021,0.003 0.0021,0.003 c 0.475403,0.48793 1.03985,0.94893 1.694922,1.3898 l 0.0083,0.006 0.16033,0.097 c 0.0081,0.006 0.01839,0.0144 0.02082,0.0166 l 0.0229,0.0221 0.120769,0.0802 h 0.0021 c 0.469237,0.30683 0.834913,0.57011 1.086914,0.78073 l 0.0063,0.006 0.0063,0.006 c 0.234837,0.18215 0.409585,0.39227 0.541376,0.63122 l 0.0063,0.008 0.0041,0.008 c 0.116078,0.19461 0.170741,0.39846 0.170741,0.69768 v 1.98411 c 0,0.44904 -0.08077,0.70744 -0.222796,0.90254 l -0.0021,0.003 -0.0021,0.006 c -0.129684,0.18431 -0.304366,0.28791 -0.63924,0.28791 -0.343371,0 -0.536621,-0.11068 -0.682965,-0.30452 -0.148499,-0.20654 -0.231126,-0.47098 -0.231126,-0.92469 v -1.83833 l -3.825026,0.0416 v 1.82703 c 0,1.255 0.179478,2.37135 0.558034,3.3195 l 0.0021,0.003 0.0021,0.006 c 0.38623,0.9337 0.953326,1.66812 1.669935,2.16776 l 0.0021,0.003 h 0.0021 c 0.719658,0.49009 1.563384,0.72534 2.513232,0.72534 0.942514,0 1.779964,-0.23417 2.492409,-0.72534 l 0.0021,-0.003 h 0.0021 c 0.709202,-0.50059 1.266629,-1.24074 1.63662,-2.17607 0.378554,-0.94815 0.560116,-2.0645 0.560116,-3.31949 v -1.89091 c 0,-1.17372 -0.148403,-2.1818 -0.476828,-3.00665 -0.307019,-0.77107 -0.691134,-1.39413 -1.155628,-1.84385 -0.427327,-0.42334 -0.970205,-0.8634 -1.634537,-1.33166 l -0.0041,-0.003 -0.05206,-0.036 0.120769,0.11621 c -0.06217,-0.0827 -0.113001,-0.11808 -0.156166,-0.14673 l -0.266524,-0.1772 -0.01458,-0.0118 c -0.08524,-0.0612 -0.172083,-0.11907 -0.258194,-0.17167 l -0.01667,-0.0118 c -0.434117,-0.28917 -0.775356,-0.53517 -1.011955,-0.72536 -0.202538,-0.17779 -0.366244,-0.38634 -0.503896,-0.63399 -0.106524,-0.20402 -0.164495,-0.43276 -0.164495,-0.75304 v -1.51717 c 0,-0.40238 0.07134,-0.61291 0.199893,-0.77796 0.135661,-0.17437 0.325742,-0.27963 0.666308,-0.27963 0.303164,0 0.454989,0.0961 0.58302,0.29071 l 0.0041,0.008 0.0063,0.006 c 0.132597,0.18846 0.21655,0.46373 0.21655,0.94131 v 1.91859 l 3.825025,-0.0636 v -1.88539 c 0,-1.25318 -0.177007,-2.36425 -0.547621,-3.30288 -0.369161,-0.94489 -0.923758,-1.68704 -1.62829,-2.17885 -0.704532,-0.49177 -1.531223,-0.72534 -2.459095,-0.72534 z m 19.474941,0 c -0.969275,0 -1.82585,0.2196 -2.559041,0.68383 h -0.0021 c -0.72586,0.46511 -1.303187,1.16975 -1.692839,2.0764 -0.390826,0.90938 -0.578855,1.9865 -0.578855,3.19491 v 12.50274 c 0,1.20839 0.188029,2.28551 0.578855,3.19491 v 0.003 c 0.389726,0.89505 0.965924,1.59617 1.688674,2.07088 l 0.0021,0.003 0.0041,0.003 c 0.73319,0.46423 1.589766,0.68385 2.55904,0.68384 0.969274,0 1.824051,-0.22097 2.550711,-0.68659 h 0.0021 c 0.730569,-0.47413 1.310683,-1.17686 1.70117,-2.07365 h 0.0021 v -0.003 c 0.390824,-0.9094 0.576772,-1.98652 0.576772,-3.19491 v -12.50274 c 0,-1.20841 -0.185948,-2.28553 -0.576772,-3.19491 -0.390141,-0.90779 -0.972382,-1.61188 -1.705334,-2.0764 -0.72666,-0.46564 -1.581436,-0.68382 -2.550711,-0.68382 z m 33.531951,0 c -0.92336,0 -1.74424,0.24791 -2.436182,0.76688 -0.687843,0.50603 -1.229384,1.2653 -1.594972,2.22591 l -0.0021,0.003 v 0.003 c -0.359348,0.96723 -0.528882,2.10373 -0.528882,3.39422 v 11.6279 c 0,1.29051 0.169534,2.42977 0.528882,3.397 v 0.003 l 0.0021,0.003 c 0.366182,0.96218 0.906605,1.72622 1.594972,2.24253 h 0.002 l 0.002,0.003 c 0.691392,0.50679 1.510052,0.74749 2.432002,0.74749 0.92197,0 1.74062,-0.2407 2.43203,-0.74749 v -0.003 h 0.002 c 0.69704,-0.5162 1.24014,-1.28176 1.59914,-2.24806 v -0.003 c 0.35826,-0.97594 0.52889,-2.12035 0.52889,-3.41084 v -2.44187 h -3.87084 v 2.44187 c 0,0.33442 -0.0388,0.59283 -0.0958,0.78072 -0.0544,0.16934 -0.11635,0.26558 -0.20822,0.34331 -0.0869,0.0736 -0.2038,0.1246 -0.38729,0.1246 -0.16334,0 -0.2721,-0.0466 -0.36439,-0.1246 -0.0926,-0.0784 -0.15974,-0.18437 -0.22072,-0.35438 -0.0562,-0.1892 -0.0937,-0.43535 -0.0937,-0.75304 v -11.62886 c 0,-0.32128 0.0385,-0.56861 0.0958,-0.75858 0.0624,-0.18147 0.12973,-0.28744 0.21864,-0.36267 0.0923,-0.078 0.20105,-0.1246 0.36438,-0.1246 0.16853,0 0.27322,0.0466 0.36232,0.12729 l 0.0105,0.0118 0.0105,0.008 c 0.0957,0.0773 0.15806,0.16877 0.21238,0.34606 0.0585,0.19068 0.0958,0.44496 0.0958,0.76966 v 2.44186 h 3.87083 v -2.44186 c 0,-1.28949 -0.1701,-2.42747 -0.52888,-3.39422 v -0.003 c -0.35795,-0.97417 -0.90183,-1.73875 -1.59914,-2.24531 -0.69158,-0.51812 -1.51149,-0.76687 -2.4341,-0.76687 z m -88.843865,0.23256 v 0.61461 23.3333 h 3.837519 v -9.37705 h 1.380508 v 9.37705 h 3.837518 v -23.94791 h -3.837518 v 0.61461 9.08913 h -1.380508 v -9.70374 z m 13.578113,0 -0.08537,0.47065 -4.212318,23.47726 h 3.854176 l 0.522636,-3.52989 h 2.615259 l 0.522636,3.52989 h 3.854177 L 29.67452,130.17346 Z m 28.193167,0 v 4.94738 h 3.866671 l -4.079057,14.84218 v 4.15835 h 8.278882 v -4.94463 h -4.162345 l 4.04574,-14.84494 v -0.10796 -4.05038 z m 19.543655,0 v 0.61461 23.31944 h 3.589735 v -10.3765 l 2.885948,10.3765 h 3.096251 v -23.93405 h -3.577243 v 10.99389 l -2.915098,-10.99389 z m 10.742138,0 v 0.61461 23.3333 h 1.293054 2.544466 4.672485 0.0063 3.831273 v -5.10244 h -3.837521 v 0.0942 H 89.21754 v -4.39923 h 4.089467 v -4.99168 H 89.21754 v -4.54041 h 4.678733 v -5.00835 H 89.21754 86.673075 Z m 22.319232,0 v 4.94738 h 3.86875 l -4.07905,14.84218 v 4.15835 h 8.27887 v -4.94463 h -4.16442 l 4.04574,-14.84494 v -0.10796 -4.05038 z M 7.8258631,131.1646 c 0.8004033,0 1.4519,0.21128 1.9822666,0.60906 l 0.00414,0.003 0.00212,0.003 c 0.5376753,0.38913 0.9323663,0.94105 1.2160133,1.71374 l 0.002,0.003 c 0.283145,0.76214 0.433101,1.70708 0.433101,2.85437 v 1.2154 H 9.4395295 v -1.2154 c 0,-0.44621 -0.050541,-0.86009 -0.1644949,-1.232 -0.1161566,-0.37908 -0.3181615,-0.70455 -0.5767737,-0.91916 -0.2538477,-0.22602 -0.5590336,-0.33777 -0.8724468,-0.33777 -0.3067832,0 -0.6054073,0.10209 -0.8578719,0.31563 -0.2536088,0.21458 -0.4502074,0.53567 -0.5746909,0.90807 l -0.00208,0.008 -0.00417,0.0118 c -0.1139545,0.37191 -0.1624126,0.78302 -0.1624126,1.22924 v 11.62789 c 0,0.44621 0.048458,0.86009 0.1624126,1.23201 l 0.00417,0.0118 0.00417,0.0141 c 0.1257557,0.36228 0.3231948,0.67492 0.5726086,0.88594 0.2524646,0.21361 0.5510887,0.31284 0.8578718,0.31284 0.3179706,0 0.6250542,-0.0947 0.8828577,-0.31284 0.2520845,-0.21329 0.4466843,-0.53573 0.5642794,-0.90532 l 0.00202,-0.003 v -0.003 c 0.1147052,-0.37435 0.1644948,-0.79357 0.1644948,-1.2486 v -1.2154 h 2.0259934 v 1.2154 c 0,1.14727 -0.15095,2.09946 -0.435182,2.87373 -0.283401,0.76115 -0.680132,1.31657 -1.2201772,1.7165 -0.530616,0.38841 -1.1833471,0.59524 -1.9843486,0.59524 -0.8000212,0 -1.4519989,-0.205 -1.982267,-0.59247 l -0.00208,-0.003 c -0.5312856,-0.39937 -0.930951,-0.95631 -1.2222593,-1.7193 v -0.003 c -4.814e-4,-8.9e-4 -0.00159,-8.9e-4 -0.00208,-0.003 -0.2820232,-0.76131 -0.4331004,-1.7039 -0.4331004,-2.84882 v -11.6279 c 0,-1.14493 0.1510783,-2.08476 0.4331004,-2.84606 l 0.00208,-0.003 c 2.639e-4,-7.2e-4 -2.639e-4,-8.9e-4 0,-0.003 0.2914468,-0.76332 0.6895599,-1.31648 1.2201771,-1.70542 h 0.00208 l 0.00208,-0.003 c 0.5303664,-0.39778 1.181863,-0.60905 1.982267,-0.60905 z m 30.8521539,0 c 0.864183,0 1.574845,0.19697 2.148843,0.56477 l 0.0021,0.003 c 0.58269,0.36893 1.004358,0.8821 1.303465,1.57807 0.298681,0.69498 0.456004,1.54394 0.456004,2.58582 V 148.399 c 0,1.04083 -0.157913,1.88848 -0.456004,2.58306 -0.298524,0.68559 -0.721301,1.20363 -1.305547,1.58361 -0.573999,0.3678 -1.28466,0.56478 -2.148845,0.56478 -0.861626,0 -1.577053,-0.1949 -2.159255,-0.56201 l -0.0021,-0.003 c -0.576417,-0.3794 -0.995858,-0.89628 -1.295137,-1.58359 -0.298092,-0.6946 -0.456005,-1.54224 -0.456005,-2.58307 v -12.50274 c 0,-1.04189 0.157324,-1.89085 0.456005,-2.58582 0.299352,-0.69655 0.717662,-1.20989 1.290973,-1.57807 0.583139,-0.36921 1.301318,-0.56755 2.165503,-0.56755 z m 10.481861,0 c 0.811562,0 1.483125,0.20363 2.03224,0.58693 0.548215,0.38267 0.949913,0.92004 1.238917,1.66112 v 0.003 c 0.287551,0.72825 0.44143,1.63128 0.44143,2.73255 v 0.67552 l -1.982268,0.0305 v -0.67551 c 0,-0.68603 -0.143552,-1.31218 -0.462251,-1.76911 -0.31076,-0.46589 -0.775364,-0.7032 -1.268068,-0.7032 -0.504933,0 -0.971189,0.19706 -1.305548,0.62568 -0.325883,0.41836 -0.483073,1.01893 -0.483073,1.65836 v 1.51716 c 0,0.5318 0.109941,1.04177 0.331072,1.46179 l 0.0021,0.006 0.0041,0.006 c 0.205081,0.37184 0.457269,0.68995 0.751679,0.94684 l 0.0083,0.006 0.0063,0.006 c 0.276484,0.22281 0.64249,0.48251 1.103573,0.78903 l 0.0063,0.006 0.0083,0.006 c 0.07565,0.0458 0.152309,0.0967 0.229043,0.15226 l 0.0063,0.003 0.247783,0.16613 0.01045,0.0141 0.104115,0.0692 c 0.636327,0.44852 1.143978,0.8636 1.515852,1.23199 l 0.0021,0.003 h 0.0021 c 0.332666,0.32091 0.628817,0.79087 0.884941,1.43411 0.235716,0.592 0.370634,1.39589 0.370635,2.43079 v 1.88961 c 0,1.09947 -0.15656,2.00405 -0.451841,2.74363 v 0.003 c -0.287701,0.72864 -0.693634,1.26936 -1.25141,1.66391 -0.556873,0.38392 -1.239375,0.58692 -2.067638,0.58692 -0.834836,0 -1.523792,-0.2035 -2.088459,-0.58692 l -0.0041,-0.003 c -0.566251,-0.39607 -0.984278,-0.94086 -1.286809,-1.67221 -0.293505,-0.7383 -0.447676,-1.63927 -0.447676,-2.73532 v -0.61185 l 1.980185,-0.0194 v 0.60077 c 0,0.68817 0.158735,1.32627 0.493486,1.78571 l 0.0021,0.003 0.0041,0.003 c 0.339304,0.45114 0.819212,0.66446 1.33678,0.66446 0.509655,0 0.982945,-0.21706 1.307631,-0.67552 0.32588,-0.45047 0.480992,-1.07586 0.480992,-1.74973 v -1.98505 c 0,-0.53026 -0.127751,-1.03979 -0.368552,-1.44796 -0.21218,-0.38125 -0.485882,-0.70216 -0.812064,-0.95513 -0.295238,-0.2458 -0.676149,-0.51844 -1.15771,-0.83333 h 0.0041 l -0.0937,-0.061 h -0.0021 c -0.02704,-0.0213 -0.05327,-0.0451 -0.08121,-0.0637 l -0.0063,-0.003 -0.145755,-0.0885 -0.01045,-0.008 -0.0041,-0.003 c -0.60485,-0.40849 -1.115084,-0.82789 -1.528344,-1.25138 l -0.0041,-0.006 c -0.38867,-0.40943 -0.717995,-0.94941 -0.989051,-1.64176 -0.255138,-0.65169 -0.39562,-1.48552 -0.39562,-2.52768 v -1.17348 c 0,-1.07801 0.15283,-1.95963 0.439346,-2.67719 0.295687,-0.73143 0.705851,-1.26809 1.263904,-1.65282 0.556184,-0.38345 1.241451,-0.58969 2.078048,-0.58969 z m 19.474941,0 c 0.864183,0 1.576927,0.19697 2.150926,0.56477 l 0.0021,0.003 c 0.582692,0.36893 1.002278,0.8821 1.301385,1.57807 0.29868,0.69498 0.458086,1.54394 0.458086,2.58582 V 148.399 c 0,1.04189 -0.159406,1.89084 -0.458086,2.58583 -0.298437,0.68388 -0.720191,1.2015 -1.303466,1.58084 -0.573998,0.3678 -1.286743,0.56478 -2.150926,0.56478 -0.861625,0 -1.574972,-0.19492 -2.157173,-0.56201 l -0.0021,-0.003 c -0.576417,-0.3794 -0.995858,-0.89628 -1.295136,-1.58359 -0.298091,-0.6946 -0.456005,-1.54224 -0.456005,-2.58307 v -12.50274 c 0,-1.04189 0.157324,-1.89085 0.456005,-2.58582 0.299352,-0.69655 0.717662,-1.20989 1.290972,-1.57807 0.583139,-0.36921 1.299236,-0.56755 2.163418,-0.56755 z m 33.531951,0 c 0.8004,0 1.4519,0.21128 1.98226,0.60906 l 0.004,0.003 0.002,0.003 c 0.53769,0.38913 0.93237,0.94105 1.21602,1.71374 l 0.002,0.003 c 0.28315,0.76214 0.43311,1.70708 0.43311,2.85437 v 1.2154 h -2.02808 v -1.2154 c 0,-0.44621 -0.0485,-0.86009 -0.16241,-1.232 -0.11615,-0.37908 -0.31816,-0.70455 -0.57677,-0.91916 -0.25385,-0.22602 -0.55904,-0.33777 -0.87245,-0.33777 -0.30678,0 -0.6054,0.10209 -0.85788,0.31563 -0.2536,0.21458 -0.4502,0.53567 -0.57468,0.90807 l -0.002,0.008 -0.004,0.0118 c -0.11395,0.37191 -0.16241,0.78302 -0.16241,1.22924 v 11.62789 c 0,0.44621 0.0485,0.86009 0.16241,1.23201 l 0.004,0.0118 0.004,0.0141 c 0.12577,0.36228 0.3232,0.67492 0.57261,0.88594 0.25246,0.21361 0.55109,0.31284 0.85787,0.31284 0.31797,0 0.62505,-0.0947 0.88286,-0.31284 0.25208,-0.21329 0.44668,-0.53573 0.56428,-0.90532 v -0.003 l 0.002,-0.003 c 0.1147,-0.37435 0.16241,-0.79357 0.16241,-1.2486 v -1.2154 h 2.02807 v 1.2154 c 0,1.14727 -0.15095,2.09946 -0.43519,2.87373 -0.2834,0.76115 -0.68013,1.31657 -1.22017,1.7165 -0.53061,0.38841 -1.18335,0.59524 -1.98435,0.59524 -0.80002,0 -1.452,-0.205 -1.98226,-0.59247 l -0.002,-0.003 c -0.531285,-0.39932 -0.930944,-0.95626 -1.222257,-1.71925 v -0.003 c -4.74e-4,-8.9e-4 -0.002,-8.9e-4 -0.002,-0.003 -0.282021,-0.76131 -0.433098,-1.7039 -0.4331,-2.84882 v -11.6279 c 0,-1.14493 0.15108,-2.08476 0.4331,-2.84606 l 0.002,-0.003 c 2.63e-4,-7.2e-4 -2.62e-4,-8.9e-4 0,-0.003 0.291455,-0.76332 0.689559,-1.31648 1.220177,-1.70542 h 0.002 l 0.002,-0.003 c 0.53036,-0.39778 1.18186,-0.60905 1.98226,-0.60905 z m -87.921444,0.23532 h 1.992678 v 8.47728 h -1.528345 v 0.61463 4.25249 h 1.528345 v 8.15059 h -1.992678 z m 5.218026,0 h 1.992678 v 21.49499 h -1.992678 v -8.15059 h 1.892731 v -4.86712 h -1.892731 z m 8.164358,0 h 1.318042 l 3.85834,21.49499 h -1.928129 l -0.341482,-2.30343 h 0.541374 v -4.85326 h -1.26182 l -1.074423,-7.23976 h -0.90368 l -1.074423,7.23976 h -1.26182 v 0.6146 4.23866 h 0.541374 l -0.341482,2.30343 h -1.92813 z m 28.386813,0 h 6.107132 v 2.71594 l -4.439278,16.28735 h 4.555883 v 2.4917 h -6.43404 v -2.71595 l 4.476759,-16.28458 h -4.266456 z m 19.545737,0 h 1.50544 l 3.566831,13.45789 v 3.66002 l 1.290973,-2.48062 -0.368551,-1.38979 v -13.2475 h 1.734483 v 21.48113 h -1.534591 l -3.52727,-12.68822 v -3.67664 l -1.278479,2.61903 0.358142,1.28739 v 12.45844 H 75.56026 Z m 10.742138,0 h 0.370634 v 3.78184 h 1.622044 v 4.54042 h -1.622044 v 0.61184 4.37983 h 1.622044 v 4.39923 h -1.622044 v 0.6146 3.16723 h -0.370634 z m 1.293055,0 h 0.699623 v 2.55537 h -0.699623 z m 1.622045,0 h 3.756312 v 2.55537 h -3.756312 z m 19.404142,0 h 6.10712 v 2.71594 l -4.43927,16.28735 h 4.55588 v 2.4917 h -6.43612 v -2.71595 l 4.47676,-16.28458 h -4.26437 z m -69.943623,2.40033 c -0.358412,0 -0.697225,0.0945 -0.989053,0.31006 -0.288446,0.21309 -0.522483,0.54224 -0.670472,0.93579 -0.147988,0.39353 -0.212386,0.84093 -0.212386,1.32059 v 11.53098 c 0,0.48824 0.06341,0.94106 0.212386,1.3372 0.147989,0.39355 0.382026,0.71994 0.670472,0.93302 0.291828,0.21556 0.630641,0.31283 0.989053,0.31283 0.357694,0 0.693459,-0.0982 0.984886,-0.31283 0.294041,-0.21129 0.53599,-0.53662 0.685049,-0.93302 0.14897,-0.39614 0.212385,-0.84896 0.212385,-1.3372 v -11.53098 c 0,-0.47966 -0.06439,-0.92706 -0.212385,-1.32059 -0.149953,-0.39877 -0.392754,-0.72737 -0.689213,-0.93854 -0.290527,-0.21264 -0.62463,-0.30731 -0.980722,-0.30731 z m 29.956802,0 c -0.35841,0 -0.695142,0.0945 -0.986969,0.31006 -0.288448,0.21309 -0.522484,0.54224 -0.670473,0.93579 -0.147989,0.39353 -0.212386,0.84093 -0.212386,1.32059 v 11.53098 c 0,0.48824 0.06341,0.94106 0.212386,1.3372 0.147989,0.39355 0.382025,0.71994 0.670473,0.93302 0.291827,0.21556 0.628559,0.31283 0.986969,0.31283 0.357697,0 0.695542,-0.0982 0.986968,-0.31283 0.294039,-0.21129 0.53391,-0.53664 0.682966,-0.93302 0.148972,-0.39614 0.214469,-0.84896 0.214469,-1.3372 v -11.53098 c 0,-0.47966 -0.06648,-0.92706 -0.214469,-1.32059 -0.149952,-0.39877 -0.390671,-0.72737 -0.687129,-0.93854 -0.290531,-0.21264 -0.626708,-0.30731 -0.982805,-0.30731 z m -29.956802,1.22647 c 0.237071,0 0.408013,0.0581 0.539293,0.15504 l 0.0021,0.003 0.0041,0.003 c 0.142317,0.10137 0.230404,0.22233 0.299838,0.40698 0.07139,0.18986 0.114523,0.43948 0.114523,0.77241 v 11.53099 c 0,0.3452 -0.0441,0.60179 -0.114523,0.78904 -0.06944,0.18465 -0.157521,0.3056 -0.299838,0.40697 l -0.0041,0.003 h -0.0021 c -0.13128,0.097 -0.302222,0.15781 -0.539293,0.15781 -0.237073,0 -0.410098,-0.0607 -0.541377,-0.15781 -0.134658,-0.0995 -0.222193,-0.21987 -0.293591,-0.40975 -0.07042,-0.18726 -0.114522,-0.44383 -0.114522,-0.78903 v -11.53099 c 0,-0.33294 0.04312,-0.58255 0.114522,-0.77241 0.0714,-0.18988 0.158933,-0.31306 0.293591,-0.41253 0.131279,-0.097 0.304304,-0.15503 0.541377,-0.15503 z m 29.956802,0 c 0.237072,0 0.410096,0.0581 0.541376,0.15504 l 0.0021,0.003 0.0041,0.003 c 0.142318,0.10137 0.228321,0.22233 0.297757,0.40698 0.07139,0.18986 0.116604,0.43948 0.116604,0.77241 v 11.53099 c 0,0.3452 -0.04618,0.60179 -0.116604,0.78904 -0.06944,0.18465 -0.155439,0.3056 -0.297757,0.40697 l -0.0041,0.003 h -0.0021 c -0.13128,0.097 -0.304304,0.15781 -0.541376,0.15781 -0.237072,0 -0.408015,-0.0607 -0.539294,-0.15781 -0.134659,-0.0995 -0.222193,-0.21987 -0.293592,-0.40975 -0.07042,-0.18726 -0.116603,-0.44383 -0.116603,-0.78903 v -11.53099 c 0,-0.33294 0.0452,-0.58255 0.116603,-0.77241 0.07139,-0.18988 0.158933,-0.31306 0.293592,-0.41253 0.131279,-0.097 0.302222,-0.15503 0.539294,-0.15503 z m 18.960634,5.92191 h 0.699623 v 2.53876 h -0.699623 z m 1.622045,0 h 3.167045 v 2.53876 h -3.167045 z m -73.585419,0.15504 h 0.605925 v 2.41692 h -0.605925 z m 1.528345,0 h 1.380508 v 2.41692 h -1.380508 z m 2.302928,0 h 0.970311 v 2.41692 h -0.970311 z m 8.824419,0.67552 0.587185,3.95903 h -1.174368 z m -1.865662,5.18549 h 0.158249 l -0.158249,1.06035 z m 1.097326,0 h 1.536673 l 0.356059,2.40033 h -2.248791 z m 2.475751,0 h 0.158249 v 1.06035 z m 64.817218,3.28072 h 1.992678 v 2.64951 h -1.992678 z m -7.216951,0.0941 h 0.699623 v 2.55539 h -0.699623 z m 1.622045,0 h 3.756312 v 2.55539 h -3.756312 z"
         style="color:#000000;font-style:normal;font-variant:normal;font-weight:normal;font-stretch:normal;font-size:10.58333302px;line-height:1.25;font-family:sans-serif;font-variant-ligatures:normal;font-variant-position:normal;font-variant-caps:normal;font-variant-numeric:normal;font-variant-alternates:normal;font-feature-settings:normal;text-indent:0;text-align:start;text-decoration:none;text-decoration-line:none;text-decoration-style:solid;text-decoration-color:#000000;letter-spacing:0px;word-spacing:0px;text-transform:none;writing-mode:lr-tb;direction:ltr;text-orientation:mixed;dominant-baseline:auto;baseline-shift:baseline;text-anchor:start;white-space:normal;shape-padding:0;clip-rule:nonzero;display:inline;overflow:visible;visibility:visible;opacity:1;isolation:auto;mix-blend-mode:normal;color-interpolation:sRGB;color-interpolation-filters:linearRGB;solid-color:#000000;solid-opacity:1;vector-effect:none;fill:#ffffff;fill-opacity:0.9945504;fill-rule:nonzero;stroke:#ffffff;stroke-width:4.67134476;stroke-linecap:butt;stroke-linejoin:miter;stroke-miterlimit:4;stroke-dasharray:none;stroke-dashoffset:0;stroke-opacity:0.9945504;color-rendering:auto;image-rendering:auto;shape-rendering:auto;text-rendering:auto;enable-background:accumulate" />
      <rect
         ry="2.1381562"
         y="138.17508"
         x="8.0180855"
         height="5.6126599"
         width="4.2763124"
         id="rect847"
         style="opacity:1;fill:#ffffff;fill-opacity:1;stroke:#ffffff;stroke-width:3.79999995;stroke-linecap:round;stroke-linejoin:miter;stroke-miterlimit:4;stroke-dasharray:none;stroke-dashoffset:0;stroke-opacity:0.9945504;paint-order:normal" />
      <rect
         ry="1.93532"
         y="138.79201"
         x="102.858"
         height="6.7115598"
         width="3.87064"
         id="rect849"
         style="opacity:1;fill:#ffffff;fill-opacity:1;stroke:#ffffff;stroke-width:3.79999995;stroke-linecap:round;stroke-linejoin:miter;stroke-miterlimit:4;stroke-dasharray:none;stroke-dashoffset:0;stroke-opacity:0.9945504;paint-order:normal" />
      <rect
         ry="1.9353212"
         y="138.09714"
         x="49.970058"
         height="5.255538"
         width="8.2382746"
         id="rect851"
         style="opacity:1;fill:#ffffff;fill-opacity:1;stroke:#ffffff;stroke-width:3.79999995;stroke-linecap:round;stroke-linejoin:miter;stroke-miterlimit:4;stroke-dasharray:none;stroke-dashoffset:0;stroke-opacity:0.9945504;paint-order:normal" />
    </g>
    <rect
       style="opacity:1;fill:#ffffff;fill-opacity:1;stroke:none;stroke-width:17.19999886;stroke-linecap:round;stroke-linejoin:miter;stroke-miterlimit:4;stroke-dasharray:none;stroke-dashoffset:0;stroke-opacity:0.9945504;paint-order:normal"
       id="rect829"
       width="38.175598"
       height="36.285713"
       x="52.7061"
       y="90.835899"
       ry="1.9261904"
       inkscape:export-filename="/home/falk/Schreibtisch/auskleber.png"
       inkscape:export-xdpi="150"
       inkscape:export-ydpi="150" />
    <g
       style="fill:#c30000;fill-opacity:1;stroke:none;stroke-width:0.52916664;stroke-miterlimit:4;stroke-dasharray:none;stroke-opacity:1"
       transform="matrix(1.4170756,0,0,1.3543202,-1.1611826,-39.50276)"
       id="layer1-4-8-0"
       inkscape:export-filename="/home/falk/Schreibtisch/auskleber.png"
       inkscape:export-xdpi="150"
       inkscape:export-ydpi="150">
      <path
         id="path896-1-9"
         d="m 73.830016,120.83559 c -0.91483,-0.84649 -6.29242,-5.79981 -11.95021,-11.00738 l -10.28688,-9.4683 -9.860702,9.84777 c -5.423385,5.41627 -9.98232,9.80404 -10.130969,9.7506 -0.40098,-0.14415 -9.837693,-8.79323 -9.837693,-9.01659 0,-0.10526 4.225889,-4.74942 9.390865,-10.32035 5.164975,-5.570925 9.391694,-10.195285 9.392708,-10.276345 0.001,-0.0811 -4.73089,-4.50513 -10.515344,-9.831254 C 16.615637,68.160605 17.794812,69.364404 17.794812,68.021217 c 0,-1.086767 0.16813,-1.292713 8.236388,-10.088917 4.530013,-4.938727 8.540991,-9.143863 8.913283,-9.344745 1.397689,-0.75417 1.892776,-0.37477 13.729155,10.521048 l 11.319908,10.420389 1.93945,-2.086014 c 1.06669,-1.147309 2.71885,-2.949144 3.67145,-4.004079 l 1.73201,-1.918063 -1.18764,-1.389229 c -0.65321,-0.764075 -2.45367,-2.725418 -4.00103,-4.358541 -1.54737,-1.633121 -2.81339,-3.075714 -2.81339,-3.20576 0,-0.276466 9.80647,-9.567635 10.09827,-9.567635 0.10836,0 4.81597,4.770231 10.46136,10.600512 l 10.26433,10.600512 v 3.396995 3.396996 l 1.5875,3.120543 c 0.87312,1.716297 1.62456,3.208131 1.66986,3.315187 0.1139,0.269211 -4.42092,5.256759 -4.7796,5.256759 -0.1595,0 -2.64894,-2.41102 -5.53208,-5.357816 l -5.24207,-5.357813 -0.99556,1.084546 c -0.54755,0.5965 -2.08795,2.332564 -3.42312,3.857918 l -2.42756,2.773373 10.23277,9.413802 c 15.03873,13.835115 13.54007,12.324805 13.54007,13.645325 0,0.96301 -0.16859,1.31403 -1.14089,2.37543 -12.13448,13.24647 -15.59738,16.95821 -15.94623,17.09207 -0.23026,0.0884 -0.82129,0.16066 -1.31338,0.16066 -0.72341,0 -1.21321,-0.2947 -2.55805,-1.53908 z m 3.3908,0.27825 c 0.1604,-0.10691 3.9455,-4.17926 8.41134,-9.04966 5.8392,-6.36818 8.09809,-9.00486 8.04274,-9.38786 -0.11656,-0.8066 -56.975435,-53.062066 -57.736533,-53.062066 -0.44973,0 -2.65984,2.248961 -8.842407,8.997844 -4.533546,4.948815 -8.242811,9.180144 -8.242811,9.402954 0,0.22281 0.446485,0.86398 0.992188,1.42482 0.864401,0.888381 52.344203,48.251198 55.307353,50.884278 1.12047,0.99565 1.52653,1.1507 2.06813,0.78969 z m -7.65891,-7.04959 c -2.34048,-2.1981 -2.33617,-2.16107 -0.46283,-3.9764 l 1.07533,-1.04202 0.73156,0.63819 c 1.76431,1.53913 3.77426,3.56748 3.77426,3.80881 0,0.42996 -2.1926,2.5323 -2.63477,2.5263 -0.22436,-0.003 -1.34196,-0.88274 -2.48355,-1.95488 z m 5.20558,-1.94429 c -2.35311,-2.14528 -4.35551,-4.1091 -4.44977,-4.36405 -0.21523,-0.58209 1.63001,-2.82248 2.33503,-2.83507 0.59583,-0.0106 9.17123,7.84526 9.17123,8.40174 0,0.59563 -1.82027,2.7024 -2.33281,2.69998 -0.24492,-0.001 -2.37058,-1.75733 -4.72368,-3.9026 z m 4.2743,-2.87201 c -1.81677,-1.6899 -3.30322,-3.24744 -3.30322,-3.4612 0,-0.58347 1.85223,-2.72804 2.34697,-2.71739 0.50619,0.0109 7.00456,5.93867 7.13365,6.50728 0.12761,0.56206 -1.74789,2.74386 -2.35865,2.74386 -0.29175,0 -1.94938,-1.33372 -3.81875,-3.07255 z m -14.55649,0.13404 c -0.94123,-0.90381 -1.71132,-1.74613 -1.71132,-1.87184 0,-0.40276 2.16981,-2.59798 2.5679,-2.59798 0.53528,0 3.50385,2.68916 3.51137,3.18086 0.008,0.49224 -1.42919,2.27533 -2.13973,2.65561 -0.44144,0.23625 -0.76677,0.0367 -2.22822,-1.36665 z m 19.73495,-2.15242 c -1.17032,-1.05629 -2.12872,-2.09462 -2.12977,-2.30739 -0.002,-0.49647 2.10738,-2.65585 2.59492,-2.65585 0.44076,0 4.28233,3.66498 4.28233,4.08548 0,0.4001 -1.51559,2.20742 -2.1243,2.53319 -0.41375,0.22144 -0.84578,-0.0512 -2.62318,-1.65543 z m -24.71,-2.45387 c -0.84917,-0.79629 -1.50401,-1.55845 -1.45521,-1.69369 0.15923,-0.44126 2.35964,-2.66776 2.63649,-2.66776 0.33452,0 3.40537,2.90475 3.40537,3.22119 0,0.4328 -2.18317,2.59966 -2.61338,2.59385 -0.23613,-0.003 -1.1241,-0.6573 -1.97327,-1.45359 z m 7.56321,0.23848 c -0.76398,-0.66439 -1.38829,-1.3461 -1.38735,-1.5149 0.002,-0.43517 2.09201,-2.82045 2.47082,-2.82045 0.4339,0 3.08412,2.34967 3.08201,2.7325 -0.002,0.43832 -2.0918,2.82509 -2.46627,2.8173 -0.17058,-0.004 -0.93522,-0.55005 -1.69921,-1.21445 z m 19.38073,-2.52099 c -1.60073,-1.47242 -2.94373,-2.869945 -2.98444,-3.105625 -0.0829,-0.47987 1.29976,-2.27147 2.07195,-2.68473 0.42656,-0.22829 0.95561,0.15217 3.55113,2.55376 1.67745,1.552105 3.0499,2.993035 3.0499,3.202075 0,0.5737 -1.85419,2.71854 -2.34697,2.71486 -0.23713,-0.002 -1.74084,-1.20793 -3.34157,-2.68034 z m -13.64037,0.92476 c -0.71972,-0.67322 -1.30859,-1.32946 -1.30859,-1.45832 0,-0.427 2.17643,-2.603705 2.60337,-2.603705 0.43496,0 2.6883,2.055345 2.6883,2.452085 0,0.33162 -1.88699,2.53177 -2.31094,2.69445 -0.20306,0.0779 -0.94127,-0.40087 -1.67214,-1.08451 z m 6.56277,-0.64474 c -0.69123,-0.59247 -1.25677,-1.24921 -1.25677,-1.45942 0,-0.46405 2.06457,-2.752305 2.48109,-2.749905 0.42767,0.002 2.81142,2.097525 2.80609,2.466265 -0.005,0.35307 -2.25417,2.82458 -2.56798,2.82197 -0.11311,-0.001 -0.77121,-0.48645 -1.46243,-1.07891 z m -16.16848,-1.32311 c -0.67533,-0.59445 -1.22788,-1.28404 -1.22788,-1.532415 0,-0.44389 2.06818,-2.67843 2.47903,-2.67843 0.34001,0 2.48734,1.84138 2.65409,2.27595 0.14401,0.37527 -2.03285,3.015715 -2.48624,3.015715 -0.10512,0 -0.74367,-0.48637 -1.419,-1.08082 z M 45.646561,92.009495 c -5.78376,-5.35023 -10.55389,-9.92481 -10.600288,-10.16574 -0.12456,-0.646783 2.183054,-2.970293 2.669013,-2.687393 1.080819,0.629198 20.97033,19.278383 21.04652,19.734053 0.0578,0.34563 -0.30839,0.93624 -1.04727,1.689105 -0.62488,0.63671 -1.22973,1.15765 -1.3441,1.15765 -0.11437,0 -4.94011,-4.377455 -10.723875,-9.727675 z m 23.259025,7.8374 c -0.75301,-0.61254 -1.36911,-1.30599 -1.36911,-1.541 0,-0.53505 2.12929,-2.65414 2.66691,-2.65414 0.21885,0 0.91042,0.5222 1.5368,1.16044 1.30145,1.32607 1.27895,1.48979 -0.43241,3.14763 l -1.03309,1.000785 z m 6.43019,-0.78925 c -0.65159,-0.60062 -1.18471,-1.29021 -1.18471,-1.53242 0,-0.43218 2.07242,-2.66722 2.47316,-2.66722 0.31602,0 2.51653,1.90218 2.67339,2.31094 0.13917,0.36269 -2.09425,2.980725 -2.54284,2.980725 -0.12886,0 -0.76741,-0.491415 -1.419,-1.092025 z m -15.875,-1.05834 c -0.65159,-0.60062 -1.18471,-1.26255 -1.18471,-1.47096 0,-0.51897 1.87935,-2.72867 2.32074,-2.72867 0.61122,0 2.70634,1.93028 2.70634,2.49341 0,0.50838 -1.99854,2.79825 -2.44225,2.79825 -0.11847,0 -0.74853,-0.49141 -1.40012,-1.09203 z m 21.23873,-0.79682 c -0.69123,-0.59215 -1.25678,-1.27758 -1.25678,-1.52318 0,-0.48453 2.08984,-2.67338 2.55246,-2.67338 0.4135,0 2.73921,2.10547 2.73921,2.47982 0,0.2996 -2.38993,2.82247 -2.65492,2.8026 -0.0678,-0.005 -0.68875,-0.49372 -1.37997,-1.08586 z m -15.74681,-0.96331 c -0.62072,-0.54136 -1.12673,-1.14285 -1.12448,-1.33664 0.007,-0.59465 1.88926,-2.69036 2.41646,-2.69036 0.67205,0 2.61472,1.79151 2.61472,2.41127 0,0.63983 -1.77965,2.61826 -2.34589,2.60791 -0.23773,-0.004 -0.94009,-0.45082 -1.56081,-0.99218 z m 6.68747,-0.61323 c -0.65629,-0.60495 -1.19327,-1.28085 -1.19327,-1.50199 0,-0.60295 1.82163,-2.70714 2.33282,-2.69468 0.56291,0.0137 2.69426,1.92194 2.69426,2.41221 0,0.46293 -1.46303,2.25421 -2.13475,2.6137 -0.41786,0.22363 -0.71321,0.0795 -1.69906,-0.82924 z m -16.14814,-1.3308 c -0.65159,-0.60062 -1.18471,-1.25812 -1.18471,-1.46112 0,-0.45531 2.07203,-2.7397 2.48109,-2.73539 0.28772,0.003 2.81057,2.29378 2.81057,2.552 0,0.33809 -2.24448,2.73654 -2.56087,2.73654 -0.19875,0 -0.89449,-0.49142 -1.54608,-1.09203 z m 21.20983,-0.78254 c -0.67533,-0.59445 -1.22299,-1.27906 -1.21703,-1.52136 0.013,-0.52748 1.9116,-2.68949 2.36182,-2.68949 0.60671,0 2.65442,1.90487 2.65442,2.46925 0,0.49742 -1.97627,2.82242 -2.39909,2.82242 -0.0947,0 -0.72479,-0.48637 -1.40012,-1.08082 z m -15.63417,-0.87754 c -1.43069,-1.33232 -1.41577,-1.46542 0.35673,-3.18301 l 1.07358,-1.04032 1.26247,1.06942 c 0.69436,0.58817 1.30089,1.26428 1.34785,1.50246 0.10715,0.54351 -1.78912,2.79568 -2.36375,2.80738 -0.23446,0.005 -0.98905,-0.5154 -1.67688,-1.15593 z m 6.4705,-0.84378 c -0.72855,-0.68146 -1.32462,-1.34446 -1.32462,-1.47331 0,-0.427 2.17643,-2.60372 2.60337,-2.60372 0.44639,0 2.68829,2.0602 2.68829,2.47042 0,0.28142 -1.77663,2.32201 -2.29415,2.635 -0.23082,0.1396 -0.79502,-0.20724 -1.67289,-1.02839 z m -16.0862,-1.24277 c -0.61238,-0.62398 -1.113423,-1.24455 -1.113423,-1.37905 0,-0.40803 2.198673,-2.51354 2.624763,-2.51354 0.44441,0 2.6669,2.07712 2.6669,2.49247 0,0.43481 -2.19193,2.53461 -2.64583,2.53461 -0.23044,0 -0.92003,-0.51052 -1.53241,-1.13449 z m 21.12565,-0.86527 c -1.22498,-1.32894 -1.23601,-1.23689 0.35476,-2.96118 0.43632,-0.47294 0.97831,-0.85501 1.20442,-0.84904 0.5061,0.0134 2.66008,1.92582 2.66008,2.36182 0,0.17401 -0.43106,0.84245 -0.95791,1.4854 -1.24528,1.5197 -1.83258,1.51304 -3.26135,-0.037 z m -15.19036,-0.40398 c -0.67533,-0.59445 -1.22788,-1.28403 -1.22788,-1.53241 0,-0.4439 2.06818,-2.67843 2.47903,-2.67843 0.52529,0 2.54805,1.96021 2.54805,2.46925 0,0.49742 -1.97627,2.82241 -2.39908,2.82241 -0.0947,0 -0.72479,-0.48636 -1.40012,-1.08082 z m 6.23554,-1.112 c -0.61238,-0.62398 -1.11342,-1.24455 -1.11342,-1.37905 0,-0.40803 2.19868,-2.51354 2.62476,-2.51354 0.41335,0 2.66691,2.06372 2.66691,2.44225 0,0.42474 -2.19319,2.58483 -2.62444,2.58483 -0.24221,0 -0.94143,-0.51052 -1.55381,-1.13449 z m -16.040584,-1.22463 -1.281232,-1.3008 1.134158,-1.34504 c 0.623784,-0.73977 1.319371,-1.34504 1.545746,-1.34504 0.503057,0 2.680572,2.09138 2.680572,2.57454 0,0.4441 -2.083889,2.71713 -2.491035,2.71713 -0.168839,0 -0.883534,-0.58536 -1.588209,-1.30079 z m 21.067674,-0.89204 c -0.61239,-0.62397 -1.11343,-1.22194 -1.11343,-1.32883 0,-0.39763 2.1996,-2.56376 2.60337,-2.56376 0.45997,0 2.6883,2.066 2.6883,2.49247 0,0.43482 -2.19193,2.53461 -2.64583,2.53461 -0.23045,0 -0.92003,-0.51052 -1.53241,-1.13449 z m -15.27455,-0.4867 c -0.65159,-0.60062 -1.18394,-1.2257 -1.183,-1.38907 0.002,-0.42767 2.09754,-2.811417 2.46627,-2.806089 0.35307,0.0051 2.82459,2.254169 2.82198,2.567979 -0.003,0.40483 -2.16379,2.71921 -2.53833,2.71921 -0.21021,0 -0.91532,-0.49142 -1.56692,-1.09203 z m 6.28977,-1.00529 c -0.61846,-0.55951 -1.12448,-1.16257 -1.12448,-1.34014 0,-0.43886 1.52002,-2.328643 2.13981,-2.660346 0.41136,-0.220152 0.7137,-0.07167 1.694,0.831943 0.6563,0.604953 1.19327,1.301453 1.19327,1.547763 0,0.62367 -1.79743,2.66211 -2.33572,2.64891 -0.24332,-0.006 -0.94842,-0.46863 -1.56688,-1.02813 z m -15.742709,-0.97144 c -0.691224,-0.66572 -1.256771,-1.32181 -1.256771,-1.45798 0,-0.4368 2.16885,-2.617014 2.60337,-2.617014 0.468628,0 2.690816,2.072044 2.683815,2.502484 -0.0054,0.32979 -2.273504,2.79054 -2.567983,2.78605 -0.113112,-0.002 -0.771207,-0.54782 -1.462431,-1.21354 z m 21.023319,-0.97615 c -0.61238,-0.62398 -1.11342,-1.226377 -1.11342,-1.338674 0,-0.316016 1.90218,-2.516529 2.31094,-2.673385 0.36269,-0.139178 2.98072,2.094246 2.98072,2.542831 0,0.438688 -2.18226,2.603718 -2.62444,2.603718 -0.24221,0 -0.94142,-0.51052 -1.5538,-1.13449 z m -15.610418,-0.79375 c -0.612383,-0.623976 -1.113422,-1.221948 -1.113422,-1.328832 0,-0.409215 2.205543,-2.563762 2.62444,-2.563762 0.52038,0 2.77167,2.214666 2.63151,2.588689 -0.23833,0.635984 -2.12644,2.438395 -2.55434,2.438395 -0.26112,0 -0.975807,-0.51052 -1.588188,-1.13449 z m 6.625638,-0.669945 c -0.62379,-0.548148 -1.12448,-1.225447 -1.12448,-1.521129 0,-0.293156 0.53015,-1.053307 1.1781,-1.689225 1.04786,-1.028393 1.23067,-1.116446 1.65365,-0.796494 1.17462,0.888524 2.19534,1.979962 2.19534,2.347442 0,0.459264 -2.08626,2.675841 -2.50249,2.658811 -0.1516,-0.006 -0.78165,-0.45594 -1.40012,-0.999405 z M 40.21825,80.17637 c -0.691224,-0.648406 -1.256771,-1.28447 -1.256771,-1.413475 0,-0.415973 2.148907,-2.690307 2.54194,-2.690307 0.465292,0 2.749727,2.066049 2.749727,2.486861 0,0.373065 -2.205158,2.80652 -2.537609,2.800323 -0.132284,-0.0024 -0.806063,-0.534998 -1.497287,-1.183402 z m -8.598958,-1.093515 c -0.909506,-0.810204 -1.652236,-1.610603 -1.650512,-1.778664 0.0033,-0.325855 2.304058,-2.819916 2.599465,-2.817915 0.33354,0.0024 3.482812,2.952488 3.481109,3.261092 -0.0024,0.438346 -2.092445,2.824631 -2.466274,2.815863 -0.170578,-0.004 -1.054283,-0.670171 -1.963788,-1.480376 z m 29.368754,-0.0805 c -0.61847,-0.559507 -1.12448,-1.212128 -1.12448,-1.450269 0,-0.461229 2.02242,-2.802411 2.42086,-2.802411 0.40933,0 2.60622,2.165387 2.60622,2.568855 0,0.581409 -1.85454,2.724354 -2.34698,2.711961 -0.23713,-0.006 -0.93716,-0.46863 -1.55562,-1.028136 z M 45.631152,78.377677 c -0.612384,-0.623972 -1.113423,-1.23462 -1.113423,-1.356995 0,-0.265578 1.797378,-2.313493 2.294155,-2.613935 0.230814,-0.139594 0.795017,0.207243 1.672894,1.028393 0.728541,0.681464 1.324618,1.344457 1.324618,1.473314 0,0.438692 -2.182259,2.603717 -2.624442,2.603717 -0.24221,0 -0.941422,-0.510521 -1.553802,-1.134494 z m 6.199874,-1.00466 c -0.67533,-0.59445 -1.22647,-1.219528 -1.22474,-1.389062 0.003,-0.30272 2.29089,-2.821784 2.56274,-2.821784 0.38798,0 2.72579,2.225045 2.72579,2.594311 0,0.490082 -2.07146,2.697356 -2.53138,2.697356 -0.1675,0 -0.85708,-0.486368 -1.53241,-1.080821 z M 36.514083,76.759912 c -0.691224,-0.637514 -1.256002,-1.261322 -1.255062,-1.38624 0.0032,-0.420298 2.152224,-2.740668 2.538331,-2.740668 0.464049,0 2.752314,2.064571 2.749919,2.481094 -0.0025,0.426706 -2.096868,2.811113 -2.466274,2.80775 -0.170579,-0.0016 -0.87569,-0.524423 -1.566914,-1.161936 z m 20.637503,-1.322917 c -0.69123,-0.637514 -1.25677,-1.236657 -1.25677,-1.331428 0,-0.271455 2.42694,-2.795479 2.68795,-2.795479 0.427,0 2.60371,2.176428 2.60371,2.60337 0,0.46768 -2.07079,2.689894 -2.50248,2.685473 -0.1516,-0.0016 -0.84119,-0.524422 -1.53241,-1.161936 z M 26.968462,74.769872 25.346878,73.20257 26.428585,71.925601 c 0.594939,-0.702334 1.27538,-1.315162 1.512091,-1.361837 0.522823,-0.103089 3.61247,2.557039 3.61247,3.110273 0,0.501856 -2.105959,2.663134 -2.594972,2.663134 -0.20247,0 -1.09784,-0.705284 -1.989712,-1.567299 z m 14.958522,0.168222 c -0.612382,-0.623972 -1.113421,-1.244544 -1.113421,-1.379048 0,-0.40803 2.198677,-2.513542 2.624761,-2.513542 0.413348,0 2.666905,2.063721 2.666905,2.44225 0,0.424746 -2.193187,2.584834 -2.624442,2.584834 -0.24221,0 -0.941421,-0.510522 -1.553803,-1.134494 z m 6.464454,-0.740077 c -0.67533,-0.59445 -1.227875,-1.232529 -1.227875,-1.417957 0,-0.422344 2.065218,-2.792889 2.433164,-2.792889 0.375496,0 2.858499,2.106073 2.858499,2.424565 0,0.40482 -2.162216,2.867102 -2.517705,2.867102 -0.175014,0 -0.870752,-0.486368 -1.546083,-1.080821 z M 32.809917,73.389983 c -0.691224,-0.592146 -1.256771,-1.277575 -1.256771,-1.523175 0,-0.484529 2.08984,-2.673387 2.552452,-2.673387 0.413506,0 2.739214,2.105477 2.739214,2.479828 0,0.299599 -2.389932,2.82247 -2.654921,2.802599 -0.06776,-0.0051 -0.68875,-0.49372 -1.379974,-1.085865 z m 20.372919,-1.573022 c -0.69123,-0.592466 -1.25677,-1.195417 -1.25677,-1.339888 0,-0.389641 2.15258,-2.871429 2.48881,-2.869444 0.46545,0.0027 2.80285,2.11956 2.80285,2.538332 0,0.46405 -2.06457,2.752315 -2.48109,2.749917 -0.16337,-0.0011 -0.86258,-0.486452 -1.5538,-1.078917 z M 38.233875,71.551925 c -0.618464,-0.591458 -1.124479,-1.210744 -1.124479,-1.376196 0,-0.449442 2.165707,-2.569808 2.624761,-2.569808 0.444413,0 2.666906,2.077125 2.666906,2.49247 0,0.430504 -2.189991,2.53487 -2.634776,2.531761 -0.224363,-0.0016 -0.913948,-0.48677 -1.532412,-1.078227 z M 22.226583,70.427872 c -1.127787,-1.053129 -2.050521,-2.062023 -2.050521,-2.241986 0,-0.464803 2.110586,-2.696632 2.550139,-2.696632 0.436632,0 4.593611,3.913511 4.593611,4.32457 0,0.450863 -2.182223,2.556007 -2.634776,2.541712 -0.224363,-0.0071 -1.330667,-0.874535 -2.458453,-1.927664 z m 22.152944,0.05477 c -0.651593,-0.600617 -1.184714,-1.204781 -1.184714,-1.342587 0,-0.137806 0.568112,-0.846105 1.262472,-1.573997 l 1.262473,-1.32344 1.383361,1.125313 c 0.760849,0.618922 1.38336,1.308112 1.38336,1.531533 0,0.499096 -2.094227,2.675209 -2.574541,2.675209 -0.191236,0 -0.880819,-0.491413 -1.532411,-1.092031 z M 26.961732,67.971095 c -1.840347,-1.690925 -3.346087,-3.273479 -3.346087,-3.516786 0,-0.532018 2.215414,-2.770626 2.606215,-2.633501 0.501358,0.175917 6.918873,6.144364 6.914303,6.430472 -0.0056,0.349172 -2.276591,2.794224 -2.595332,2.794224 -0.128156,0 -1.738751,-1.383485 -3.579099,-3.074409 z M 49.74325,68.64196 c -0.691224,-0.592466 -1.256771,-1.249201 -1.256771,-1.459412 0,-0.464049 2.064567,-2.752314 2.481097,-2.749919 0.42767,0.0025 2.81142,2.097539 2.80609,2.466274 -0.005,0.353069 -2.25417,2.824584 -2.56798,2.821975 -0.11312,-0.0011 -0.771212,-0.486452 -1.462436,-1.078918 z M 34.529708,68.182738 c -0.618463,-0.543467 -1.124479,-1.143431 -1.124479,-1.333253 0,-0.189823 0.431061,-0.871185 0.957914,-1.51414 1.245281,-1.519701 1.832575,-1.513038 3.261352,0.037 1.224974,1.328941 1.236002,1.236891 -0.354763,2.961179 -0.436319,0.472943 -0.978311,0.854819 -1.204426,0.848615 -0.226115,-0.0062 -0.917134,-0.455936 -1.535598,-0.999401 z m 6.418796,-0.867206 c -0.656301,-0.604958 -1.193275,-1.27308 -1.193275,-1.484717 0,-0.581408 1.854542,-2.724353 2.346977,-2.711959 0.583654,0.01469 2.680107,1.941539 2.680107,2.463286 0,0.480346 -1.422989,2.181701 -2.150304,2.570947 -0.39786,0.212929 -0.715073,0.05511 -1.683505,-0.837557 z m 4.75394,-2.389142 c -0.651592,-0.600617 -1.183304,-1.225695 -1.181579,-1.389062 0.003,-0.287725 2.293778,-2.810574 2.551996,-2.810574 0.368617,0 2.736535,2.25937 2.736535,2.61109 0,0.50306 -2.09138,2.680577 -2.574541,2.680577 -0.191236,0 -0.880819,-0.491414 -1.532411,-1.092031 z M 29.470696,63.480018 c -1.328507,-1.250601 -2.415467,-2.475967 -2.415467,-2.723037 0,-0.671411 2.251181,-2.786228 2.6873,-2.524519 0.981869,0.589208 4.984186,4.497118 4.974765,4.857419 -0.01456,0.556676 -1.943314,2.663957 -2.438275,2.663957 -0.21607,0 -1.479815,-1.023219 -2.808323,-2.27382 z m 7.429205,0.08099 c -0.612382,-0.623971 -1.113422,-1.221944 -1.113422,-1.328828 0,-0.397632 2.199595,-2.563761 2.60337,-2.563761 0.472269,0 2.694206,2.076742 2.677446,2.502484 -0.02046,0.519794 -2.045199,2.524599 -2.549697,2.524599 -0.277352,0 -1.005315,-0.510522 -1.617697,-1.134494 z m 5.157983,-1.985515 c -0.538856,-0.551839 -0.979738,-1.185252 -0.979738,-1.407584 0,-0.554194 1.801217,-2.616157 2.28533,-2.616157 0.543576,0 2.741753,1.879188 2.741753,2.343883 0,0.683383 -1.846551,2.683201 -2.477559,2.683201 -0.334371,0 -1.014582,-0.434764 -1.569786,-1.003343 z m -9.678655,-2.149092 c -1.219143,-1.137757 -2.171643,-2.194454 -2.116666,-2.348216 0.15597,-0.436227 2.349771,-2.701431 2.616277,-2.701431 0.131025,0 1.2811,0.994773 2.555723,2.210606 l 2.317495,2.210606 -1.139718,1.361269 c -0.626846,0.748698 -1.336992,1.355542 -1.578103,1.348542 -0.24111,-0.007 -1.435864,-0.943619 -2.655008,-2.081376 z m 5.843589,-1.421641 c -0.612382,-0.623971 -1.113422,-1.221944 -1.113422,-1.328828 0,-0.40475 2.203122,-2.563634 2.613385,-2.560909 0.494606,0.0033 2.678282,2.004443 2.678282,2.454423 0,0.460842 -2.171359,2.569808 -2.645834,2.569808 -0.230444,0 -0.92003,-0.510522 -1.532411,-1.134494 z m -3.439584,-3.175 c -0.612382,-0.623971 -1.112152,-1.24905 -1.1106,-1.389062 0.0044,-0.398139 2.33561,-2.827287 2.61624,-2.726168 0.432305,0.155772 2.672605,2.355639 2.672605,2.62437 0,0.4547 -2.169899,2.625354 -2.624442,2.625354 -0.24221,0 -0.941421,-0.510522 -1.553803,-1.134494 z"
         style="fill:#c30000;fill-opacity:1;stroke:none;stroke-width:0.52916664;stroke-miterlimit:4;stroke-dasharray:none;stroke-opacity:1"
         inkscape:connector-curvature="0" />
    </g>
    <g
       aria-label="CHAOSZONE.CZ"
       style="font-style:normal;font-weight:normal;font-size:10.58333302px;line-height:1.25;font-family:sans-serif;letter-spacing:0px;word-spacing:0px;fill:#c30000;fill-opacity:1;stroke:none;stroke-width:0.26458332"
       id="text1881">
      <path
         d="m 27.645909,142.4852 q -1.212674,0 -2.07257,-0.47404 -0.859896,-0.48507 -1.322917,-1.40009 -0.451996,-0.91502 -0.451996,-2.20486 v -8.20208 q 0,-1.28985 0.451996,-2.20486 0.463021,-0.91502 1.322917,-1.38907 0.859896,-0.48507 2.07257,-0.48507 1.212673,0 2.072569,0.48507 0.87092,0.47405 1.322917,1.40009 0.451996,0.91502 0.451996,2.20486 V 131.505 H 28.72629 v -1.28985 q 0,-0.4079 -0.121267,-0.70555 -0.121267,-0.29766 -0.374826,-0.452 -0.242535,-0.16536 -0.584288,-0.16536 -0.33073,0 -0.573264,0.15434 -0.242535,0.15434 -0.374827,0.45199 -0.121267,0.29766 -0.121267,0.70556 v 8.20208 q 0,0.4079 0.121267,0.70556 0.132292,0.28663 0.374827,0.44097 0.242534,0.15434 0.573264,0.15434 0.352777,0 0.595312,-0.15434 0.242535,-0.15434 0.363802,-0.44097 0.121267,-0.29766 0.121267,-0.71658 v -1.28985 h 2.767101 v 1.28985 q 0,1.28984 -0.451996,2.21588 -0.451997,0.91502 -1.322917,1.40009 -0.859896,0.47404 -2.072569,0.47404 z"
         style="font-style:normal;font-variant:normal;font-weight:bold;font-stretch:condensed;font-size:22.57777786px;font-family:Bahnschrift;-inkscape-font-specification:'Bahnschrift, Bold Condensed';font-variant-ligatures:normal;font-variant-caps:normal;font-variant-numeric:normal;font-feature-settings:normal;text-align:start;writing-mode:lr-tb;text-anchor:start;fill:#c30000;fill-opacity:1;stroke-width:0.26458332"
         id="path830" />
      <path
         d="m 38.130023,126.2905 h 2.734028 v 16.02934 h -2.734028 z m -4.894791,0 h 2.734027 v 16.02934 h -2.734027 z m 1.300868,6.84609 h 5.368836 v 2.56867 H 34.5361 Z"
         style="font-style:normal;font-variant:normal;font-weight:bold;font-stretch:condensed;font-size:22.57777786px;font-family:Bahnschrift;-inkscape-font-specification:'Bahnschrift, Bold Condensed';font-variant-ligatures:normal;font-variant-caps:normal;font-variant-numeric:normal;font-feature-settings:normal;text-align:start;writing-mode:lr-tb;text-anchor:start;fill:#c30000;fill-opacity:1;stroke-width:0.26458332"
         id="path832" />
      <path
         d="m 45.880109,126.2905 h 1.918229 l 3.825434,16.02934 h -2.711979 l -2.07257,-10.50616 -2.072569,10.50616 h -2.711979 z m -1.223698,10.98021 h 4.365625 v 2.55764 h -4.365625 z"
         style="font-style:normal;font-variant:normal;font-weight:bold;font-stretch:condensed;font-size:22.57777786px;font-family:Bahnschrift;-inkscape-font-specification:'Bahnschrift, Bold Condensed';font-variant-ligatures:normal;font-variant-caps:normal;font-variant-numeric:normal;font-feature-settings:normal;text-align:start;writing-mode:lr-tb;text-anchor:start;fill:#c30000;fill-opacity:1;stroke-width:0.26458332"
         id="path834" />
      <path
         d="m 56.584709,142.4852 q -1.289844,0 -2.215885,-0.44097 -0.915018,-0.45199 -1.400087,-1.28984 -0.485069,-0.84887 -0.485069,-2.0395 v -8.81944 q 0,-1.19063 0.485069,-2.0395 0.485069,-0.84887 1.400087,-1.28984 0.926041,-0.44098 2.215885,-0.44098 1.289844,0 2.204861,0.44098 0.926042,0.44097 1.411111,1.28984 0.48507,0.84887 0.48507,2.0395 v 8.81944 q 0,1.19063 -0.48507,2.0395 -0.485069,0.83785 -1.411111,1.28984 -0.915017,0.44097 -2.204861,0.44097 z m 0,-2.73402 q 0.418924,0 0.71658,-0.16537 0.308681,-0.16536 0.463021,-0.47404 0.15434,-0.30868 0.15434,-0.74966 v -8.13593 q 0,-0.42995 -0.15434,-0.73863 -0.15434,-0.30868 -0.463021,-0.47405 -0.297656,-0.16536 -0.71658,-0.16536 -0.418923,0 -0.71658,0.16536 -0.297656,0.16537 -0.451996,0.47405 -0.15434,0.30868 -0.15434,0.73863 v 8.13593 q 0,0.44098 0.15434,0.74966 0.15434,0.30868 0.451996,0.47404 0.297657,0.16537 0.71658,0.16537 z"
         style="font-style:normal;font-variant:normal;font-weight:bold;font-stretch:condensed;font-size:22.57777786px;font-family:Bahnschrift;-inkscape-font-specification:'Bahnschrift, Bold Condensed';font-variant-ligatures:normal;font-variant-caps:normal;font-variant-numeric:normal;font-feature-settings:normal;text-align:start;writing-mode:lr-tb;text-anchor:start;fill:#c30000;fill-opacity:1;stroke-width:0.26458332"
         id="path836" />
      <path
         d="m 66.451463,142.4852 q -1.256771,0 -2.160764,-0.46302 -0.903993,-0.47404 -1.389063,-1.35599 -0.474045,-0.89297 -0.474045,-2.13871 v -0.8599 l 2.723004,-0.022 v 0.8599 q 0,0.60634 0.341753,0.95911 0.341754,0.34176 0.94809,0.34176 0.595313,0 0.915018,-0.34176 0.330729,-0.34175 0.330729,-0.93706 v -1.40009 q 0,-0.44097 -0.253559,-0.76068 -0.242535,-0.33072 -0.63941,-0.56224 -0.385851,-0.24253 -1.058333,-0.57326 -0.0441,-0.0221 -0.08819,-0.0441 -0.03307,-0.022 -0.07717,-0.0441 l -0.143316,-0.0661 q -0.892969,-0.452 -1.521354,-0.93707 -0.628385,-0.49609 -1.047309,-1.30086 -0.418924,-0.80478 -0.418924,-1.98438 v -0.82682 q 0,-1.2237 0.463021,-2.09462 0.474045,-0.88194 1.367014,-1.34496 0.892969,-0.46303 2.14974,-0.46303 1.223698,0 2.105642,0.46303 0.881945,0.46302 1.344965,1.35598 0.463021,0.88195 0.463021,2.1277 v 0.90399 l -2.723003,0.0331 v -0.91502 q 0,-0.61736 -0.319705,-0.95911 -0.308681,-0.35278 -0.87092,-0.35278 -0.595313,0 -0.926042,0.31971 -0.319705,0.30868 -0.319705,0.85989 v 1.06936 q 0,0.452 0.231511,0.78273 0.242534,0.33073 0.595312,0.56224 0.363802,0.22048 1.003212,0.54019 0.121267,0.0551 0.242535,0.12126 0.132291,0.0661 0.264583,0.1323 0.02205,0.011 0.03307,0.022 0.02205,0.011 0.0441,0.0221 0.915017,0.48507 1.477257,0.904 0.56224,0.4079 0.959115,1.15755 0.396875,0.74965 0.396875,1.91823 v 1.33394 q 0,1.24574 -0.474046,2.13871 -0.46302,0.88195 -1.355989,1.35599 -0.892969,0.46302 -2.138715,0.46302 z"
         style="font-style:normal;font-variant:normal;font-weight:bold;font-stretch:condensed;font-size:22.57777786px;font-family:Bahnschrift;-inkscape-font-specification:'Bahnschrift, Bold Condensed';font-variant-ligatures:normal;font-variant-caps:normal;font-variant-numeric:normal;font-feature-settings:normal;text-align:start;writing-mode:lr-tb;text-anchor:start;fill:#c30000;fill-opacity:1;stroke-width:0.26458332"
         id="path838" />
      <path
         d="m 79.008148,128.71585 -3.979775,10.9802 h 4.090018 v 2.62379 h -6.901216 v -2.42535 l 4.012848,-10.98021 h -3.81441 v -2.62378 h 6.592535 z"
         style="font-style:normal;font-variant:normal;font-weight:bold;font-stretch:condensed;font-size:22.57777786px;font-family:Bahnschrift;-inkscape-font-specification:'Bahnschrift, Bold Condensed';font-variant-ligatures:normal;font-variant-caps:normal;font-variant-numeric:normal;font-feature-settings:normal;text-align:start;writing-mode:lr-tb;text-anchor:start;fill:#c30000;fill-opacity:1;stroke-width:0.26458332"
         id="path840" />
      <path
         d="m 84.685665,142.4852 q -1.289844,0 -2.215885,-0.44097 -0.915018,-0.45199 -1.400087,-1.28984 -0.485069,-0.84887 -0.485069,-2.0395 v -8.81944 q 0,-1.19063 0.485069,-2.0395 0.485069,-0.84887 1.400087,-1.28984 0.926041,-0.44098 2.215885,-0.44098 1.289844,0 2.204861,0.44098 0.926042,0.44097 1.411111,1.28984 0.48507,0.84887 0.48507,2.0395 v 8.81944 q 0,1.19063 -0.48507,2.0395 -0.485069,0.83785 -1.411111,1.28984 -0.915017,0.44097 -2.204861,0.44097 z m 0,-2.73402 q 0.418924,0 0.71658,-0.16537 0.308681,-0.16536 0.463021,-0.47404 0.15434,-0.30868 0.15434,-0.74966 v -8.13593 q 0,-0.42995 -0.15434,-0.73863 -0.15434,-0.30868 -0.463021,-0.47405 -0.297656,-0.16536 -0.71658,-0.16536 -0.418923,0 -0.71658,0.16536 -0.297656,0.16537 -0.451996,0.47405 -0.15434,0.30868 -0.15434,0.73863 v 8.13593 q 0,0.44098 0.15434,0.74966 0.15434,0.30868 0.451996,0.47404 0.297657,0.16537 0.71658,0.16537 z"
         style="font-style:normal;font-variant:normal;font-weight:bold;font-stretch:condensed;font-size:22.57777786px;font-family:Bahnschrift;-inkscape-font-specification:'Bahnschrift, Bold Condensed';font-variant-ligatures:normal;font-variant-caps:normal;font-variant-numeric:normal;font-feature-settings:normal;text-align:start;writing-mode:lr-tb;text-anchor:start;fill:#c30000;fill-opacity:1;stroke-width:0.26458332"
         id="path842" />
      <path
         d="m 90.749033,126.2905 h 2.14974 l 3.770312,10.69358 -0.297656,0.42994 V 126.2905 h 2.491493 v 16.01832 h -2.171788 l -3.726215,-10.07622 0.286632,-0.44097 v 10.51719 h -2.502518 z"
         style="font-style:normal;font-variant:normal;font-weight:bold;font-stretch:condensed;font-size:22.57777786px;font-family:Bahnschrift;-inkscape-font-specification:'Bahnschrift, Bold Condensed';font-variant-ligatures:normal;font-variant-caps:normal;font-variant-numeric:normal;font-feature-settings:normal;text-align:start;writing-mode:lr-tb;text-anchor:start;fill:#c30000;fill-opacity:1;stroke-width:0.26458332"
         id="path844" />
      <path
         d="m 100.82525,126.2905 h 2.73403 v 16.02934 h -2.73403 z m 1.21267,13.36146 h 5.90903 v 2.66788 h -5.90903 z m 0,-6.62561 h 5.35782 v 2.65686 h -5.35782 z m 0,-6.73585 h 5.90903 v 2.66788 h -5.90903 z"
         style="font-style:normal;font-variant:normal;font-weight:bold;font-stretch:condensed;font-size:22.57777786px;font-family:Bahnschrift;-inkscape-font-specification:'Bahnschrift, Bold Condensed';font-variant-ligatures:normal;font-variant-caps:normal;font-variant-numeric:normal;font-feature-settings:normal;text-align:start;writing-mode:lr-tb;text-anchor:start;fill:#c30000;fill-opacity:1;stroke-width:0.26458332"
         id="path846" />
      <path
         d="m 108.80684,139.58581 h 2.73403 v 2.73403 h -2.73403 z"
         style="font-style:normal;font-variant:normal;font-weight:bold;font-stretch:condensed;font-size:22.57777786px;font-family:Bahnschrift;-inkscape-font-specification:'Bahnschrift, Bold Condensed';font-variant-ligatures:normal;font-variant-caps:normal;font-variant-numeric:normal;font-feature-settings:normal;text-align:start;writing-mode:lr-tb;text-anchor:start;fill:#c30000;fill-opacity:1;stroke-width:0.26458332"
         id="path848" />
      <path
         d="m 116.13801,142.4852 q -1.21267,0 -2.07257,-0.47404 -0.85989,-0.48507 -1.32291,-1.40009 -0.452,-0.91502 -0.452,-2.20486 v -8.20208 q 0,-1.28985 0.452,-2.20486 0.46302,-0.91502 1.32291,-1.38907 0.8599,-0.48507 2.07257,-0.48507 1.21268,0 2.07257,0.48507 0.87092,0.47405 1.32292,1.40009 0.45199,0.91502 0.45199,2.20486 v 1.28985 h -2.7671 v -1.28985 q 0,-0.4079 -0.12126,-0.70555 -0.12127,-0.29766 -0.37483,-0.452 -0.24253,-0.16536 -0.58429,-0.16536 -0.33073,0 -0.57326,0.15434 -0.24254,0.15434 -0.37483,0.45199 -0.12127,0.29766 -0.12127,0.70556 v 8.20208 q 0,0.4079 0.12127,0.70556 0.13229,0.28663 0.37483,0.44097 0.24253,0.15434 0.57326,0.15434 0.35278,0 0.59531,-0.15434 0.24254,-0.15434 0.36381,-0.44097 0.12126,-0.29766 0.12126,-0.71658 v -1.28985 h 2.7671 v 1.28985 q 0,1.28984 -0.45199,2.21588 -0.452,0.91502 -1.32292,1.40009 -0.85989,0.47404 -2.07257,0.47404 z"
         style="font-style:normal;font-variant:normal;font-weight:bold;font-stretch:condensed;font-size:22.57777786px;font-family:Bahnschrift;-inkscape-font-specification:'Bahnschrift, Bold Condensed';font-variant-ligatures:normal;font-variant-caps:normal;font-variant-numeric:normal;font-feature-settings:normal;text-align:start;writing-mode:lr-tb;text-anchor:start;fill:#c30000;fill-opacity:1;stroke-width:0.26458332"
         id="path850" />
      <path
         d="m 128.35294,128.71585 -3.97977,10.9802 h 4.09002 v 2.62379 h -6.90122 v -2.42535 l 4.01285,-10.98021 h -3.81441 v -2.62378 h 6.59253 z"
         style="font-style:normal;font-variant:normal;font-weight:bold;font-stretch:condensed;font-size:22.57777786px;font-family:Bahnschrift;-inkscape-font-specification:'Bahnschrift, Bold Condensed';font-variant-ligatures:normal;font-variant-caps:normal;font-variant-numeric:normal;font-feature-settings:normal;text-align:start;writing-mode:lr-tb;text-anchor:start;fill:#c30000;fill-opacity:1;stroke-width:0.26458332"
         id="path852" />
    </g>
  </g>
</svg>
