<?xml version="1.0" encoding="UTF-8" standalone="no"?>
<!-- Created with Inkscape (http://www.inkscape.org/) -->

<svg
   xmlns:dc="http://purl.org/dc/elements/1.1/"
   xmlns:cc="http://creativecommons.org/ns#"
   xmlns:rdf="http://www.w3.org/1999/02/22-rdf-syntax-ns#"
   xmlns:svg="http://www.w3.org/2000/svg"
   xmlns="http://www.w3.org/2000/svg"
   xmlns:sodipodi="http://sodipodi.sourceforge.net/DTD/sodipodi-0.dtd"
   xmlns:inkscape="http://www.inkscape.org/namespaces/inkscape"
   width="210mm"
   height="297mm"
   viewBox="0 0 210 297"
   version="1.1"
   id="svg8"
   inkscape:version="0.92.5 (2060ec1f9f, 2020-04-08)"
   sodipodi:docname="LOgo.svg">
  <defs
     id="defs2" />
  <sodipodi:namedview
     id="base"
     pagecolor="#ffffff"
     bordercolor="#666666"
     borderopacity="1.0"
     inkscape:pageopacity="0.0"
     inkscape:pageshadow="2"
     inkscape:zoom="0.7"
     inkscape:cx="153.79726"
     inkscape:cy="688.88796"
     inkscape:document-units="mm"
     inkscape:current-layer="layer1"
     showgrid="false"
     inkscape:window-width="1920"
     inkscape:window-height="1009"
     inkscape:window-x="0"
     inkscape:window-y="0"
     inkscape:window-maximized="1" />
  <metadata
     id="metadata5">
    <rdf:RDF>
      <cc:Work
         rdf:about="">
        <dc:format>image/svg+xml</dc:format>
        <dc:type
           rdf:resource="http://purl.org/dc/dcmitype/StillImage" />
        <dc:title></dc:title>
      </cc:Work>
    </rdf:RDF>
  </metadata>
  <g
     inkscape:label="Ebene 1"
     inkscape:groupmode="layer"
     id="layer1">
    <path
       style="fill:#000000;stroke-width:0.26458332"
       d=""
       id="path826"
       inkscape:connector-curvature="0" />
    <path
       style="fill:#000000;stroke-width:0.26458332"
       d="m 60.797149,122.64835 c -0.659056,-0.53874 -0.723558,-0.69585 -0.430622,-1.04881 0.452001,-0.54463 1.073501,-0.53147 1.073501,0.0227 0,0.40177 0.04138,0.40044 0.501727,-0.0162 0.3218,-0.29123 0.537115,-0.3479 0.600406,-0.15803 0.05427,0.16283 0.374761,-0.0774 0.712195,-0.53378 0.337436,-0.45641 0.553016,-0.89034 0.47907,-0.96428 -0.07395,-0.0739 -0.332743,0.16818 -0.575101,0.53807 -0.332851,0.50799 -0.548388,0.61415 -0.881036,0.43392 -0.242213,-0.13122 -1.798672,-0.42458 -3.458797,-0.6519 -1.660128,-0.22731 -3.178175,-0.54589 -3.373437,-0.70794 -0.555488,-0.46102 -0.425974,-2.79112 0.292499,-5.26241 0.35614,-1.22499 0.620427,-2.25435 0.587306,-2.28748 -0.03312,-0.0331 -1.306774,1.8087 -2.83034,4.09293 -1.523563,2.28423 -2.94871,4.18448 -3.166991,4.22277 -0.218281,0.0383 -0.545703,-0.25334 -0.727604,-0.64806 -0.49348,-1.07085 -0.418484,-1.45542 0.264583,-1.35673 0.486868,0.0703 0.995588,-0.44443 2.792622,-2.82586 2.436576,-3.22897 2.921338,-3.77879 2.450689,-2.7796 -0.290256,0.61622 -0.284003,0.62713 0.09143,0.15946 0.221646,-0.2761 0.338656,-0.6061 0.260019,-0.73334 -0.07864,-0.12724 0.550254,-1.10826 1.397537,-2.18005 0.847283,-1.0718 2.076296,-2.69587 2.73114,-3.60906 1.282068,-1.78787 3.646747,-3.91033 5.29132,-4.74933 3.082671,-1.57266 10.576708,-2.753812 13.987248,-2.204562 1.733211,0.27912 1.927158,0.17994 1.104309,-0.56473 -0.735748,-0.66584 -0.973973,-1.58375 -1.616037,-6.22672 -0.952011,-6.88429 -0.190574,-10.45101 3.028243,-14.18493 0.897154,-1.04072 4.563554,-3.46546 4.832852,-3.19616 0.07101,0.071 0.04815,0.56058 -0.05078,1.08795 -0.155691,0.82992 -0.348602,1.03144 -1.434536,1.4986 -4.147624,1.78426 -5.907974,7.63504 -4.616387,15.34323 0.562055,3.35433 1.12803,4.43824 3.34408,6.4043 2.162754,1.918772 5.13898,5.474372 5.696441,6.805342 0.562142,1.34215 8.633415,13.32555 8.746585,12.98603 0.11777,-0.35331 1.02147,-0.37806 1.23424,-0.0338 0.1892,0.30614 -0.64702,1.33526 -1.08499,1.33526 -0.55735,0 -2.63991,-2.56473 -4.73472,-5.83098 -1.12418,-1.75282 -2.08447,-3.14644 -2.13398,-3.09694 -0.0495,0.0495 0.0296,0.85816 0.17572,1.79699 0.14616,0.93884 0.23131,2.8976 0.18922,4.35281 l -0.0765,2.64583 -0.79375,-0.0432 c -0.43657,-0.0238 -1.686721,0.13008 -2.778127,0.34184 -6.161246,1.19549 -16.800353,1.5471 -21.490511,0.71024 l -2.837386,-0.50627 -0.817076,1.13775 c -0.449389,0.62576 -0.898972,1.13347 -0.999072,1.12824 -0.100097,-0.005 -0.530823,-0.29466 -0.957167,-0.64318 z m 0.675712,-0.21161 c -0.261308,-0.25936 -0.291698,-0.22897 -0.148114,0.14812 0.09936,0.26093 0.247303,0.40778 0.328766,0.32632 0.08146,-0.0815 1.69e-4,-0.29496 -0.180652,-0.47444 z m 1.025501,-0.48984 c 0,-0.14552 -0.119063,-0.191 -0.264584,-0.10106 -0.14552,0.0899 -0.264583,0.28258 -0.264583,0.42811 0,0.14552 0.119063,0.191 0.264583,0.10106 0.145521,-0.0899 0.264584,-0.28258 0.264584,-0.42811 z m 7.744761,-4.66512 c 0.09698,-2.63294 0.313619,-4.54635 0.665893,-5.88132 0.287184,-1.08829 0.456567,-2.14962 0.376409,-2.35851 -0.101163,-0.26363 -0.03856,-0.31355 0.204687,-0.16322 0.234902,0.14518 0.287311,0.11446 0.158972,-0.0932 -0.247644,-0.40069 -0.760925,-0.0893 -0.589438,0.35754 0.07188,0.18733 -1.461413,2.76489 -3.407326,5.72793 -1.945909,2.96304 -3.455119,5.46941 -3.353799,5.56971 0.184607,0.18275 3.430018,0.64543 4.97691,0.70953 l 0.823947,0.0341 z m 9.277881,3.70417 c 0.0663,-0.10915 0.208217,-4.27633 0.315378,-9.26042 l 0.194837,-9.06198 h -0.943996 c -0.519197,0 -1.237978,0.11177 -1.597287,0.24838 -2.005894,0.76264 -4.647438,5.23187 -5.851938,9.9009 -0.52002,2.01576 -0.67297,3.26354 -0.67297,5.4901 v 2.88145 h 4.217717 c 2.319745,0 4.271963,-0.0893 4.338259,-0.19843 z m 6.801813,-0.76816 2.633877,-0.43743 v -1.95774 c 0,-1.07675 -0.189339,-2.81468 -0.420751,-3.86205 -0.495136,-2.24098 -2.101543,-5.71163 -3.317409,-7.16729 -0.859512,-1.02902 -3.783642,-3.33598 -4.228447,-3.33598 -0.132749,0 -0.235476,3.7513 -0.235476,8.59896 v 8.59896 h 1.467165 c 0.806939,0 2.652408,-0.19685 4.101041,-0.43743 z m -36.079132,-0.67052 c -0.08446,-0.21106 -0.147156,-0.14837 -0.15985,0.15986 -0.01148,0.27891 0.05104,0.43518 0.138964,0.34726 0.08792,-0.0879 0.09732,-0.31612 0.02088,-0.50712 z m 15.358647,-2.97643 c 1.20387,-1.73708 2.376262,-3.40395 2.605314,-3.70416 0.879391,-1.15258 -0.529682,1.09403 -2.455372,3.91481 -1.078791,1.58023 -1.914197,2.92038 -1.856457,2.97812 0.108029,0.10804 5.217128,-7.44963 5.217128,-7.71746 0,-0.0822 -0.148828,-0.0638 -0.330729,0.0409 -0.192151,0.11058 -0.238345,0.0894 -0.110244,-0.0505 0.121269,-0.13247 0.349472,-0.24086 0.507119,-0.24086 0.157646,0 0.341765,-0.1654 0.409151,-0.36755 0.0838,-0.2514 0.0071,-0.30071 -0.242535,-0.15602 -0.215527,0.12489 -0.274744,0.11288 -0.144569,-0.0293 0.121269,-0.13247 0.349473,-0.24086 0.507119,-0.24086 0.157647,0 0.341765,-0.1654 0.409152,-0.36755 0.08167,-0.24502 0.0092,-0.29755 -0.217271,-0.15756 -0.224462,0.13873 -0.274806,0.10486 -0.148333,-0.0998 0.105299,-0.17038 0.296315,-0.24497 0.424482,-0.16576 0.279868,0.17297 0.84238,-0.7873 0.602001,-1.02768 -0.09247,-0.0925 0.07718,-0.43555 0.377005,-0.76239 0.299823,-0.32685 0.996873,-1.30739 1.549005,-2.17898 1.310225,-2.0683 3.158524,-4.02712 4.39524,-4.65805 0.62752,-0.32014 1.595519,-0.51636 2.652344,-0.53767 l 1.664187,-0.0336 -1.719791,-0.24415 c -2.608914,-0.37037 -6.388918,-0.0943 -9.789583,0.71484 -4.577448,1.08921 -6.906019,2.4434 -9.475375,5.51044 -2.177541,2.59933 -4.707651,8.69618 -4.496032,10.83415 0.06777,0.68461 0.23001,0.85498 1.006824,1.05725 2.53588,0.66028 4.211307,0.94515 5.286203,0.8988 l 1.185161,-0.0511 z m -3.519734,-6.36323 c -0.426172,-0.14363 -0.851273,-0.36793 -0.944668,-0.49845 -0.40249,-0.56249 0.913048,-3.09712 2.111944,-4.06905 0.421531,-0.34173 4.829018,-0.48283 5.147071,-0.16478 0.09127,0.0913 -0.184406,0.67516 -0.612616,1.29754 -0.428207,0.62238 -0.989055,1.69785 -1.246325,2.38992 l -0.467767,1.25832 -1.606389,0.0238 c -0.883512,0.0131 -1.955075,-0.0937 -2.38125,-0.23732 z m 1.426686,-0.10083 c 0.192204,-0.12187 0.811112,-0.13716 1.375349,-0.034 1.048301,0.1917 1.317895,-0.005 1.317895,-0.95904 0,-0.21212 0.416719,-1.00446 0.926042,-1.76076 0.509323,-0.7563 0.926041,-1.46383 0.926041,-1.57228 0,-0.10846 -1.010946,-0.18977 -2.246547,-0.1807 l -2.246551,0.0165 -0.882031,1.03046 c -0.856975,1.00118 -1.595773,2.71582 -1.298342,3.01325 0.08089,0.0809 0.573723,0.14891 1.095174,0.15114 0.709525,0.003 0.848225,0.0686 0.551214,0.26053 -0.218281,0.14106 -0.277812,0.25648 -0.132291,0.25648 0.145521,0 0.421841,-0.0997 0.614047,-0.22158 z m 4.024265,-1.75469 c 0,-0.14552 0.115414,-0.44318 0.256479,-0.66146 0.141065,-0.21828 0.256479,-0.27781 0.256479,-0.13229 0,0.14552 -0.115414,0.44318 -0.256479,0.66146 -0.141065,0.21828 -0.256479,0.27781 -0.256479,0.13229 z m 23.368054,10.50593 c 0.44295,-2.77005 -1.125526,-9.31186 -2.840905,-11.84886 -1.292992,-1.91231 -3.387478,-3.69819 -5.079851,-4.33139 -1.92995,-0.72209 -2.662537,-0.68724 -1.168921,0.0556 2.034489,1.01183 4.796641,4.00896 6.045826,6.56013 1.370277,2.79847 1.866792,4.7108 2.074061,7.98828 0.11167,1.76577 0.26509,2.57969 0.48624,2.57969 0.1777,0 0.3953,-0.45155 0.48355,-1.00345 z M 52.95273,116.33741 c 1.058346,-1.57442 1.870713,-2.91614 1.805257,-2.9816 -0.171778,-0.17177 -4.165875,5.57669 -4.165875,5.9957 0,0.47232 0.120052,0.31904 2.360618,-3.0141 z m 42.038063,-0.11396 c -2.72887,-4.30072 -4.69021,-7.2099 -4.86085,-7.2099 -0.21441,0 0.27512,0.81507 2.9771,4.95689 2.47182,3.78902 3.75756,5.62644 3.9371,5.62644 0.0479,0 -0.87608,-1.51804 -2.05335,-3.37343 z m -44.927847,2.57968 c 0,-0.14552 -0.119063,-0.26458 -0.264584,-0.26458 -0.14552,0 -0.264583,0.11906 -0.264583,0.26458 0,0.14552 0.119063,0.26459 0.264583,0.26459 0.145521,0 0.264584,-0.11907 0.264584,-0.26459 z m 140.758324,0.26459 v -3.96875 h 0.90399 c 0.4972,0 0.95114,0.14143 1.00876,0.3143 0.0743,0.22291 0.29019,0.18444 0.74238,-0.13229 0.92377,-0.64703 1.7172,-0.55135 2.6985,0.32545 0.78314,0.69973 0.86408,0.91242 0.86408,2.27066 0,1.35824 -0.0809,1.57094 -0.86408,2.27066 -0.95214,0.85074 -1.80627,0.97719 -2.59108,0.38359 -0.8106,-0.6131 -0.91047,-0.49793 -0.91047,1.04992 v 1.45521 h -0.92604 -0.92604 z m 3.98927,0.10756 c 0.19244,-0.23188 0.34989,-0.81606 0.34989,-1.29819 0,-1.01056 -0.48726,-1.71979 -1.18156,-1.71979 -0.5762,0 -1.30552,0.96074 -1.30552,1.71979 0,1.34702 1.39394,2.19375 2.13719,1.29819 z m -93.13538,0.88637 c 0.34495,-1.20278 0.32656,-1.25852 -0.41535,-1.25852 -0.47785,0 -0.66145,-0.14223 -0.66145,-0.5124 0,-0.3847 0.2143,-0.53307 0.85989,-0.59531 0.65907,-0.0635 0.87964,-0.22195 0.94445,-0.67822 0.0689,-0.48485 -0.0416,-0.59532 -0.59532,-0.59532 -0.50347,0 -0.67986,-0.13729 -0.67986,-0.52916 0,-0.42578 0.17639,-0.52917 0.90279,-0.52917 0.84706,0 0.91382,-0.0653 1.08159,-1.05833 0.14911,-0.88261 0.2817,-1.05834 0.79853,-1.05834 0.57313,0 0.60123,0.0645 0.37362,0.85815 -0.3445,1.20122 -0.32605,1.25852 0.40515,1.25852 0.53592,0 0.70173,-0.18744 0.93624,-1.05833 0.20953,-0.77816 0.42237,-1.05834 0.80395,-1.05834 0.59252,0 0.61028,0.082 0.27285,1.25852 -0.23763,0.82856 -0.21938,0.85815 0.52917,0.85815 0.59889,0 0.77528,0.12039 0.77528,0.52917 0,0.42837 -0.17639,0.52916 -0.92604,0.52916 -0.50933,0 -0.92604,0.10933 -0.92604,0.24295 0,0.13362 -0.0723,0.43127 -0.1606,0.66145 -0.12521,0.32629 0.0206,0.41852 0.66146,0.41852 0.64566,0 0.82205,0.11354 0.82205,0.52917 0,0.42725 -0.17639,0.52916 -0.91584,0.52916 -0.8446,0 -0.93801,0.0823 -1.20082,1.05834 -0.20954,0.77815 -0.42237,1.05833 -0.80395,1.05833 -0.59252,0 -0.61029,-0.082 -0.27286,-1.25852 0.2364,-0.82425 0.21642,-0.85815 -0.50591,-0.85815 -0.67117,0 -0.77124,0.11379 -0.93083,1.05834 -0.14911,0.8826 -0.2817,1.05833 -0.79853,1.05833 -0.57313,0 -0.60122,-0.0645 -0.37362,-0.85815 z m 3.15653,-2.55979 c 0,-0.13362 0.0759,-0.44077 0.16869,-0.68255 0.13711,-0.35731 0.0257,-0.42327 -0.59531,-0.35237 -0.55754,0.0637 -0.78685,0.24811 -0.84855,0.68255 -0.0689,0.48484 0.0416,0.59531 0.59531,0.59531 0.37392,0 0.67986,-0.10933 0.67986,-0.24294 z m 5.55625,2.88877 c -0.42062,-0.42062 -0.52917,-0.88194 -0.52917,-2.24896 0,-1.35231 -0.0848,-1.71979 -0.39687,-1.71979 -0.24695,0 -0.39688,-0.24988 -0.39688,-0.66146 0,-0.41157 0.14993,-0.66145 0.39688,-0.66145 0.26458,0 0.39687,-0.26459 0.39687,-0.79375 0,-0.73076 0.0735,-0.79375 0.92604,-0.79375 0.85255,0 0.92604,0.063 0.92604,0.79375 0,0.73075 0.0735,0.79375 0.92605,0.79375 0.81139,0 0.92604,0.0819 0.92604,0.66145 0,0.58134 -0.11378,0.66146 -0.93925,0.66146 h -0.93924 l 0.0794,1.52136 c 0.0784,1.50409 0.0891,1.52229 0.93924,1.60426 0.71219,0.0687 0.8599,0.19365 0.8599,0.72761 0,0.59724 -0.0974,0.64469 -1.32292,0.64469 -0.97014,0 -1.46403,-0.14111 -1.85208,-0.52917 z m 4.23333,-3.43958 v -3.96875 h 0.92604 0.92604 v 1.32292 c 0,1.41512 0.10835,1.52432 0.91047,0.91762 0.75533,-0.5713 1.8267,-0.47469 2.483,0.22391 0.50446,0.53698 0.57528,0.91156 0.57528,3.04271 v 2.43034 h -0.91574 -0.91574 l -0.0764,-2.3151 c -0.0748,-2.26505 -0.0906,-2.31511 -0.7301,-2.31511 -0.89871,0 -1.32204,0.94969 -1.32683,2.97656 l -0.004,1.65365 h -0.92604 -0.92604 z m 8.83394,3.70944 c -1.7771,-0.71803 -2.27093,-3.31572 -0.91814,-4.82974 0.69972,-0.78314 0.91242,-0.86408 2.27066,-0.86408 1.35824,0 1.57093,0.0809 2.27066,0.86408 0.4875,0.54561 0.77205,1.15507 0.77205,1.65364 v 0.78958 h -2.11667 c -2.14739,0 -2.44781,0.16022 -1.70089,0.90714 0.52759,0.52759 1.76507,0.533 2.77236,0.0121 0.7669,-0.39658 0.78061,-0.39169 0.78061,0.27809 0,0.52785 -0.20712,0.76829 -0.91754,1.06512 -1.00962,0.42185 -2.34818,0.47353 -3.2131,0.12407 z m 2.54314,-3.65652 c 0,-0.39625 -0.6334,-0.84667 -1.19062,-0.84667 -0.55723,0 -1.19063,0.45042 -1.19063,0.84667 0,0.11641 0.53579,0.21166 1.19063,0.21166 0.65484,0 1.19062,-0.0952 1.19062,-0.21166 z m 3.175,1.00541 v -2.91041 h 0.904 c 0.49719,0 0.94691,0.12875 0.99936,0.28612 0.0611,0.1834 0.38551,0.1196 0.90353,-0.1777 0.93255,-0.53521 1.69103,-0.35738 1.69103,0.39647 0,0.41097 -0.209,0.5389 -0.9861,0.60361 -1.26003,0.10493 -1.65057,0.82634 -1.65583,3.05868 l -0.004,1.65365 h -0.92594 -0.92605 z m 6.71728,2.65111 c -1.7771,-0.71803 -2.27093,-3.31572 -0.91815,-4.82974 0.69973,-0.78314 0.91243,-0.86408 2.27066,-0.86408 1.35824,0 1.57094,0.0809 2.27067,0.86408 0.4875,0.54561 0.77204,1.15507 0.77204,1.65364 v 0.78958 h -2.11666 c -2.1474,0 -2.44782,0.16022 -1.7009,0.90714 0.5276,0.52759 1.76507,0.533 2.77237,0.0121 0.7669,-0.39658 0.78061,-0.39169 0.78061,0.27809 0,0.52785 -0.20713,0.76829 -0.91754,1.06512 -1.00963,0.42185 -2.34818,0.47353 -3.2131,0.12407 z m 2.54314,-3.65652 c 0,-0.39625 -0.6334,-0.84667 -1.19063,-0.84667 -0.55722,0 -1.19062,0.45042 -1.19062,0.84667 0,0.11641 0.53578,0.21166 1.19062,0.21166 0.65485,0 1.19063,-0.0952 1.19063,-0.21166 z m 3.175,1.00541 v -2.91041 h 0.92604 0.92604 v 2.91041 2.91042 h -0.92604 -0.92604 z m 4.15232,2.59794 c -0.54725,-0.19952 -0.72116,-0.42011 -0.66146,-0.839 0.0592,-0.41551 0.22329,-0.53635 0.61018,-0.44942 0.29104,0.0654 1.00542,0.12493 1.5875,0.1323 1.5433,0.0195 1.38896,-0.63785 -0.24729,-1.05331 -2.04265,-0.51865 -2.6611,-1.94806 -1.30453,-3.01514 1.29128,-1.01572 4.06536,-0.59132 4.06536,0.62195 0,0.60853 -0.0541,0.63536 -0.77508,0.38404 -1.02654,-0.35785 -2.26763,-0.2027 -2.26763,0.28349 0,0.25318 0.48968,0.47697 1.44735,0.66146 1.13656,0.21895 1.53157,0.42976 1.83963,0.98179 1.03481,1.85436 -1.61495,3.26862 -4.29403,2.29184 z m 5.90185,-2.59794 v -2.91041 h 0.90399 c 0.49719,0 0.95114,0.14143 1.00876,0.3143 0.0743,0.22291 0.29019,0.18444 0.74238,-0.13229 0.88853,-0.62235 1.91151,-0.55689 2.59041,0.16577 0.50447,0.53698 0.57529,0.91156 0.57529,3.04271 v 2.43034 h -0.91574 -0.91574 l -0.0764,-2.3151 c -0.0748,-2.26505 -0.0906,-2.31511 -0.73009,-2.31511 -0.89872,0 -1.32205,0.94969 -1.32683,2.97656 l -0.004,1.65365 h -0.92604 -0.92604 z m 8.83394,2.65111 c -1.75673,-0.7098 -2.27103,-3.31561 -0.94688,-4.79759 0.97593,-1.09225 2.91061,-1.33905 4.19035,-0.53456 1.76113,1.10712 1.76847,4.00349 0.0129,5.07396 -0.87846,0.53563 -2.29225,0.64772 -3.25634,0.25819 z m 2.27262,-1.45333 c 0.17789,-0.21434 0.32344,-0.81287 0.32344,-1.33007 0,-1.0693 -0.42543,-1.71979 -1.12475,-1.71979 -0.74296,0 -1.30942,0.74398 -1.30942,1.71979 0,1.4409 1.32553,2.27618 2.11073,1.33007 z m 4.87113,1.45333 c -1.74544,-0.70524 -2.27111,-3.31557 -0.96259,-4.77994 0.77594,-0.86835 2.31725,-1.26901 3.62204,-0.94153 0.53954,0.13542 0.67744,0.33247 0.67744,0.96805 0,0.70699 -0.0584,0.76677 -0.51177,0.52412 -1.33425,-0.71406 -2.66323,0.0304 -2.66323,1.49187 0,1.37173 1.37016,2.09196 2.66323,1.39993 0.45181,-0.2418 0.51177,-0.18313 0.51177,0.50086 0,0.4624 -0.16873,0.8395 -0.41852,0.93535 -0.58913,0.22607 -2.25391,0.16976 -2.91837,-0.0987 z m 5.58585,-0.0569 c -0.73701,-0.41793 -0.91732,-0.74909 -0.92199,-1.69335 -0.006,-1.16995 0.77463,-1.76022 2.51846,-1.90483 1.1978,-0.0993 1.40245,-0.18524 1.15412,-0.48445 -0.35945,-0.43311 -1.90774,-0.47941 -2.65517,-0.0794 -0.47871,0.25619 -0.52279,0.2119 -0.44563,-0.44773 0.0686,-0.58663 0.26958,-0.77954 1.01166,-0.97113 1.29134,-0.33339 2.88469,-0.0671 3.54456,0.59247 0.46528,0.46504 0.57164,0.9453 0.64896,2.93038 l 0.0925,2.37419 h -0.95237 c -0.67728,0 -0.95237,-0.1166 -0.95237,-0.40367 0,-0.36184 -0.0809,-0.36184 -0.78061,0 -0.91936,0.47542 -1.53595,0.49928 -2.26209,0.0875 z m 2.55885,-1.44464 c 0.77604,-0.70231 0.60076,-1.14962 -0.45049,-1.14962 -0.96863,0 -1.37336,0.44346 -1.08664,1.19063 0.20109,0.52403 0.93439,0.50446 1.53713,-0.041 z m 3.92344,-1.14962 v -2.91041 h 0.90399 c 0.4972,0 0.95114,0.14143 1.00876,0.3143 0.0743,0.22291 0.29019,0.18444 0.74238,-0.13229 0.84476,-0.59169 1.65404,-0.56453 2.23276,0.0749 0.46969,0.51901 0.47522,0.51901 1.13502,0 0.85139,-0.6697 2.03434,-0.66636 2.70834,0.008 0.4549,0.4549 0.52916,0.88195 0.52916,3.04271 v 2.51354 h -0.79375 -0.79375 v -1.9338 c 0,-2.09562 -0.39667,-3.03768 -1.15633,-2.74617 -0.63121,0.24222 -0.96033,1.30798 -0.96033,3.1097 v 1.57028 h -0.92604 -0.92605 v -2.25726 c 0,-1.85676 -0.0777,-2.28709 -0.43808,-2.42537 -0.83684,-0.32113 -1.414,0.84619 -1.414,2.85986 v 1.82277 h -0.92604 -0.92604 z m -38.1,-4.36562 c 0,-0.57957 0.11465,-0.66146 0.92604,-0.66146 0.81139,0 0.92604,0.0819 0.92604,0.66146 0,0.57956 -0.11465,0.66146 -0.92604,0.66146 -0.81139,0 -0.92604,-0.0819 -0.92604,-0.66146 z M 26.779613,103.80094 c -2.381067,-0.24732 -8.76294,-1.20872 -10.186457,-1.53455 -0.873125,-0.19985 -2.956719,-0.79304 -4.630209,-1.31819 -2.6947711,-0.84565 -3.1864211,-1.096022 -4.2994791,-2.189482 l -1.25677,-1.23465 0.0036,-4.11099 c 0.0032,-3.72389 0.08603,-4.45977 0.879426,-7.81515 l 0.875866,-3.70417 2.5654081,-3.75063 2.565407,-3.75063 4.355494,-2.68543 4.355493,-2.68543 4.304361,-0.77079 4.304358,-0.77079 3.896108,0.75447 c 4.291896,0.83111 4.309973,0.83946 9.780021,4.51766 l 2.971067,1.99782 2.650895,3.83645 c 2.831766,4.09823 6.310113,7.86863 8.37607,9.07936 1.955821,1.14619 4.167372,1.80447 6.203288,1.84643 3.266522,0.0673 5.610963,-1.53238 7.363441,-5.02439 0.563301,-1.12244 0.733507,-1.96036 0.927709,-4.56704 0.193175,-2.59291 0.366794,-3.45267 0.924578,-4.57848 1.468035,-2.96301 3.572306,-5.31286 11.139048,-12.43907 1.771258,-1.66814 1.845678,-1.78801 1.868646,-3.00994 0.02267,-1.20666 0.06941,-1.28565 0.901729,-1.52436 1.102601,-0.31622 1.399196,0.0372 2.201042,2.6227 0.84299,2.71816 0.75328,6.84481 -0.278143,12.79471 -0.977048,5.63623 -0.82278,6.44828 1.659743,8.73659 1.86078,1.71521 4.80158,2.69882 8.10011,2.70924 2.252067,0.007 3.008957,-0.41125 4.868807,-2.69124 2.12758,-2.60819 6.03342,-5.58886 8.61576,-6.57496 l 2.1836,-0.83384 1.3472,0.44234 c 2.35707,0.77393 4.1541,1.65919 6.35221,3.12929 2.34426,1.56783 5.20995,4.56509 4.67866,4.89344 -0.23383,0.14452 -0.20797,0.28498 0.0994,0.54011 0.35616,0.29559 0.38929,0.27662 0.23214,-0.1329 -0.30267,-0.78874 0.34528,-0.2209 1.25242,1.09758 0.45292,0.65829 0.84849,1.36729 0.87906,1.57554 0.0306,0.20826 0.42136,0.76491 0.86842,1.237 1.02525,1.08264 2.12237,2.84464 2.35948,3.78937 0.18032,0.71842 0.17566,0.72142 -0.44519,0.28656 -0.34507,-0.24169 -0.81967,-0.43945 -1.05465,-0.43945 -0.51718,0 -8.20019,3.88748 -10.1573,5.13943 -0.90046,0.57601 -1.45964,1.1391 -1.57072,1.58167 -0.20304,0.80896 -0.58991,0.8952 -0.81628,0.18196 -0.0882,-0.2779 -0.32962,-0.64574 -0.53649,-0.81743 -0.32284,-0.26793 -7.15019,-1.52484 -16.65374,-3.06595 -2.477497,-0.40175 -3.342687,-0.39152 -4.898647,0.0579 l -0.65005,0.18776 0.56543,-0.71883 c 0.31099,-0.39536 0.88152,-1.546 1.26784,-2.55698 0.38632,-1.01099 0.81134,-1.90549 0.94451,-1.98779 0.40533,-0.25051 0.27053,-1.33359 -0.2214,-1.77877 -0.65917,-0.59655 -1.58184,-0.90598 -4.44649,-1.49119 -1.38385,-0.2827 -3.01811,-0.75719 -3.63169,-1.05442 -1.431848,-0.6936 -3.070354,-2.28398 -3.571861,-3.46694 -0.631807,-1.49032 -0.491741,-5.40133 0.331642,-9.26042 0.854813,-4.00639 1.162449,-8.62953 0.62157,-9.34094 -0.335143,-0.44081 -0.658358,-0.21433 -4.217467,2.95519 -5.072811,4.51754 -8.523422,8.50394 -9.191836,10.61908 -0.160951,0.50932 -0.410485,2.28276 -0.554519,3.94098 -0.211492,2.43487 -0.412662,3.33716 -1.045583,4.68968 -0.947504,2.02477 -2.677959,3.77453 -4.728937,4.78168 -1.389761,0.68247 -1.749444,0.74138 -4.423193,0.72453 -2.585106,-0.0163 -3.257574,-0.12719 -6.016291,-0.99218 -1.708232,-0.53562 -3.152389,-0.97385 -3.209235,-0.97385 -0.05685,0 -0.180692,1.63711 -0.275206,3.63802 -0.30027,6.35681 -0.124613,5.85758 -2.515343,7.14886 -1.717884,0.927862 -2.803779,1.269722 -6.531557,2.056252 -5.452732,1.15048 -16.058898,2.31926 -18.626324,2.05259 z m 0.264584,-0.85243 c 0,-0.25773 -2.845094,-5.431812 -4.423751,-8.045022 -0.512459,-0.8483 -1.018146,-1.44361 -1.123744,-1.32292 -0.339921,0.3885 -4.506671,7.808422 -4.506671,8.025232 0,0.11514 1.041796,0.35678 2.315104,0.53699 1.273307,0.18021 3.267604,0.47651 4.43177,0.65845 2.700663,0.42208 3.307292,0.44909 3.307292,0.14727 z m 8.598958,-0.29889 c 1.455208,-0.14267 3.107613,-0.33001 3.672014,-0.41631 l 1.026181,-0.15693 2.479548,-5.123482 c 1.36375,-2.81792 2.479548,-5.28629 2.479548,-5.48527 0,-0.3748 -6.239023,-8.81803 -6.901455,-9.33969 -0.283326,-0.22311 -1.53488,-0.028 -5.137086,0.80078 l -4.7625,1.09577 -3.104888,4.09401 c -1.707689,2.2517 -3.106674,4.24875 -3.108854,4.43788 -0.0021,0.18912 0.175908,0.69171 0.395756,1.11685 0.354407,0.68534 0.476901,0.74363 1.080484,0.51415 2.48857,-0.94615 4.440269,-1.12632 10.451703,-0.96484 5.715026,0.15352 6.0506,0.19175 7.60677,0.86664 0.895392,0.38832 1.627987,0.80954 1.627987,0.93604 0,0.3618 -0.43252,0.2771 -2.058493,-0.40313 -1.385035,-0.57942 -2.018257,-0.64856 -7.466507,-0.81517 -5.516147,-0.16869 -6.079363,-0.14302 -7.672916,0.34978 -0.945886,0.29251 -1.984174,0.57005 -2.307307,0.61674 -0.54919,0.0794 -0.445532,0.33514 1.589196,3.92136 1.197189,2.110052 2.280999,3.999412 2.408465,4.198582 0.244485,0.382 1.831768,0.33177 7.702354,-0.24376 z m 9.864002,-1.54883 c 1.787181,-0.41076 3.310395,-0.80782 3.384925,-0.88235 0.07453,-0.0745 -0.570121,-1.903062 -1.432554,-4.063412 l -1.568059,-3.9279 -2.279888,4.55381 c -1.253937,2.5046 -2.279885,4.674202 -2.279885,4.821342 0,0.39401 0.58488,0.32377 4.175461,-0.50149 z m -30.39385,-1.149222 c -1.121463,-2.85263 -3.222393,-7.62006 -3.408814,-7.73527 -0.180498,-0.11156 -2.3873791,6.32574 -2.3873791,6.96379 0,0.25329 5.1240181,2.073872 6.0154101,2.137292 0.22876,0.0163 0.162963,-0.39367 -0.219217,-1.365812 z m 3.705994,-2.98384 c 2.01776,-3.6222 2.353059,-4.35835 1.985129,-4.35835 -0.08489,0 -1.997404,-0.30998 -4.250027,-0.68886 -2.252624,-0.37887 -4.147709,-0.63683 -4.2113,-0.57324 -0.06359,0.0636 0.729289,2.12975 1.761955,4.59147 1.032667,2.46171 1.938122,4.623992 2.012124,4.805052 0.074,0.18107 0.230868,0.26968 0.348594,0.19692 0.117725,-0.0728 1.176812,-1.860602 2.353525,-3.972992 z m 33.170668,2.09212 c 0.759148,-0.38131 1.409759,-0.71838 1.445805,-0.74905 0.08804,-0.0749 -0.70127,-6.02847 -0.814212,-6.14141 -0.107141,-0.10714 -2.294033,6.82333 -2.294033,7.27001 0,0.43061 0.09074,0.40989 1.66244,-0.37955 z m -1.04763,-3.96362 c 0.699648,-2.27025 1.205237,-4.19458 1.123534,-4.27628 -0.0817,-0.0817 -1.392446,0.0647 -2.912761,0.32525 l -2.76421,0.4738 0.618342,1.61967 c 1.535152,4.02114 2.356831,5.9853 2.503876,5.9853 0.08752,0 0.731573,-1.85748 1.431219,-4.12774 z m -43.2095861,0.95274 -0.47846,-2.24896 -0.02692,1.83125 c -0.02004,1.36349 0.0853,1.95525 0.412427,2.31672 0.241643,0.26702 0.469065,0.45498 0.505383,0.41771 0.03632,-0.0373 -0.149274,-1.0798 -0.412427,-2.31672 z m 3.4332711,-5.0291 c 0.0038,-0.1594 -3.7910611,-1.04323 -3.9264511,-0.91448 -0.05124,0.0487 0.276181,1.82974 0.727604,3.95781 0.451424,2.12808 0.832562,3.95147 0.846975,4.05198 0.0253,0.17643 2.3454411,-6.82314 2.3518721,-7.09531 z m 108.244356,5.54176 c -0.25197,-0.63074 -0.25802,-0.62698 -0.27442,0.17084 -0.009,0.44869 0.0725,0.90586 0.18166,1.01593 0.31413,0.3168 0.3762,-0.47726 0.0928,-1.18677 z m -0.48849,-0.84339 c 0.24037,-1.62299 0.12207,-1.6909 -3.61279,-2.07384 -2.95533,-0.30301 -14.6952,-2.2542 -14.92088,-2.47987 -0.0785,-0.0785 0.22575,-0.14265 0.676,-0.14265 0.78664,0 1.91539,-0.97524 1.91539,-1.6549 0,-0.45653 2.8547,-5.06392 3.879,-6.2606 1.19383,-1.39471 2.70043,-2.12506 4.39976,-2.13285 1.45115,-0.007 3.08474,0.71832 3.67874,1.63259 0.97244,1.49675 1.793,5.78872 1.79866,9.40795 l 0.002,1.38906 h 1.09699 1.097 l -0.18325,-3.29809 c -0.27654,-4.97727 -1.12614,-9.89353 -1.84748,-10.69061 -0.52732,-0.58268 -3.52995,-1.16374 -5.47905,-1.06029 -1.32651,0.0704 -1.47424,0.15804 -3.49162,2.07115 -1.15857,1.0987 -2.87157,2.95014 -3.80666,4.1143 -2.00707,2.49878 -5.193427,7.85368 -5.066237,8.51416 0.0984,0.5109 0.0782,0.50619 8.816767,2.05857 6.46224,1.148 8.11179,1.39195 9.6934,1.43355 1.18986,0.0313 1.23057,0.006 1.35409,-0.82763 z m 6.88067,-2.21248 c 2.79982,-1.39877 5.12519,-2.57439 5.16748,-2.61249 0.10642,-0.0959 -1.02391,-1.98805 -1.18761,-1.98805 -0.45426,0 -8.57398,4.36451 -9.00522,4.84049 -0.69996,0.77256 -1.00443,2.30326 -0.45814,2.30326 0.2161,0 2.68367,-1.14445 5.48349,-2.54321 z m -6.23805,0.64151 c -0.0845,-0.21106 -0.14716,-0.14837 -0.15985,0.15986 -0.0115,0.27891 0.0511,0.43518 0.13896,0.34726 0.0879,-0.0879 0.0973,-0.31612 0.0209,-0.50712 z m -65.639333,-4.37843 c -0.06757,-0.0676 -0.249844,-0.0444 -0.405045,0.0515 -0.32276,0.19948 -0.363101,1.63646 -0.08943,3.18588 0.1729,0.97892 0.203073,0.90177 0.402132,-1.02812 0.118362,-1.14754 0.15992,-2.14173 0.09235,-2.2093 z m 44.812686,2.45924 c -0.005,-0.15408 -0.18322,-0.049 -0.39688,0.23344 -0.21365,0.28247 -0.38467,0.63966 -0.38004,0.79375 0.005,0.15408 0.18322,0.049 0.39687,-0.23344 0.21366,-0.28247 0.38468,-0.63966 0.38005,-0.79375 z m 17.055137,0.4947 c 0.46104,-0.46104 0.58041,-2.62625 0.15914,-2.88661 -0.29608,-0.18299 -7.48889,1.73046 -7.28214,1.93722 0.10268,0.10268 5.28331,1.16622 6.52768,1.34008 0.0988,0.0138 0.36664,-0.16202 0.59532,-0.39069 z m 9.42355,-2.00421 c 2.32176,-1.18546 4.22139,-2.29788 4.22139,-2.47204 0,-0.53745 -2.57962,-4.02341 -4.44511,-6.00688 -3.39643,-3.61123 -5.02541,-4.52798 -6.18354,-3.47989 -0.60863,0.55081 -0.60722,0.92453 0.008,2.15235 0.55261,1.10268 1.01147,6.14102 0.55928,6.14102 -0.32767,0 -0.3384,0.97711 -0.0129,1.17825 0.13451,0.0831 0.29929,-0.0587 0.36619,-0.31511 0.0669,-0.25644 0.13543,0.67475 0.15231,2.06933 0.0169,1.39457 0.11007,2.61497 0.20708,2.71198 0.36881,0.3688 1.02517,0.11546 5.12723,-1.97901 z m -104.088521,0.89863 c -0.07205,-0.25467 -0.630544,-2.36802 -1.241107,-4.69636 -0.610562,-2.32833 -1.19212,-4.32408 -1.29235,-4.43499 -0.100231,-0.11091 -1.577981,1.64526 -3.28389,3.9026 -1.70591,2.25735 -3.067725,4.11074 -3.026257,4.11864 9.177961,1.75015 9.019036,1.7302 8.843604,1.11011 z m 3.681275,-3.80153 c 1.534408,-2.05445 2.751219,-3.77399 2.70402,-3.82119 -0.0472,-0.0472 -1.749636,-0.51726 -3.783197,-1.04459 -2.033564,-0.52733 -3.898709,-1.01625 -4.144768,-1.08647 -0.399548,-0.11403 -0.377495,0.13535 0.206272,2.33258 1.122813,4.22613 2.029146,7.35505 2.130484,7.35505 0.05355,0 1.35278,-1.68092 2.887189,-3.73538 z m 87.133366,2.34628 4.33287,-1.07459 -0.1574,-1.48013 c -0.37545,-3.53069 -1.53599,-5.57577 -3.37258,-5.94309 -3.55535,-0.71107 -5.49483,0.69925 -8.53747,6.20817 -1.13295,2.0513 -1.24888,3.07868 -0.36859,3.26652 0.32742,0.0699 0.83344,0.17992 1.12448,0.24456 0.84815,0.18837 2.36364,-0.0769 6.97869,-1.22144 z m -3.91393,-0.8375 c 0.19146,-0.19093 4.53188,-1.24516 4.64808,-1.12896 0.061,0.061 -0.90097,0.36472 -2.13773,0.67491 -2.28869,0.57402 -2.70643,0.64958 -2.51035,0.45405 z m 5.22,-1.39372 c 0.191,-0.0764 0.41921,-0.067 0.50712,0.0209 0.0879,0.0879 -0.0683,0.15046 -0.34726,0.13897 -0.30823,-0.0127 -0.37092,-0.0754 -0.15986,-0.15985 z m 1.05834,-0.26459 c 0.19099,-0.0764 0.4192,-0.067 0.50712,0.0209 0.0879,0.0879 -0.0684,0.15045 -0.34727,0.13896 -0.30822,-0.0127 -0.37092,-0.0754 -0.15985,-0.15985 z m -15.031637,3.22345 c 0,-0.21828 -0.0468,-0.39687 -0.10398,-0.39687 -0.0572,0 -0.17252,0.17859 -0.25628,0.39687 -0.0838,0.21828 -0.037,0.39688 0.10398,0.39688 0.14095,0 0.25628,-0.1786 0.25628,-0.39688 z m -49.513998,-0.52361 c 1.216623,-0.22134 2.260132,-0.40243 2.318911,-0.40243 0.150697,0 -1.316722,-2.8755 -2.902963,-5.68854 l -1.342755,-2.38125 -0.584777,3.30729 c -0.321627,1.81901 -0.665591,3.87809 -0.764362,4.57574 -0.174244,1.23071 -0.161094,1.26433 0.442158,1.13003 0.341961,-0.0761 1.617165,-0.3195 2.833788,-0.54084 z m -3.26962,-4.37577 c 0.406847,-2.47638 0.692176,-4.54926 0.634066,-4.6064 -0.144709,-0.1423 -7.666503,0.30969 -7.827153,0.47034 -0.117049,0.11705 6.162731,8.63857 6.366034,8.63857 0.04803,0 0.420206,-2.02613 0.827053,-4.50251 z m -35.322628,0.54937 c 0,-2.0287 -0.112132,-3.75785 -0.249183,-3.84255 -0.239033,-0.14773 -3.0380021,4.9587 -3.3430141,6.09899 -0.127869,0.47803 0.04136,0.60724 1.259217,0.96139 2.5034841,0.728 2.3329801,0.96317 2.3329801,-3.21783 z m 89.596413,2.09567 c 0.38716,-0.58504 0.6444,-1.12324 0.57164,-1.196 -0.12449,-0.12449 -1.532637,1.82492 -1.532637,2.12175 0,0.35387 0.315007,0.0504 0.960997,-0.92575 z m -85.758776,-2.91899 c 1.527321,-2.04496 2.776946,-3.81788 2.776946,-3.93981 0,-0.12193 -1.339453,-0.32401 -2.976562,-0.44907 l -2.976562,-0.22737 -0.08317,2.51354 c -0.07996,2.41652 0.13643,5.82083 0.369989,5.82083 0.06183,0 1.362037,-1.67315 2.889357,-3.71812 z m 38.681033,3.16237 c 0.211841,-0.21184 0.14619,-0.72049 -0.240956,-1.86689 -0.292672,-0.86665 -0.592929,-1.51492 -0.667237,-1.44061 -0.199498,0.1995 0.203277,3.59867 0.426413,3.59867 0.104836,0 0.321635,-0.13103 0.48178,-0.29117 z m -1.645021,-3.21456 c -0.2659,-3.37283 -0.335097,-3.50406 -2.024551,-3.83931 -0.775806,-0.15395 -1.447493,-0.24384 -1.492634,-0.19976 -0.103174,0.10073 3.434374,6.48647 3.593354,6.48647 0.06423,0 0.02995,-1.10133 -0.07617,-2.4474 z m 77.136204,0.33873 c -0.57402,-0.80614 -1.06403,-1.23182 -1.06403,-0.92435 0,0.33097 1.09594,1.7101 1.35895,1.7101 0.14552,0 0.0128,-0.35359 -0.29492,-0.78575 z M 9.5782809,83.355738 c 0.4384411,-0.86855 0.7971661,-1.63636 0.7971661,-1.70625 0,-0.0699 -0.3790281,0.0323 -0.8422861,0.22709 -0.758924,0.31911 -0.888756,0.54697 -1.311807,2.30233 -0.258236,1.0715 -0.474075,2.06724 -0.479641,2.21277 -0.01332,0.34824 0.841795,-1.06531 1.836568,-3.03594 z m 93.0871291,2.39101 c 0.0662,-0.19843 -0.0331,-0.29765 -0.23151,-0.23151 -0.19099,0.0637 -0.39935,0.27203 -0.46302,0.46302 -0.0662,0.19844 0.0331,0.29766 0.23151,0.23151 0.191,-0.0637 0.39936,-0.27202 0.46302,-0.46302 z m 1.37253,-1.73632 c 0.34178,-0.36381 0.51136,-0.65772 0.37685,-0.65315 -0.22623,0.008 -1.3166,1.3146 -1.09678,1.3146 0.0542,0 0.37815,-0.29765 0.71993,-0.66145 z m -76.11597,-1.25678 c 0.07776,-0.32742 0.226288,-2.07484 0.33005,-3.88315 l 0.188661,-3.28785 -1.293556,0.75017 c -2.829248,1.64076 -7.534714,4.69964 -7.414452,4.8199 0.109231,0.10923 7.400064,2.1243 7.878153,2.1774 0.09337,0.0104 0.233381,-0.24904 0.311144,-0.57647 z m 5.434817,-0.48048 4.063632,-0.89675 -0.887029,-0.74053 c -1.59553,-1.332 -7.138206,-5.01777 -7.300981,-4.855 -0.169058,0.16906 -0.566369,4.54312 -0.587864,6.47191 -0.009,0.81266 0.08473,1.11802 0.317881,1.03495 0.181901,-0.0648 2.159365,-0.52137 4.394361,-1.01458 z m 85.530113,-0.16113 c -0.2306,-0.39655 -0.28223,-0.40798 -0.28883,-0.0639 -0.009,0.44558 0.26966,0.84677 0.45718,0.65925 0.0618,-0.0618 -0.0139,-0.32973 -0.16835,-0.59531 z m 6.90793,-0.41163 c -0.46082,-0.46082 -0.90654,-0.76916 -0.99049,-0.6852 -0.084,0.084 0.22438,0.52967 0.6852,0.99049 0.46082,0.46081 0.90654,0.76916 0.99049,0.6852 0.084,-0.084 -0.22438,-0.52967 -0.6852,-0.99049 z m -76.385313,-2.83797 c -1.782061,-2.52875 -2.124794,-2.81064 -1.91009,-1.57099 0.08556,0.49397 0.234471,1.4627 0.330917,2.15271 0.168275,1.20388 0.219596,1.26593 1.270127,1.53561 0.60212,0.15457 1.213829,0.31629 1.35935,0.35939 0.633788,0.18768 0.341312,-0.50201 -1.050304,-2.47672 z m -4.673827,1.88121 2.213369,-0.17281 -3.612708,-3.40726 c -1.986986,-1.87399 -3.682296,-3.33767 -3.767354,-3.25261 -0.11507,0.11507 -0.835792,5.93799 -0.877252,7.08757 -0.0058,0.15968 1.603025,0.0918 6.043945,-0.25489 z m -34.051848,-0.10667 c 0.436935,-0.35285 1.38209,-2.56489 1.181592,-2.76539 -0.06581,-0.0658 -0.611012,0.60389 -1.211556,1.48823 -1.0237031,1.50747 -1.0094131,2.11654 0.02996,1.27716 z m 8.087727,-2.97656 c 0.179482,-1.74625 0.298545,-3.326 0.264584,-3.51056 -0.03396,-0.18456 -1.584967,1.11003 -3.44668,2.87687 -1.861713,1.76684 -3.319801,3.27757 -3.240195,3.35718 0.203125,0.20312 3.475819,0.52736 4.905336,0.48598 l 1.190625,-0.0345 z m 19.612354,0.38739 c 0.360542,-3.17067 0.384749,-4.75301 0.07271,-4.75301 -0.266309,0 -7.004246,1.24415 -7.947996,1.46759 -0.555149,0.13143 -0.587677,0.19964 -0.254222,0.5331 0.479057,0.47906 7.447375,5.38584 7.666489,5.3984 0.08859,0.005 0.296953,-1.18565 0.463021,-2.64608 z m -14.652428,-0.3632 4.210324,-2.75395 -1.044125,-0.2698 c -0.574267,-0.14839 -2.340152,-0.52719 -3.924191,-0.84177 -2.228276,-0.44253 -2.92544,-0.49856 -3.080556,-0.24758 -0.110268,0.17842 -0.276718,1.35001 -0.369887,2.60353 -0.09317,1.25352 -0.235431,2.72562 -0.316137,3.27132 -0.08071,0.5457 -0.04302,0.99219 0.08375,0.99219 0.12677,0 2.125139,-1.23928 4.440818,-2.75394 z m 100.414775,2.63726 c 0,-0.0642 -0.11906,-0.19026 -0.26458,-0.2802 -0.14552,-0.0899 -0.26459,-0.0374 -0.26459,0.11668 0,0.15411 0.11907,0.2802 0.26459,0.2802 0.14552,0 0.26458,-0.0525 0.26458,-0.11668 z m -15.08125,-1.36586 c 0,-0.22867 -0.96603,0.39091 -1.34467,0.86244 -0.26615,0.33144 -0.12533,0.29197 0.48478,-0.13586 0.47294,-0.33165 0.85989,-0.65861 0.85989,-0.72658 z m -62.170137,-1.77588 -0.309147,-2.17786 -2.825456,-0.72724 c -1.554004,-0.39999 -2.943164,-0.72464 -3.087023,-0.72145 -0.143862,0.003 1.225356,1.41972 3.042708,3.14783 1.817349,1.72812 3.345627,3.03281 3.39617,2.89931 0.05054,-0.1335 -0.04722,-1.22276 -0.217252,-2.42059 z m -31.237359,-1.08487 2.503952,-2.52711 -1.974785,0.55433 c -1.086132,0.30489 -2.115267,0.66776 -2.286967,0.80637 -0.1717,0.13862 -0.545806,0.929 -0.831347,1.75639 -0.285541,0.82739 -0.609597,1.72656 -0.720125,1.99815 -0.360657,0.88622 0.649748,0.096 3.309272,-2.58813 z m 103.136516,2.0584 c 0.48884,-0.13098 0.54177,-0.23223 0.28385,-0.543 -0.3578,-0.43112 -1.64073,-1.14086 -2.06223,-1.14086 -0.4244,0 -0.33384,0.38646 0.27065,1.15494 0.59563,0.75722 0.62161,0.76634 1.50773,0.52892 z m -2.23691,-0.55938 c -0.51335,-1.44752 -1.77988,-1.75403 -3.65565,-0.8847 -1.1566,0.53603 -1.08804,0.602 1.05833,1.01828 2.21471,0.42953 2.78659,0.40012 2.59732,-0.13358 z m -87.658765,-5.50479 c 0.176728,-1.24501 0.250711,-2.33426 0.164404,-2.42056 -0.0863,-0.0863 -1.947164,0.5333 -4.135239,1.37691 -2.188075,0.84361 -3.924363,1.58779 -3.858416,1.65373 0.143688,0.14369 6.449253,1.59738 7.072233,1.63044 0.349094,0.0185 0.49956,-0.4268 0.757018,-2.24052 z m 4.738486,1.46772 c 2.243513,-0.4355 4.117903,-0.83061 4.165309,-0.87802 0.04741,-0.0474 -1.666867,-0.8136 -3.809503,-1.70265 -2.142632,-0.88905 -3.9318,-1.58035 -3.97593,-1.53622 -0.04413,0.0441 -0.197509,0.84014 -0.340847,1.76892 -0.143338,0.92878 -0.327316,2.0161 -0.408839,2.41629 -0.08152,0.40018 -0.04947,0.72668 0.07124,0.72556 0.120706,-0.001 2.055064,-0.35837 4.298574,-0.79388 z m 10.724324,0.0374 c -0.396409,-0.36162 -5.110509,-3.47486 -5.261673,-3.47486 -0.175215,0 0.124711,1.59932 0.396467,2.11412 0.114491,0.21689 1.199444,0.65198 2.411008,0.96688 2.582381,0.67117 2.795714,0.70541 2.454198,0.39386 z m -25.63919,-0.94935 c 0.459368,-0.19194 1.118778,-0.7472 1.465355,-1.23393 l 0.63014,-0.88495 -1.318412,0.7657 c -0.725127,0.42113 -1.735131,1.05642 -2.244454,1.41175 l -0.926042,0.64606 0.779099,-0.17783 c 0.428505,-0.0978 1.154946,-0.33486 1.614314,-0.5268 z m 19.759919,-1.88181 -0.215797,-1.04058 -1.972935,-0.20405 c -1.085114,-0.11223 -2.508715,-0.17176 -3.163559,-0.13229 -1.183777,0.0713 -1.171601,0.0795 2.116667,1.41575 1.81901,0.7392 3.339721,1.26699 3.379356,1.17287 0.03964,-0.0941 -0.02506,-0.63939 -0.143732,-1.2117 z m -14.327031,-0.11977 3.286199,-1.32816 -2.513542,0.14952 c -2.497375,0.14857 -2.519047,0.15583 -3.3695,1.12972 -0.756539,0.86635 -1.044562,1.37707 -0.776595,1.37707 0.04798,0 1.566027,-0.59767 3.373438,-1.32815 z m 8.577865,-2.11143 c -0.436562,-0.11109 -1.150937,-0.2042 -1.5875,-0.20691 -0.770308,-0.005 -0.774216,0.001 -0.132291,0.20691 0.363802,0.11651 1.078177,0.20961 1.587499,0.2069 l 0.926042,-0.005 -0.79375,-0.20197 z m -3.114365,-0.15986 c -0.08792,-0.0879 -0.316124,-0.0973 -0.507119,-0.0209 -0.211066,0.0845 -0.148373,0.14716 0.159853,0.15986 0.278913,0.0115 0.435184,-0.0511 0.347266,-0.13897 z m 152.930237,29.36984 c -0.10418,-0.10418 -0.0682,-0.33546 0.0799,-0.51395 0.19684,-0.23718 -0.0886,-0.62425 -1.06069,-1.43809 l -1.33002,-1.11357 -2.44734,0.17725 c -2.16994,0.15714 -10.92036,-0.44291 -11.24884,-0.77138 -0.0582,-0.0582 -0.27599,-1.51483 -0.48393,-3.23691 -0.20794,-1.72207 -0.50353,-3.78588 -0.65686,-4.58625 -0.50372,-2.62925 -1.88516,-8.23678 -2.00071,-8.12123 -0.0622,0.0622 0.19243,3.59773 0.56592,7.85665 0.37349,4.25892 0.62884,7.79373 0.56743,7.85514 -0.0614,0.0614 -1.91865,0.0275 -4.12718,-0.0753 l -4.01553,-0.18698 0.0678,-1.46448 c 0.0414,-0.89473 -0.0464,-1.50254 -0.22577,-1.56234 -0.25183,-0.0839 -4.5711,1.62195 -5.96515,2.35593 -0.42658,0.2246 -0.43259,0.29928 -0.0661,0.82246 0.84386,1.20477 0.16389,1.35598 -1.0649,0.2368 -0.88743,-0.80827 -1.59153,-2.23431 -1.32005,-2.67356 0.32991,-0.53381 1.13862,-0.29851 1.30914,0.3809 0.0913,0.3638 0.29233,0.66146 0.44671,0.66146 0.15438,0 1.69961,-0.60899 3.43384,-1.3533 3.10418,-1.33228 3.1671,-1.37646 4.05094,-2.84427 2.21988,-3.68659 4.64424,-9.3231 5.19338,-12.07431 0.17427,-0.87312 0.35916,-1.73436 0.41085,-1.91385 0.0576,-0.20014 0.89088,0.24912 2.1545,1.16167 2.86557,2.06941 4.59113,2.82596 6.73652,2.95355 1.48861,0.0885 2.00746,-0.006 3.30729,-0.59948 2.06469,-0.94348 3.26149,-2.1183 3.26149,-3.20159 0,-2.31618 -4.59023,-5.75745 -10.52151,-7.88793 -3.7086,-1.33211 -6.92433,-1.84152 -11.70349,-1.85398 -5.01579,-0.0131 -6.45679,0.18705 -13.36146,1.85569 -4.48401,1.08365 -5.2614,1.20044 -7.19616,1.08107 -1.82447,-0.11257 -2.23431,-0.0617 -2.57969,0.31988 -0.62584,0.69155 -0.49364,2.00955 0.48683,4.8536 1.80464,5.23472 5.05127,8.68521 8.24422,8.76188 1.74614,0.0419 4.7357,-1.60935 6.28633,-3.47225 1.71261,-2.0575 3.91198,-6.7455 4.53622,-9.66903 l 0.15622,-0.73161 1.38301,1.044 c 4.04456,3.05314 7.41582,3.14287 10.28495,0.27373 l 1.24764,-1.24763 0.95684,1.55021 c 1.30772,2.11867 3.96894,5.71766 5.11368,6.91565 0.98249,1.0282 1.00299,1.72498 0.0247,0.84109 -0.85847,-0.77568 -4.01449,-4.80943 -5.18654,-6.62898 l -1.04709,-1.62556 -1.63216,1.51038 c -0.89769,0.8307 -1.63216,1.69645 -1.63216,1.92389 0,0.22743 -0.17256,0.55672 -0.38345,0.73175 -0.32081,0.26625 -0.37484,0.1959 -0.33073,-0.43062 0.0527,-0.74847 0.0517,-0.74894 -1.93166,-0.89556 -1.0914,-0.0807 -2.26246,-0.29869 -2.60235,-0.48446 -0.33988,-0.18576 -0.67287,-0.28286 -0.73997,-0.21576 -0.0671,0.0671 1.14032,1.69408 2.68315,3.61551 1.54282,1.92143 2.76457,3.61521 2.71498,3.76397 -0.12501,0.37504 -4.40503,-4.16999 -5.9009,-6.26626 -0.67564,-0.94683 -1.29077,-1.72151 -1.36695,-1.72151 -0.0762,0 -0.0669,0.38695 0.0206,0.8599 0.0875,0.47294 0.3978,2.65574 0.68948,4.85066 0.8029,6.04192 0.98074,6.36706 3.51905,6.4339 0.88232,0.0232 0.9709,0.0835 0.7444,0.50677 -0.22838,0.42674 -0.46929,0.45771 -2.1573,0.27735 -1.04511,-0.11167 -1.96582,-0.26865 -2.04601,-0.34884 -0.0802,-0.0802 -0.41948,-2.73509 -0.75398,-5.89975 -0.70307,-6.65182 -0.86237,-7.73832 -1.13459,-7.73832 -0.10914,0 -0.0443,1.04179 0.14417,2.3151 0.33618,2.27159 1.15911,10.01973 1.15911,10.91329 0,0.41135 -0.30608,0.44245 -3.24115,0.32937 -3.53352,-0.13613 -4.96362,-0.59318 -1.85608,-0.59318 2.7545,0 3.13777,-0.21287 3.67292,-2.04 0.40171,-1.37154 0.41401,-1.88955 0.11756,-4.94929 -0.18211,-1.87958 -0.39144,-3.57462 -0.46517,-3.76675 -0.0737,-0.19214 -0.58293,0.57179 -1.13156,1.69762 -0.54864,1.12583 -1.59829,3.05858 -2.33257,4.29501 -0.91397,1.53901 -1.2542,2.34546 -1.07873,2.55689 0.16466,0.19841 0.16542,0.62444 0.002,1.19153 l -0.25419,0.8827 -0.0239,-0.84428 c -0.0131,-0.46435 -0.12187,-0.90485 -0.24165,-0.97888 -0.11978,-0.074 -1.26691,0.41005 -2.54918,1.07572 -2.22746,1.15636 -2.40943,1.20472 -4.0817,1.08467 -1.87746,-0.13478 -3.49319,-0.80261 -4.4343,-1.83284 -1.86364,-2.04012 -4.60001,-7.61583 -5.42634,-11.05688 -0.26008,-1.08303 -0.68477,-2.16787 -0.94376,-2.41075 -0.76746,-0.71972 -6.64691,-3.33888 -9.07212,-4.04143 -5.63101,-1.63122 -12.56364,-1.58031 -17.65219,0.12965 -1.34388,0.4516 -2.05027,0.52715 -3.836457,0.41034 -1.20411,-0.0787 -2.47465,-0.23134 -2.82341,-0.33911 -0.63331,-0.19568 -0.6339,-0.19386 -0.45327,1.4027 0.34371,3.03798 -0.8739,6.80986 -2.93464,9.09085 -0.99524,1.10161 -3.16331,2.53601 -3.43001,2.2693 -0.08366,-0.0837 -0.07426,-0.56702 0.0209,-1.07415 0.12475,-0.665 0.47141,-1.14153 1.24346,-1.7093 1.61493,-1.18763 2.2736,-2.25482 2.63304,-4.26614 0.67249,-3.76303 -0.0674,-7.19279 -2.25569,-10.45609 l -1.12919,-1.68392 1.01752,-0.99358 c 0.55963,-0.54647 1.06186,-0.94179 1.11605,-0.87848 0.0542,0.0633 0.54578,0.97526 1.09241,2.02656 1.88504,3.6254 4.05662,4.91576 7.285437,4.32904 5.52909,-1.00471 6.77988,-1.14218 10.58333,-1.1632 2.25557,-0.0125 4.95172,0.1191 5.99145,0.29237 2.86864,0.47806 7.84559,1.98301 12.33324,3.72938 2.21793,0.86312 4.68744,1.6461 5.4878,1.73997 1.10592,0.12972 2.97939,-0.0939 7.80521,-0.93154 5.35785,-0.93 7.09411,-1.12198 11.1125,-1.22867 5.82495,-0.15466 8.8656,0.24766 13.44589,1.77906 7.06616,2.36254 10.17374,4.43 11.81115,7.85788 0.97199,2.03485 4.26185,6.92844 6.74043,10.02624 2.48993,3.11197 5.28649,5.60933 7.71715,6.89148 2.63132,1.38801 3.06532,1.47258 3.26989,0.63719 0.18109,-0.73953 0.50616,-0.90935 1.06497,-0.55639 0.32832,0.20738 0.34017,0.38895 0.0718,1.09991 -0.2349,0.62233 -0.243,0.94599 -0.0301,1.20252 0.2262,0.27256 0.16788,0.35101 -0.26094,0.35101 -0.30374,0 -0.6797,0.23813 -0.83546,0.52917 -0.15576,0.29104 -0.51713,0.52916 -0.80306,0.52916 -0.62426,0 -0.65149,-0.22349 -0.1197,-0.98272 0.3893,-0.5558 0.32897,-0.61126 -2.22242,-2.04325 -1.44241,-0.80957 -2.69404,-1.47194 -2.7814,-1.47194 -0.0873,0 -0.15883,0.5212 -0.15883,1.15823 0,0.67269 -0.15605,1.28773 -0.37224,1.46716 -0.47071,0.39065 -5.86211,1.75782 -7.95355,2.01689 l -1.57892,0.19557 1.02769,0.88837 c 0.56523,0.4886 1.10499,0.88836 1.19947,0.88836 0.0945,0 0.43637,-0.47077 0.75975,-1.04616 0.36994,-0.65821 0.72382,-0.99403 0.9543,-0.90558 0.66097,0.25363 0.66072,0.86602 -7.9e-4,1.65204 -0.35772,0.42513 -0.6504,0.96414 -0.6504,1.19779 0,0.23365 -0.14883,0.42645 -0.33073,0.42844 -0.1819,0.002 -0.57188,0.0684 -0.86663,0.14761 -0.29474,0.0792 -0.62113,0.0588 -0.7253,-0.0454 z M 83.069715,57.680658 c -0.848527,-0.52624 -0.49661,-0.9418 1.071914,-1.26577 2.93044,-0.60528 5.064863,-2.51799 7.720554,-6.91859 0.82963,-1.37475 1.63833,-2.54284 1.7971,-2.59577 0.15876,-0.0529 0.41487,0.13959 0.56911,0.4278 0.21222,0.39652 0.14604,0.96369 -0.27202,2.33118 -1.07846,3.52777 -3.01618,6.00754 -5.766487,7.37958 -1.573802,0.78512 -4.331528,1.13067 -5.120171,0.64157 z m 43.325515,0.0778 c -0.43656,-0.0612 -2.81781,-0.56836 -5.29167,-1.1271 -5.80161,-1.31034 -9.40583,-1.53346 -14.82098,-0.91747 -2.97302,0.33819 -4.28462,0.37861 -5.63906,0.17379 -2.147657,-0.32476 -4.611417,-1.22514 -5.465807,-1.99749 -0.57751,-0.52204 -0.60497,-0.65054 -0.31773,-1.48656 0.30748,-0.89492 0.34362,-0.91359 1.63733,-0.84583 2.65243,0.13891 6.632387,-1.68431 9.351477,-4.28391 0.63216,-0.60439 1.95881,-2.23412 2.94811,-3.62162 3.3018,-4.63084 6.32984,-6.86841 10.65569,-7.87403 1.46576,-0.34074 3.15928,-0.44333 7.2122,-0.43688 l 5.29665,0.008 3.80078,-8.15622 3.80078,-8.15622 -0.8292,-1.87733 c -0.86702,-1.96296 -1.0097,-2.72452 -0.56225,-3.00106 0.55087,-0.34045 1.23538,0.17548 1.81462,1.36773 l 0.59825,1.23139 0.4693,-0.76966 c 0.63515,-1.04167 1.26064,-1.52156 1.74231,-1.33673 0.60385,0.23172 0.48575,1.07422 -0.39523,2.81944 l -0.79548,1.57582 2.67533,5.75283 c 1.47144,3.16405 3.25815,6.91422 3.97048,8.3337 0.71233,1.41948 1.29402,2.7914 1.29266,3.0487 -0.001,0.25731 -0.34848,1.07104 -0.77135,1.8083 -0.83589,1.45731 -1.57826,1.83162 -4.26344,2.14964 -0.722,0.0855 -1.31273,0.20957 -1.31273,0.2757 0,0.0661 0.37149,1.31596 0.82552,2.77741 0.80648,2.59588 0.81518,2.67886 0.37729,3.59714 -0.57595,1.20777 -0.59802,1.17044 -2.27885,-3.85651 -0.74202,-2.21919 -1.42855,-4.03421 -1.52561,-4.03337 -0.0971,7.9e-4 -0.83132,1.92092 -1.63168,4.26686 -0.80037,2.34594 -1.62475,4.33047 -1.83196,4.41007 -0.55173,0.21195 -3.71703,-0.38209 -5.40888,-1.01509 -0.80572,-0.30146 -1.82105,-0.88075 -2.25628,-1.28732 -1.3039,-1.21802 -1.29452,-1.80507 0.0754,-4.71692 1.41656,-3.01107 1.42123,-2.99891 -1.35047,-3.52189 -2.07729,-0.39195 -7.19179,-0.18773 -9.23358,0.36871 -2.10583,0.57389 -5.09038,2.27074 -6.56829,3.73438 -0.73949,0.73235 -2.14397,2.53393 -3.12106,4.0035 -2.20515,3.31662 -3.49355,4.51842 -6.46729,6.03263 -1.28394,0.65376 -2.66646,1.41482 -3.072277,1.69124 -0.67041,0.45664 -0.69814,0.53555 -0.30335,0.86318 0.683247,0.56706 4.812707,0.62238 9.375577,0.12562 4.74047,-0.51609 5.26955,-0.4738 11.88763,0.95023 5.98513,1.28784 9.05374,1.60156 12.60952,1.28916 4.1046,-0.36063 6.92797,-1.5594 8.48711,-3.60353 0.35517,-0.46567 4.04586,-7.48914 8.20153,-15.60772 l 7.55575,-14.76105 -1.28142,-2.6044 c -1.07745,-2.18983 -1.21896,-2.6439 -0.88901,-2.85253 0.60315,-0.38137 0.62191,-0.36401 1.51066,1.39741 l 0.83438,1.65365 0.0159,-1.78594 c 0.0142,-1.5908 0.0724,-1.78594 0.53346,-1.78594 0.45897,0 0.52638,0.2172 0.59531,1.91823 l 0.0777,1.91823 0.91668,-1.78594 c 0.97393,-1.89746 0.98854,-1.91156 1.58798,-1.53244 0.32559,0.20593 0.20427,0.64149 -0.75424,2.70793 -0.62824,1.35439 -1.19738,2.64683 -1.26477,2.87209 -0.0674,0.22525 3.33128,7.13088 7.5526,15.34583 4.22132,8.21496 7.75128,15.13756 7.84435,15.38356 0.12945,0.34215 -0.14076,0.60436 -1.14964,1.1156 -1.60249,0.81204 -7.20094,2.53816 -8.23221,2.53816 -0.66317,0 -0.76294,-0.11487 -0.91259,-1.05072 -0.31593,-1.97575 -1.48276,-5.21388 -2.27073,-6.30164 -0.95659,-1.32053 -1.64392,-1.71563 -2.98458,-1.71563 -2.26675,0 -3.78946,2.75936 -5.11939,9.27697 -0.11043,0.54123 -0.22864,0.58743 -1.10812,0.43308 -2.58801,-0.4542 -5.6054,-1.25673 -7.74059,-2.05873 l -2.35109,-0.88311 -0.73807,0.77662 c -2.06678,2.17469 -4.67745,2.85247 -10.79225,2.80184 -2.32833,-0.0193 -4.59052,-0.0851 -5.02708,-0.14626 z m 26.20108,-2.73178 c 0.094,-0.15205 -0.37402,-0.82132 -1.03998,-1.48728 l -1.21083,-1.21084 1.29859,-1.62157 c 1.34112,-1.67467 3.0239,-3.35831 4.35401,-4.35621 1.07451,-0.80615 4.57916,-0.82971 5.85794,-0.0394 1.5796,0.97625 2.85037,3.06152 3.82885,6.28295 0.31992,1.05327 0.72373,1.91503 0.89735,1.91503 0.49131,0 5.29432,-1.59278 5.54269,-1.83807 0.12175,-0.12024 -0.81412,-2.26844 -2.07972,-4.77376 -2.21574,-4.3862 -2.32699,-4.54958 -2.99949,-4.40533 -0.38413,0.0824 -1.59138,0.35685 -2.68278,0.60991 -3.0783,0.71374 -9.72006,0.65229 -12.78704,-0.11831 -1.2848,-0.32282 -2.42778,-0.58694 -2.53996,-0.58694 -0.22314,0 -4.78134,8.76635 -4.78134,9.1955 0,0.30674 3.89601,1.7425 6.21771,2.29137 2.01059,0.47531 1.92225,0.46937 2.124,0.14293 z m -16.54379,-9.74803 c 0,-0.27471 -0.42779,-1.12138 -0.95066,-1.88149 l -0.95065,-1.382 0.95065,-0.78361 c 1.06917,-0.8813 1.20002,-1.27425 0.42433,-1.27425 -0.28948,0 -1.14559,-0.2353 -1.90246,-0.52289 -0.75687,-0.28759 -1.38889,-0.49595 -1.4045,-0.46302 -1.82697,3.8554 -2.03252,4.44938 -1.68482,4.86864 0.4083,0.49234 1.66351,1.0664 3.40144,1.55562 1.71557,0.48293 2.11667,0.46076 2.11667,-0.117 z m 27.80615,-4.13597 c 1.0736,-0.22584 2.05669,-0.51531 2.18465,-0.64327 0.13383,-0.13383 -0.22361,-0.71988 -0.84143,-1.37958 l -1.07409,-1.14691 -1.28058,1.25677 c -0.70432,0.69123 -1.40004,1.25677 -1.54603,1.25677 -0.14599,0 -0.84841,-0.59187 -1.56093,-1.31527 l -1.29549,-1.31527 -1.42789,1.35044 -1.42789,1.35044 -1.24451,-1.22579 c -0.68448,-0.67419 -1.36446,-1.2258 -1.51106,-1.2258 -0.14661,0 -0.78776,0.53107 -1.42478,1.18014 l -1.15822,1.18014 0.74844,0.28456 c 2.82827,1.0753 8.75437,1.25624 12.85981,0.39263 z m -26.26396,-2.53406 c 0.19061,-0.30522 0.30854,-0.58199 0.26208,-0.61506 -0.16038,-0.11414 -3.52591,-0.7402 -4.17825,-0.77724 -0.95055,-0.054 -1.01215,0.74113 -0.0857,1.10562 2.34729,0.92346 3.55033,1.00964 4.00183,0.28668 z m 9.37187,-0.12257 c 1.27512,-0.43686 1.37691,-0.55365 1.10352,-1.2661 -0.13519,-0.35228 -0.28033,-0.35455 -1.23069,-0.0192 -0.59258,0.20907 -1.70156,0.45349 -2.4644,0.54315 -1.69505,0.19922 -2.04461,0.39472 -1.80804,1.01122 0.15612,0.40684 0.39547,0.45268 1.66261,0.31841 0.81413,-0.0863 2.04578,-0.35061 2.737,-0.58743 z m 16.72655,-2.75455 c -0.23132,-0.92549 -5.14978,-10.32628 -5.40268,-10.32628 -0.19083,0 -5.83376,10.59893 -5.83376,10.95736 0,0.0853 0.15443,0.15514 0.34317,0.15514 0.18875,0 0.80823,0.47625 1.37662,1.05833 0.56839,0.58208 1.15435,1.05833 1.30214,1.05833 0.1478,0 0.87168,-0.59547 1.60864,-1.32327 l 1.33992,-1.32328 1.43746,1.45554 1.43746,1.45554 1.27723,-1.25674 c 1.0482,-1.03138 1.24793,-1.37401 1.1138,-1.91067 z m -24.40405,0.38934 c 0.96818,-1.60289 1.63961,-1.59905 2.3529,0.0135 l 0.53263,1.20409 1.23843,-0.16655 c 1.74974,-0.2353 4.01656,-0.89117 4.01656,-1.16213 0,-0.38038 -6.68191,-14.57325 -6.861,-14.57325 -0.13775,0 -6.25441,12.94158 -6.76791,14.31951 -0.19195,0.51507 0.21907,0.71693 2.38412,1.17083 2.32502,0.48744 2.32265,0.48806 3.10427,-0.80596 z m -106.670258,20.5857 c -16.609478,-0.0945 -15.506509,0.0347 -16.319439,-1.91095 -1.562029,-3.73847 -2.192682,-19.40672 -1.038604,-25.80361 0.432381,-2.39663 1.157874,-4.42426 1.703721,-4.76161 0.164458,-0.10164 3.481933,-0.36511 7.372168,-0.58549 11.30872,-0.64063 27.299752,-0.25627 30.411397,0.73095 1.322092,0.41946 2.223691,2.50076 2.396543,5.53232 l 0.135485,2.37623 H 56.34975 c -1.212244,0 -1.463382,-0.34836 -1.759736,-2.44099 -0.13539,-0.95603 -0.385514,-1.99862 -0.555829,-2.31686 -0.800391,-1.49554 -4.452519,-1.97019 -15.083739,-1.96038 -9.950381,0.009 -18.044625,0.48625 -19.172928,1.13003 -0.989403,0.56453 -1.710615,1.79056 -2.176221,3.6995 -0.516615,2.11807 -0.757544,11.94866 -0.37051,15.11787 0.390563,3.1981 1.250025,6.42026 1.949798,7.30988 1.178787,1.49858 1.137073,1.49503 16.991736,1.44797 8.003646,-0.0238 14.968802,-0.1137 15.478125,-0.19988 1.734634,-0.29349 2.572527,-1.7046 3.052516,-5.14076 0.202792,-1.45178 0.344326,-1.70381 1.086792,-1.93532 0.373041,-0.11632 0.724379,-0.02 1.025564,0.2812 0.566402,0.5664 0.432248,2.55888 -0.41538,6.16931 -0.75879,3.23203 -0.857324,3.29277 -5.389742,3.32269 -1.903436,0.0126 -10.179555,-0.0154 -18.391374,-0.0621 z m 46.406811,-1.65517 c -0.791792,-0.32094 -1.320228,-1.0382 -1.000472,-1.35796 0.145407,-0.1454 1.086906,-0.3863 2.092225,-0.53533 5.048713,-0.74841 8.181675,-2.96673 12.110247,-8.57478 0.34212,-0.48839 0.57721,-0.61911 0.76881,-0.42751 0.36463,0.36464 -0.59147,2.8918 -1.7695,4.67708 -1.05414,1.59752 -2.957925,3.54399 -4.512225,4.61338 -1.971424,1.35637 -6.150507,2.22877 -7.689085,1.60512 z m -47.851008,-2.19563 c 0.844963,-1.44863 5.785242,-7.7569 7.391067,-9.4377 3.044145,-3.18627 2.51256,-3.0504 12.291004,-3.14161 10.928503,-0.10195 22.95645,0.28863 24.812438,0.80572 1.391198,0.38759 1.394921,0.38702 0.926042,-0.14168 -0.258927,-0.29196 -1.006554,-0.77585 -1.661398,-1.07533 -1.126138,-0.51501 -1.857002,-0.55467 -13.49375,-0.73217 -14.427593,-0.22006 -18.651658,-0.41372 -19.571889,-0.8973 -1.071616,-0.56314 -3.545343,-3.42813 -8.965059,-10.38306 l -0.876266,-1.12448 h 1.216268 1.216269 l 2.600526,3.50573 c 2.703745,3.64488 4.442518,5.59875 5.737862,6.44769 0.713041,0.46731 1.646338,0.50615 15.323184,0.63755 l 14.563897,0.13993 1.852083,0.73732 c 2.928554,1.16587 3.035051,1.176 2.124728,0.20223 -1.048218,-1.12128 -3.027203,-2.05668 -5.438272,-2.57049 -1.701263,-0.36255 -3.32977,-0.3964 -11.635414,-0.24185 -8.080234,0.15034 -9.965748,0.11477 -11.546159,-0.21781 -2.003748,-0.42168 -3.734808,-1.17766 -4.325001,-1.8888 -0.436163,-0.52554 -0.64729,-4.03241 -0.342749,-5.69316 0.198379,-1.08184 0.293298,-1.19798 1.038799,-1.27104 0.70897,-0.0695 0.839094,0.017 0.957511,0.63648 0.07537,0.39428 0.07432,1.40858 -0.0024,2.25401 -0.182052,2.00772 0.257228,3.07374 1.499378,3.63861 0.819502,0.37267 2.314408,0.43282 11.133065,0.44792 11.305503,0.0194 13.178962,0.21313 16.858009,1.74365 2.285327,0.95072 4.189692,2.84233 6.034875,5.99446 0.651309,1.11263 1.182524,1.84686 1.180476,1.63162 -0.0072,-0.76179 -2.175709,-4.36131 -4.232397,-7.02551 -1.146352,-1.48497 -2.011563,-2.77266 -1.92269,-2.86153 0.364236,-0.36424 1.16473,-0.11645 2.003817,0.62028 1.773859,1.55744 6.007113,8.14466 6.007113,9.34741 0,0.1941 0.170579,0.58403 0.379063,0.8665 0.288348,0.39068 0.45362,0.44013 0.690613,0.20662 0.631639,-0.62234 -0.793552,-3.95097 -3.618315,-8.45078 -0.926581,-1.47604 -1.684694,-2.75852 -1.684694,-2.84995 0,-0.0914 0.318066,-0.16625 0.706813,-0.16625 0.487053,0 1.044572,0.3525 1.793158,1.13377 1.18718,1.23901 3.976274,6.45872 4.260392,7.9732 0.177585,0.94662 0.697989,1.24169 1.087212,0.61646 0.382715,-0.61477 -0.09885,-2.70638 -1.302514,-5.6573 -0.712084,-1.74576 -0.617043,-2.38364 0.311258,-2.08901 0.843013,0.26756 1.759225,1.84928 2.434884,4.20352 l 0.596842,2.07959 0.683799,-0.83782 c 1.12692,-1.38077 2.01246,-0.60688 1.33737,1.16876 -0.20449,0.53783 -0.1756,0.72113 0.13229,0.83928 0.55823,0.21422 0.49289,0.71055 -0.29936,2.27398 -1.45691,2.87509 -4.807029,5.29172 -8.724839,6.29373 -2.682954,0.68618 -4.479504,0.67773 -5.634667,-0.0265 -0.800047,-0.48775 -0.85421,-0.59056 -0.498488,-0.94628 0.234463,-0.23447 1.454036,-0.54643 2.956592,-0.75629 3.971726,-0.55473 5.90193,-1.27808 8.30867,-3.11369 2.139182,-1.63154 2.237582,-2.21224 0.161102,-0.95073 -3.847589,2.33749 -7.816783,3.39792 -10.736627,2.86845 -2.356604,-0.42734 -2.815664,-0.65792 -2.9128,-1.46309 l -0.08505,-0.70494 -10.540304,-0.1265 c -10.148593,-0.12181 -15.927681,0.11527 -17.514247,0.71848 -0.848235,0.3225 -1.028305,1.07146 -0.959802,3.99209 0.06472,2.75919 -0.154355,3.26945 -1.332021,3.10251 -0.587195,-0.0832 -0.612537,-0.18976 -0.681458,-2.86458 -0.04344,-1.68593 0.06193,-3.24621 0.268026,-3.96875 0.747966,-2.62231 2.768766,-2.89795 20.731912,-2.82781 9.992905,0.039 12.635386,-0.0189 12.303125,-0.26991 -0.232733,-0.17577 -1.018461,-0.44316 -1.746065,-0.59421 -1.629349,-0.33823 -27.852914,-0.75191 -29.791563,-0.46996 -2.521522,0.36672 -4.573283,1.89804 -7.323365,5.46573 -4.420798,5.73513 -4.261871,5.57532 -5.544798,5.57532 -0.85453,0 -1.109237,-0.0871 -0.967135,-0.33073 z"
       id="path839"
       inkscape:connector-curvature="0" />
  </g>
</svg>
