<?xml version="1.0" encoding="UTF-8" standalone="no"?>
<!-- Created with Inkscape (http://www.inkscape.org/) -->

<svg
   xmlns:dc="http://purl.org/dc/elements/1.1/"
   xmlns:cc="http://creativecommons.org/ns#"
   xmlns:rdf="http://www.w3.org/1999/02/22-rdf-syntax-ns#"
   xmlns:svg="http://www.w3.org/2000/svg"
   xmlns="http://www.w3.org/2000/svg"
   xmlns:sodipodi="http://sodipodi.sourceforge.net/DTD/sodipodi-0.dtd"
   xmlns:inkscape="http://www.inkscape.org/namespaces/inkscape"
   width="210mm"
   height="297mm"
   viewBox="0 0 210 297"
   version="1.1"
   id="svg8"
   sodipodi:docname="Zeichnung.svg"
   inkscape:version="0.92.5 (2060ec1f9f, 2020-04-08)">
  <defs
     id="defs2" />
  <sodipodi:namedview
     id="base"
     pagecolor="#ffffff"
     bordercolor="#666666"
     borderopacity="1.0"
     inkscape:pageopacity="0.0"
     inkscape:pageshadow="2"
     inkscape:zoom="0.35"
     inkscape:cx="226.16979"
     inkscape:cy="274.87301"
     inkscape:document-units="mm"
     inkscape:current-layer="layer1"
     showgrid="false"
     inkscape:window-width="1920"
     inkscape:window-height="1009"
     inkscape:window-x="0"
     inkscape:window-y="0"
     inkscape:window-maximized="1" />
  <metadata
     id="metadata5">
    <rdf:RDF>
      <cc:Work
         rdf:about="">
        <dc:format>image/svg+xml</dc:format>
        <dc:type
           rdf:resource="http://purl.org/dc/dcmitype/StillImage" />
      </cc:Work>
    </rdf:RDF>
  </metadata>
  <g
     inkscape:label="Ebene 1"
     inkscape:groupmode="layer"
     id="layer1">
    <rect
       style="opacity:1;fill:#666666;fill-opacity:1;stroke:none;stroke-width:19.57988167;stroke-linecap:round;stroke-linejoin:miter;stroke-miterlimit:4;stroke-dasharray:none;stroke-dashoffset:0;stroke-opacity:0.9945504;paint-order:normal"
       id="rect852"
       width="202.59521"
       height="545.04169"
       x="-237.36903"
       y="-68.125"
       ry="3.7534683" />
    <g
       transform="matrix(1.130072,0,0,1.130072,-203.88325,291.98689)"
       id="layer1-5"
       style="fill:#ffffff"
       inkscape:export-filename="/home/falk/layer1-5.png"
       inkscape:export-xdpi="150"
       inkscape:export-ydpi="150">
      <path
         id="path896"
         d="m 73.830016,120.83559 c -0.91483,-0.84649 -6.29242,-5.79981 -11.95021,-11.00738 l -10.28688,-9.4683 -9.860702,9.84777 c -5.423385,5.41627 -9.98232,9.80404 -10.130969,9.7506 -0.40098,-0.14415 -9.837693,-8.79323 -9.837693,-9.01659 0,-0.10526 4.225889,-4.74942 9.390865,-10.32035 5.164975,-5.570925 9.391694,-10.195285 9.392708,-10.276345 0.001,-0.0811 -4.73089,-4.50513 -10.515344,-9.831254 C 16.615637,68.160605 17.794812,69.364404 17.794812,68.021217 c 0,-1.086767 0.16813,-1.292713 8.236388,-10.088917 4.530013,-4.938727 8.540991,-9.143863 8.913283,-9.344745 1.397689,-0.75417 1.892776,-0.37477 13.729155,10.521048 l 11.319908,10.420389 1.93945,-2.086014 c 1.06669,-1.147309 2.71885,-2.949144 3.67145,-4.004079 l 1.73201,-1.918063 -1.18764,-1.389229 c -0.65321,-0.764075 -2.45367,-2.725418 -4.00103,-4.358541 -1.54737,-1.633121 -2.81339,-3.075714 -2.81339,-3.20576 0,-0.276466 9.80647,-9.567635 10.09827,-9.567635 0.10836,0 4.81597,4.770231 10.46136,10.600512 l 10.26433,10.600512 v 3.396995 3.396996 l 1.5875,3.120543 c 0.87312,1.716297 1.62456,3.208131 1.66986,3.315187 0.1139,0.269211 -4.42092,5.256759 -4.7796,5.256759 -0.1595,0 -2.64894,-2.41102 -5.53208,-5.357816 l -5.24207,-5.357813 -0.99556,1.084546 c -0.54755,0.5965 -2.08795,2.332564 -3.42312,3.857918 l -2.42756,2.773373 10.23277,9.413802 c 15.03873,13.835115 13.54007,12.324805 13.54007,13.645325 0,0.96301 -0.16859,1.31403 -1.14089,2.37543 -12.13448,13.24647 -15.59738,16.95821 -15.94623,17.09207 -0.23026,0.0884 -0.82129,0.16066 -1.31338,0.16066 -0.72341,0 -1.21321,-0.2947 -2.55805,-1.53908 z m 3.3908,0.27825 c 0.1604,-0.10691 3.9455,-4.17926 8.41134,-9.04966 5.8392,-6.36818 8.09809,-9.00486 8.04274,-9.38786 -0.11656,-0.8066 -56.975435,-53.062066 -57.736533,-53.062066 -0.44973,0 -2.65984,2.248961 -8.842407,8.997844 -4.533546,4.948815 -8.242811,9.180144 -8.242811,9.402954 0,0.22281 0.446485,0.86398 0.992188,1.42482 0.864401,0.888381 52.344203,48.251198 55.307353,50.884278 1.12047,0.99565 1.52653,1.1507 2.06813,0.78969 z m -7.65891,-7.04959 c -2.34048,-2.1981 -2.33617,-2.16107 -0.46283,-3.9764 l 1.07533,-1.04202 0.73156,0.63819 c 1.76431,1.53913 3.77426,3.56748 3.77426,3.80881 0,0.42996 -2.1926,2.5323 -2.63477,2.5263 -0.22436,-0.003 -1.34196,-0.88274 -2.48355,-1.95488 z m 5.20558,-1.94429 c -2.35311,-2.14528 -4.35551,-4.1091 -4.44977,-4.36405 -0.21523,-0.58209 1.63001,-2.82248 2.33503,-2.83507 0.59583,-0.0106 9.17123,7.84526 9.17123,8.40174 0,0.59563 -1.82027,2.7024 -2.33281,2.69998 -0.24492,-0.001 -2.37058,-1.75733 -4.72368,-3.9026 z m 4.2743,-2.87201 c -1.81677,-1.6899 -3.30322,-3.24744 -3.30322,-3.4612 0,-0.58347 1.85223,-2.72804 2.34697,-2.71739 0.50619,0.0109 7.00456,5.93867 7.13365,6.50728 0.12761,0.56206 -1.74789,2.74386 -2.35865,2.74386 -0.29175,0 -1.94938,-1.33372 -3.81875,-3.07255 z m -14.55649,0.13404 c -0.94123,-0.90381 -1.71132,-1.74613 -1.71132,-1.87184 0,-0.40276 2.16981,-2.59798 2.5679,-2.59798 0.53528,0 3.50385,2.68916 3.51137,3.18086 0.008,0.49224 -1.42919,2.27533 -2.13973,2.65561 -0.44144,0.23625 -0.76677,0.0367 -2.22822,-1.36665 z m 19.73495,-2.15242 c -1.17032,-1.05629 -2.12872,-2.09462 -2.12977,-2.30739 -0.002,-0.49647 2.10738,-2.65585 2.59492,-2.65585 0.44076,0 4.28233,3.66498 4.28233,4.08548 0,0.4001 -1.51559,2.20742 -2.1243,2.53319 -0.41375,0.22144 -0.84578,-0.0512 -2.62318,-1.65543 z m -24.71,-2.45387 c -0.84917,-0.79629 -1.50401,-1.55845 -1.45521,-1.69369 0.15923,-0.44126 2.35964,-2.66776 2.63649,-2.66776 0.33452,0 3.40537,2.90475 3.40537,3.22119 0,0.4328 -2.18317,2.59966 -2.61338,2.59385 -0.23613,-0.003 -1.1241,-0.6573 -1.97327,-1.45359 z m 7.56321,0.23848 c -0.76398,-0.66439 -1.38829,-1.3461 -1.38735,-1.5149 0.002,-0.43517 2.09201,-2.82045 2.47082,-2.82045 0.4339,0 3.08412,2.34967 3.08201,2.7325 -0.002,0.43832 -2.0918,2.82509 -2.46627,2.8173 -0.17058,-0.004 -0.93522,-0.55005 -1.69921,-1.21445 z m 19.38073,-2.52099 c -1.60073,-1.47242 -2.94373,-2.869945 -2.98444,-3.105625 -0.0829,-0.47987 1.29976,-2.27147 2.07195,-2.68473 0.42656,-0.22829 0.95561,0.15217 3.55113,2.55376 1.67745,1.552105 3.0499,2.993035 3.0499,3.202075 0,0.5737 -1.85419,2.71854 -2.34697,2.71486 -0.23713,-0.002 -1.74084,-1.20793 -3.34157,-2.68034 z m -13.64037,0.92476 c -0.71972,-0.67322 -1.30859,-1.32946 -1.30859,-1.45832 0,-0.427 2.17643,-2.603705 2.60337,-2.603705 0.43496,0 2.6883,2.055345 2.6883,2.452085 0,0.33162 -1.88699,2.53177 -2.31094,2.69445 -0.20306,0.0779 -0.94127,-0.40087 -1.67214,-1.08451 z m 6.56277,-0.64474 c -0.69123,-0.59247 -1.25677,-1.24921 -1.25677,-1.45942 0,-0.46405 2.06457,-2.752305 2.48109,-2.749905 0.42767,0.002 2.81142,2.097525 2.80609,2.466265 -0.005,0.35307 -2.25417,2.82458 -2.56798,2.82197 -0.11311,-0.001 -0.77121,-0.48645 -1.46243,-1.07891 z m -16.16848,-1.32311 c -0.67533,-0.59445 -1.22788,-1.28404 -1.22788,-1.532415 0,-0.44389 2.06818,-2.67843 2.47903,-2.67843 0.34001,0 2.48734,1.84138 2.65409,2.27595 0.14401,0.37527 -2.03285,3.015715 -2.48624,3.015715 -0.10512,0 -0.74367,-0.48637 -1.419,-1.08082 z M 45.646561,92.009495 c -5.78376,-5.35023 -10.55389,-9.92481 -10.600288,-10.16574 -0.12456,-0.646783 2.183054,-2.970293 2.669013,-2.687393 1.080819,0.629198 20.97033,19.278383 21.04652,19.734053 0.0578,0.34563 -0.30839,0.93624 -1.04727,1.689105 -0.62488,0.63671 -1.22973,1.15765 -1.3441,1.15765 -0.11437,0 -4.94011,-4.377455 -10.723875,-9.727675 z m 23.259025,7.8374 c -0.75301,-0.61254 -1.36911,-1.30599 -1.36911,-1.541 0,-0.53505 2.12929,-2.65414 2.66691,-2.65414 0.21885,0 0.91042,0.5222 1.5368,1.16044 1.30145,1.32607 1.27895,1.48979 -0.43241,3.14763 l -1.03309,1.000785 z m 6.43019,-0.78925 c -0.65159,-0.60062 -1.18471,-1.29021 -1.18471,-1.53242 0,-0.43218 2.07242,-2.66722 2.47316,-2.66722 0.31602,0 2.51653,1.90218 2.67339,2.31094 0.13917,0.36269 -2.09425,2.980725 -2.54284,2.980725 -0.12886,0 -0.76741,-0.491415 -1.419,-1.092025 z m -15.875,-1.05834 c -0.65159,-0.60062 -1.18471,-1.26255 -1.18471,-1.47096 0,-0.51897 1.87935,-2.72867 2.32074,-2.72867 0.61122,0 2.70634,1.93028 2.70634,2.49341 0,0.50838 -1.99854,2.79825 -2.44225,2.79825 -0.11847,0 -0.74853,-0.49141 -1.40012,-1.09203 z m 21.23873,-0.79682 c -0.69123,-0.59215 -1.25678,-1.27758 -1.25678,-1.52318 0,-0.48453 2.08984,-2.67338 2.55246,-2.67338 0.4135,0 2.73921,2.10547 2.73921,2.47982 0,0.2996 -2.38993,2.82247 -2.65492,2.8026 -0.0678,-0.005 -0.68875,-0.49372 -1.37997,-1.08586 z m -15.74681,-0.96331 c -0.62072,-0.54136 -1.12673,-1.14285 -1.12448,-1.33664 0.007,-0.59465 1.88926,-2.69036 2.41646,-2.69036 0.67205,0 2.61472,1.79151 2.61472,2.41127 0,0.63983 -1.77965,2.61826 -2.34589,2.60791 -0.23773,-0.004 -0.94009,-0.45082 -1.56081,-0.99218 z m 6.68747,-0.61323 c -0.65629,-0.60495 -1.19327,-1.28085 -1.19327,-1.50199 0,-0.60295 1.82163,-2.70714 2.33282,-2.69468 0.56291,0.0137 2.69426,1.92194 2.69426,2.41221 0,0.46293 -1.46303,2.25421 -2.13475,2.6137 -0.41786,0.22363 -0.71321,0.0795 -1.69906,-0.82924 z m -16.14814,-1.3308 c -0.65159,-0.60062 -1.18471,-1.25812 -1.18471,-1.46112 0,-0.45531 2.07203,-2.7397 2.48109,-2.73539 0.28772,0.003 2.81057,2.29378 2.81057,2.552 0,0.33809 -2.24448,2.73654 -2.56087,2.73654 -0.19875,0 -0.89449,-0.49142 -1.54608,-1.09203 z m 21.20983,-0.78254 c -0.67533,-0.59445 -1.22299,-1.27906 -1.21703,-1.52136 0.013,-0.52748 1.9116,-2.68949 2.36182,-2.68949 0.60671,0 2.65442,1.90487 2.65442,2.46925 0,0.49742 -1.97627,2.82242 -2.39909,2.82242 -0.0947,0 -0.72479,-0.48637 -1.40012,-1.08082 z m -15.63417,-0.87754 c -1.43069,-1.33232 -1.41577,-1.46542 0.35673,-3.18301 l 1.07358,-1.04032 1.26247,1.06942 c 0.69436,0.58817 1.30089,1.26428 1.34785,1.50246 0.10715,0.54351 -1.78912,2.79568 -2.36375,2.80738 -0.23446,0.005 -0.98905,-0.5154 -1.67688,-1.15593 z m 6.4705,-0.84378 c -0.72855,-0.68146 -1.32462,-1.34446 -1.32462,-1.47331 0,-0.427 2.17643,-2.60372 2.60337,-2.60372 0.44639,0 2.68829,2.0602 2.68829,2.47042 0,0.28142 -1.77663,2.32201 -2.29415,2.635 -0.23082,0.1396 -0.79502,-0.20724 -1.67289,-1.02839 z m -16.0862,-1.24277 c -0.61238,-0.62398 -1.113423,-1.24455 -1.113423,-1.37905 0,-0.40803 2.198673,-2.51354 2.624763,-2.51354 0.44441,0 2.6669,2.07712 2.6669,2.49247 0,0.43481 -2.19193,2.53461 -2.64583,2.53461 -0.23044,0 -0.92003,-0.51052 -1.53241,-1.13449 z m 21.12565,-0.86527 c -1.22498,-1.32894 -1.23601,-1.23689 0.35476,-2.96118 0.43632,-0.47294 0.97831,-0.85501 1.20442,-0.84904 0.5061,0.0134 2.66008,1.92582 2.66008,2.36182 0,0.17401 -0.43106,0.84245 -0.95791,1.4854 -1.24528,1.5197 -1.83258,1.51304 -3.26135,-0.037 z m -15.19036,-0.40398 c -0.67533,-0.59445 -1.22788,-1.28403 -1.22788,-1.53241 0,-0.4439 2.06818,-2.67843 2.47903,-2.67843 0.52529,0 2.54805,1.96021 2.54805,2.46925 0,0.49742 -1.97627,2.82241 -2.39908,2.82241 -0.0947,0 -0.72479,-0.48636 -1.40012,-1.08082 z m 6.23554,-1.112 c -0.61238,-0.62398 -1.11342,-1.24455 -1.11342,-1.37905 0,-0.40803 2.19868,-2.51354 2.62476,-2.51354 0.41335,0 2.66691,2.06372 2.66691,2.44225 0,0.42474 -2.19319,2.58483 -2.62444,2.58483 -0.24221,0 -0.94143,-0.51052 -1.55381,-1.13449 z m -16.040584,-1.22463 -1.281232,-1.3008 1.134158,-1.34504 c 0.623784,-0.73977 1.319371,-1.34504 1.545746,-1.34504 0.503057,0 2.680572,2.09138 2.680572,2.57454 0,0.4441 -2.083889,2.71713 -2.491035,2.71713 -0.168839,0 -0.883534,-0.58536 -1.588209,-1.30079 z m 21.067674,-0.89204 c -0.61239,-0.62397 -1.11343,-1.22194 -1.11343,-1.32883 0,-0.39763 2.1996,-2.56376 2.60337,-2.56376 0.45997,0 2.6883,2.066 2.6883,2.49247 0,0.43482 -2.19193,2.53461 -2.64583,2.53461 -0.23045,0 -0.92003,-0.51052 -1.53241,-1.13449 z m -15.27455,-0.4867 c -0.65159,-0.60062 -1.18394,-1.2257 -1.183,-1.38907 0.002,-0.42767 2.09754,-2.811417 2.46627,-2.806089 0.35307,0.0051 2.82459,2.254169 2.82198,2.567979 -0.003,0.40483 -2.16379,2.71921 -2.53833,2.71921 -0.21021,0 -0.91532,-0.49142 -1.56692,-1.09203 z m 6.28977,-1.00529 c -0.61846,-0.55951 -1.12448,-1.16257 -1.12448,-1.34014 0,-0.43886 1.52002,-2.328643 2.13981,-2.660346 0.41136,-0.220152 0.7137,-0.07167 1.694,0.831943 0.6563,0.604953 1.19327,1.301453 1.19327,1.547763 0,0.62367 -1.79743,2.66211 -2.33572,2.64891 -0.24332,-0.006 -0.94842,-0.46863 -1.56688,-1.02813 z m -15.742709,-0.97144 c -0.691224,-0.66572 -1.256771,-1.32181 -1.256771,-1.45798 0,-0.4368 2.16885,-2.617014 2.60337,-2.617014 0.468628,0 2.690816,2.072044 2.683815,2.502484 -0.0054,0.32979 -2.273504,2.79054 -2.567983,2.78605 -0.113112,-0.002 -0.771207,-0.54782 -1.462431,-1.21354 z m 21.023319,-0.97615 c -0.61238,-0.62398 -1.11342,-1.226377 -1.11342,-1.338674 0,-0.316016 1.90218,-2.516529 2.31094,-2.673385 0.36269,-0.139178 2.98072,2.094246 2.98072,2.542831 0,0.438688 -2.18226,2.603718 -2.62444,2.603718 -0.24221,0 -0.94142,-0.51052 -1.5538,-1.13449 z m -15.610418,-0.79375 c -0.612383,-0.623976 -1.113422,-1.221948 -1.113422,-1.328832 0,-0.409215 2.205543,-2.563762 2.62444,-2.563762 0.52038,0 2.77167,2.214666 2.63151,2.588689 -0.23833,0.635984 -2.12644,2.438395 -2.55434,2.438395 -0.26112,0 -0.975807,-0.51052 -1.588188,-1.13449 z m 6.625638,-0.669945 c -0.62379,-0.548148 -1.12448,-1.225447 -1.12448,-1.521129 0,-0.293156 0.53015,-1.053307 1.1781,-1.689225 1.04786,-1.028393 1.23067,-1.116446 1.65365,-0.796494 1.17462,0.888524 2.19534,1.979962 2.19534,2.347442 0,0.459264 -2.08626,2.675841 -2.50249,2.658811 -0.1516,-0.006 -0.78165,-0.45594 -1.40012,-0.999405 z M 40.21825,80.17637 c -0.691224,-0.648406 -1.256771,-1.28447 -1.256771,-1.413475 0,-0.415973 2.148907,-2.690307 2.54194,-2.690307 0.465292,0 2.749727,2.066049 2.749727,2.486861 0,0.373065 -2.205158,2.80652 -2.537609,2.800323 -0.132284,-0.0024 -0.806063,-0.534998 -1.497287,-1.183402 z m -8.598958,-1.093515 c -0.909506,-0.810204 -1.652236,-1.610603 -1.650512,-1.778664 0.0033,-0.325855 2.304058,-2.819916 2.599465,-2.817915 0.33354,0.0024 3.482812,2.952488 3.481109,3.261092 -0.0024,0.438346 -2.092445,2.824631 -2.466274,2.815863 -0.170578,-0.004 -1.054283,-0.670171 -1.963788,-1.480376 z m 29.368754,-0.0805 c -0.61847,-0.559507 -1.12448,-1.212128 -1.12448,-1.450269 0,-0.461229 2.02242,-2.802411 2.42086,-2.802411 0.40933,0 2.60622,2.165387 2.60622,2.568855 0,0.581409 -1.85454,2.724354 -2.34698,2.711961 -0.23713,-0.006 -0.93716,-0.46863 -1.55562,-1.028136 z M 45.631152,78.377677 c -0.612384,-0.623972 -1.113423,-1.23462 -1.113423,-1.356995 0,-0.265578 1.797378,-2.313493 2.294155,-2.613935 0.230814,-0.139594 0.795017,0.207243 1.672894,1.028393 0.728541,0.681464 1.324618,1.344457 1.324618,1.473314 0,0.438692 -2.182259,2.603717 -2.624442,2.603717 -0.24221,0 -0.941422,-0.510521 -1.553802,-1.134494 z m 6.199874,-1.00466 c -0.67533,-0.59445 -1.22647,-1.219528 -1.22474,-1.389062 0.003,-0.30272 2.29089,-2.821784 2.56274,-2.821784 0.38798,0 2.72579,2.225045 2.72579,2.594311 0,0.490082 -2.07146,2.697356 -2.53138,2.697356 -0.1675,0 -0.85708,-0.486368 -1.53241,-1.080821 z M 36.514083,76.759912 c -0.691224,-0.637514 -1.256002,-1.261322 -1.255062,-1.38624 0.0032,-0.420298 2.152224,-2.740668 2.538331,-2.740668 0.464049,0 2.752314,2.064571 2.749919,2.481094 -0.0025,0.426706 -2.096868,2.811113 -2.466274,2.80775 -0.170579,-0.0016 -0.87569,-0.524423 -1.566914,-1.161936 z m 20.637503,-1.322917 c -0.69123,-0.637514 -1.25677,-1.236657 -1.25677,-1.331428 0,-0.271455 2.42694,-2.795479 2.68795,-2.795479 0.427,0 2.60371,2.176428 2.60371,2.60337 0,0.46768 -2.07079,2.689894 -2.50248,2.685473 -0.1516,-0.0016 -0.84119,-0.524422 -1.53241,-1.161936 z M 26.968462,74.769872 25.346878,73.20257 26.428585,71.925601 c 0.594939,-0.702334 1.27538,-1.315162 1.512091,-1.361837 0.522823,-0.103089 3.61247,2.557039 3.61247,3.110273 0,0.501856 -2.105959,2.663134 -2.594972,2.663134 -0.20247,0 -1.09784,-0.705284 -1.989712,-1.567299 z m 14.958522,0.168222 c -0.612382,-0.623972 -1.113421,-1.244544 -1.113421,-1.379048 0,-0.40803 2.198677,-2.513542 2.624761,-2.513542 0.413348,0 2.666905,2.063721 2.666905,2.44225 0,0.424746 -2.193187,2.584834 -2.624442,2.584834 -0.24221,0 -0.941421,-0.510522 -1.553803,-1.134494 z m 6.464454,-0.740077 c -0.67533,-0.59445 -1.227875,-1.232529 -1.227875,-1.417957 0,-0.422344 2.065218,-2.792889 2.433164,-2.792889 0.375496,0 2.858499,2.106073 2.858499,2.424565 0,0.40482 -2.162216,2.867102 -2.517705,2.867102 -0.175014,0 -0.870752,-0.486368 -1.546083,-1.080821 z M 32.809917,73.389983 c -0.691224,-0.592146 -1.256771,-1.277575 -1.256771,-1.523175 0,-0.484529 2.08984,-2.673387 2.552452,-2.673387 0.413506,0 2.739214,2.105477 2.739214,2.479828 0,0.299599 -2.389932,2.82247 -2.654921,2.802599 -0.06776,-0.0051 -0.68875,-0.49372 -1.379974,-1.085865 z m 20.372919,-1.573022 c -0.69123,-0.592466 -1.25677,-1.195417 -1.25677,-1.339888 0,-0.389641 2.15258,-2.871429 2.48881,-2.869444 0.46545,0.0027 2.80285,2.11956 2.80285,2.538332 0,0.46405 -2.06457,2.752315 -2.48109,2.749917 -0.16337,-0.0011 -0.86258,-0.486452 -1.5538,-1.078917 z M 38.233875,71.551925 c -0.618464,-0.591458 -1.124479,-1.210744 -1.124479,-1.376196 0,-0.449442 2.165707,-2.569808 2.624761,-2.569808 0.444413,0 2.666906,2.077125 2.666906,2.49247 0,0.430504 -2.189991,2.53487 -2.634776,2.531761 -0.224363,-0.0016 -0.913948,-0.48677 -1.532412,-1.078227 z M 22.226583,70.427872 c -1.127787,-1.053129 -2.050521,-2.062023 -2.050521,-2.241986 0,-0.464803 2.110586,-2.696632 2.550139,-2.696632 0.436632,0 4.593611,3.913511 4.593611,4.32457 0,0.450863 -2.182223,2.556007 -2.634776,2.541712 -0.224363,-0.0071 -1.330667,-0.874535 -2.458453,-1.927664 z m 22.152944,0.05477 c -0.651593,-0.600617 -1.184714,-1.204781 -1.184714,-1.342587 0,-0.137806 0.568112,-0.846105 1.262472,-1.573997 l 1.262473,-1.32344 1.383361,1.125313 c 0.760849,0.618922 1.38336,1.308112 1.38336,1.531533 0,0.499096 -2.094227,2.675209 -2.574541,2.675209 -0.191236,0 -0.880819,-0.491413 -1.532411,-1.092031 z M 26.961732,67.971095 c -1.840347,-1.690925 -3.346087,-3.273479 -3.346087,-3.516786 0,-0.532018 2.215414,-2.770626 2.606215,-2.633501 0.501358,0.175917 6.918873,6.144364 6.914303,6.430472 -0.0056,0.349172 -2.276591,2.794224 -2.595332,2.794224 -0.128156,0 -1.738751,-1.383485 -3.579099,-3.074409 z M 49.74325,68.64196 c -0.691224,-0.592466 -1.256771,-1.249201 -1.256771,-1.459412 0,-0.464049 2.064567,-2.752314 2.481097,-2.749919 0.42767,0.0025 2.81142,2.097539 2.80609,2.466274 -0.005,0.353069 -2.25417,2.824584 -2.56798,2.821975 -0.11312,-0.0011 -0.771212,-0.486452 -1.462436,-1.078918 z M 34.529708,68.182738 c -0.618463,-0.543467 -1.124479,-1.143431 -1.124479,-1.333253 0,-0.189823 0.431061,-0.871185 0.957914,-1.51414 1.245281,-1.519701 1.832575,-1.513038 3.261352,0.037 1.224974,1.328941 1.236002,1.236891 -0.354763,2.961179 -0.436319,0.472943 -0.978311,0.854819 -1.204426,0.848615 -0.226115,-0.0062 -0.917134,-0.455936 -1.535598,-0.999401 z m 6.418796,-0.867206 c -0.656301,-0.604958 -1.193275,-1.27308 -1.193275,-1.484717 0,-0.581408 1.854542,-2.724353 2.346977,-2.711959 0.583654,0.01469 2.680107,1.941539 2.680107,2.463286 0,0.480346 -1.422989,2.181701 -2.150304,2.570947 -0.39786,0.212929 -0.715073,0.05511 -1.683505,-0.837557 z m 4.75394,-2.389142 c -0.651592,-0.600617 -1.183304,-1.225695 -1.181579,-1.389062 0.003,-0.287725 2.293778,-2.810574 2.551996,-2.810574 0.368617,0 2.736535,2.25937 2.736535,2.61109 0,0.50306 -2.09138,2.680577 -2.574541,2.680577 -0.191236,0 -0.880819,-0.491414 -1.532411,-1.092031 z M 29.470696,63.480018 c -1.328507,-1.250601 -2.415467,-2.475967 -2.415467,-2.723037 0,-0.671411 2.251181,-2.786228 2.6873,-2.524519 0.981869,0.589208 4.984186,4.497118 4.974765,4.857419 -0.01456,0.556676 -1.943314,2.663957 -2.438275,2.663957 -0.21607,0 -1.479815,-1.023219 -2.808323,-2.27382 z m 7.429205,0.08099 c -0.612382,-0.623971 -1.113422,-1.221944 -1.113422,-1.328828 0,-0.397632 2.199595,-2.563761 2.60337,-2.563761 0.472269,0 2.694206,2.076742 2.677446,2.502484 -0.02046,0.519794 -2.045199,2.524599 -2.549697,2.524599 -0.277352,0 -1.005315,-0.510522 -1.617697,-1.134494 z m 5.157983,-1.985515 c -0.538856,-0.551839 -0.979738,-1.185252 -0.979738,-1.407584 0,-0.554194 1.801217,-2.616157 2.28533,-2.616157 0.543576,0 2.741753,1.879188 2.741753,2.343883 0,0.683383 -1.846551,2.683201 -2.477559,2.683201 -0.334371,0 -1.014582,-0.434764 -1.569786,-1.003343 z m -9.678655,-2.149092 c -1.219143,-1.137757 -2.171643,-2.194454 -2.116666,-2.348216 0.15597,-0.436227 2.349771,-2.701431 2.616277,-2.701431 0.131025,0 1.2811,0.994773 2.555723,2.210606 l 2.317495,2.210606 -1.139718,1.361269 c -0.626846,0.748698 -1.336992,1.355542 -1.578103,1.348542 -0.24111,-0.007 -1.435864,-0.943619 -2.655008,-2.081376 z m 5.843589,-1.421641 c -0.612382,-0.623971 -1.113422,-1.221944 -1.113422,-1.328828 0,-0.40475 2.203122,-2.563634 2.613385,-2.560909 0.494606,0.0033 2.678282,2.004443 2.678282,2.454423 0,0.460842 -2.171359,2.569808 -2.645834,2.569808 -0.230444,0 -0.92003,-0.510522 -1.532411,-1.134494 z m -3.439584,-3.175 c -0.612382,-0.623971 -1.112152,-1.24905 -1.1106,-1.389062 0.0044,-0.398139 2.33561,-2.827287 2.61624,-2.726168 0.432305,0.155772 2.672605,2.355639 2.672605,2.62437 0,0.4547 -2.169899,2.625354 -2.624442,2.625354 -0.24221,0 -0.941421,-0.510522 -1.553803,-1.134494 z"
         style="fill:#ffffff;fill-opacity:1;stroke-width:0.26458335"
         inkscape:connector-curvature="0" />
    </g>
    <path
       inkscape:connector-curvature="0"
       d="m -156.50274,376.67233 a 38.604717,38.604717 0 0 1 41.23288,-32.15936 38.604717,38.604717 0 0 1 35.456228,38.43476 38.604717,38.604717 0 0 1 -35.373798,38.51064"
       id="path833"
       style="fill:none;fill-opacity:1;stroke:none;stroke-width:0.29360747;stroke-linecap:round;stroke-miterlimit:4;stroke-dasharray:none;stroke-opacity:1" />
    <g
       id="g901"
       transform="matrix(0.2036704,0,0,-0.2036704,-186.0931,66.760766)"
       style="fill:#ffffff;stroke:none"
       inkscape:export-xdpi="150"
       inkscape:export-ydpi="150"
       inkscape:export-filename="/home/falk/g901.png">
      <path
         id="path897"
         d="m 155,530 c 10,-39 10,-40 -34,-132 L 79,310 H 37 c -31,0 -38,-3 -27,-10 8,-5 25,-10 38,-10 26,0 27,-7 7,-34 -8,-11 -15,-26 -15,-33 0,-15 35,-38 72,-47 25,-6 28,-2 43,44 19,56 30,57 39,5 10,-51 30,-58 21,-6 -6,37 -5,41 14,41 11,0 22,4 26,9 3,6 -6,6 -25,1 -16,-5 -32,-5 -35,0 -3,4 13,11 35,15 25,4 40,12 40,21 0,8 -19,51 -41,97 -36,71 -40,85 -31,109 10,27 0,39 -13,17 -5,-6 -12,-4 -22,8 -13,17 -14,16 -8,-7 z m 59,-136 c 20,-42 36,-80 36,-85 0,-5 -11,-12 -26,-15 -18,-5 -29,-1 -39,12 -13,18 -14,18 -20,2 -4,-10 -15,-18 -24,-19 -11,0 -12,-2 -3,-6 10,-4 8,-11 -9,-29 -18,-20 -20,-26 -9,-39 19,-23 5,-30 -30,-15 -33,13 -36,21 -20,51 8,14 18,18 38,14 l 27,-5 -25,10 c -13,6 -20,14 -15,18 6,4 10,12 10,17 0,10 66,165 70,165 2,0 19,-34 39,-76 z"
         inkscape:connector-curvature="0"
         style="fill:#ffffff" />
      <path
         id="path899"
         d="m 371,511 c -1,-24 -1,-24 -16,-5 -19,25 -19,5 0,-23 14,-20 9,-32 -71,-190 C 237,201 190,116 180,106 166,92 141,85 88,80 39,76 21,71 33,66 63,52 167,64 189,84 c 15,14 24,15 39,7 11,-6 38,-14 61,-20 36,-8 41,-7 41,9 0,32 22,80 42,91 27,14 55,-12 69,-63 9,-34 13,-38 32,-33 51,15 87,29 87,35 -1,3 -40,83 -89,177 l -88,173 18,30 c 10,16 14,30 9,30 -6,0 -14,-8 -17,-17 -6,-15 -8,-14 -14,7 l -7,25 z m 54,-230 c -15,-15 -17,-14 -31,4 -13,18 -15,18 -31,2 -15,-15 -18,-15 -34,-1 -17,15 -16,19 14,80 l 32,64 33,-66 c 31,-62 32,-68 17,-83 z m -97,-13 c 10,-10 17,-10 33,0 16,10 24,10 35,1 11,-9 17,-9 29,1 12,10 18,10 30,0 25,-20 0,-30 -77,-30 -81,0 -103,7 -87,26 14,17 21,18 37,2 z m 181,-96 c 27,-55 27,-58 -10,-71 -40,-14 -39,-14 -39,7 0,9 -9,32 -20,50 -28,46 -74,45 -121,-4 -22,-24 -30,-38 -21,-41 6,-3 12,-11 12,-18 0,-11 -8,-11 -45,2 -25,8 -45,19 -45,24 0,5 9,28 21,51 l 21,43 h 113 113 z"
         inkscape:connector-curvature="0"
         style="fill:#ffffff" />
    </g>
    <circle
       style="fill:#d4d0b3;stroke-width:0.26458332"
       cx="317.5"
       cy="155.44429"
       r="39.6875"
       id="circle912" />
    <path
       style="fill:#dedbc3;stroke-width:0.26458332"
       inkscape:connector-curvature="0"
       d="m 317.64817,115.75943 v 79.37236 c 21.85114,-0.0794 39.53933,-17.81572 39.53933,-39.68486 0,-21.86966 -17.68951,-39.60547 -39.53933,-39.68485 z"
       id="path914" />
    <path
       style="fill:#57bd84;stroke-width:0.26458332"
       inkscape:connector-curvature="0"
       d="m 352.2001,174.59218 c -8.92598,-2.28864 -19.9935,-3.64357 -31.98283,-3.64357 -14.41344,0 -27.4955,1.95897 -37.12633,5.14482 6.91991,11.62976 19.61277,19.42359 34.1286,19.42359 15.13152,0 28.28396,-8.46905 34.97792,-20.92484 z"
       id="path916" />
    <path
       style="fill:#67c18c;stroke-width:0.26458332"
       inkscape:connector-curvature="0"
       d="m 320.21992,170.94887 c -0.95647,0 -1.90633,0.009 -2.85062,0.0265 v 24.53957 c 0.36935,-0.001 0.73713,-0.008 1.1041,-0.0193 0.17304,-0.005 0.34528,-0.0138 0.51779,-0.0214 0.24342,-0.0106 0.48684,-0.0233 0.72919,-0.0384 0.17833,-0.0111 0.35666,-0.0222 0.53393,-0.0357 0.28893,-0.0217 0.57627,-0.0476 0.86254,-0.0754 0.20876,-0.0204 0.41699,-0.0423 0.62469,-0.0661 0.2786,-0.0315 0.55668,-0.0648 0.8329,-0.10239 0.1741,-0.0236 0.34767,-0.0489 0.5215,-0.0746 0.23971,-0.0355 0.47863,-0.0736 0.71675,-0.11351 0.16219,-0.0272 0.32465,-0.0529 0.48631,-0.0823 0.36221,-0.0651 0.72284,-0.13493 1.08214,-0.20981 0.15029,-0.0315 0.29925,-0.0661 0.449,-0.0992 0.24395,-0.054 0.48736,-0.10954 0.72919,-0.16801 0.16431,-0.0394 0.32809,-0.0799 0.49134,-0.12144 0.25929,-0.0661 0.51726,-0.13573 0.77522,-0.20664 0.13177,-0.0365 0.26406,-0.0712 0.39529,-0.10901 0.3474,-0.10001 0.69242,-0.20532 1.03558,-0.31459 0.14923,-0.0474 0.29713,-0.0968 0.44556,-0.14605 0.23865,-0.0791 0.47651,-0.16007 0.71305,-0.24368 0.14314,-0.0503 0.28681,-0.10028 0.42889,-0.1524 0.34819,-0.127 0.69506,-0.25797 1.03823,-0.3945 0.10239,-0.0405 0.2032,-0.0839 0.30533,-0.12567 0.26564,-0.10822 0.53075,-0.21908 0.79322,-0.33311 0.13546,-0.0585 0.27014,-0.11801 0.40454,-0.17807 0.25427,-0.11377 0.50695,-0.22992 0.75856,-0.34872 0.10584,-0.0497 0.21246,-0.0984 0.31724,-0.14896 0.33946,-0.16404 0.67601,-0.33311 1.01018,-0.50641 0.10742,-0.0556 0.21352,-0.11324 0.32041,-0.17013 0.2495,-0.13255 0.49821,-0.26749 0.74454,-0.40508 0.11271,-0.0627 0.22542,-0.12567 0.33681,-0.18944 0.31882,-0.18203 0.63553,-0.36724 0.9488,-0.55747 0.0294,-0.018 0.0595,-0.036 0.0889,-0.054 0.32252,-0.19764 0.64135,-0.40111 0.95805,-0.60748 0.0966,-0.0627 0.19288,-0.12674 0.28893,-0.19077 0.25479,-0.16959 0.508,-0.34184 0.75856,-0.51699 0.0781,-0.0548 0.15716,-0.10848 0.23521,-0.16351 0.32094,-0.22781 0.63871,-0.45959 0.95303,-0.69692 0.0526,-0.0397 0.10478,-0.0812 0.15769,-0.12118 0.26776,-0.20399 0.53235,-0.41142 0.79428,-0.6223 0.0781,-0.0624 0.15611,-0.12541 0.23363,-0.18864 0.28787,-0.23495 0.57309,-0.47281 0.85434,-0.7157 0.0185,-0.0161 0.0378,-0.0312 0.0558,-0.0474 0.30691,-0.26617 0.60933,-0.53764 0.90858,-0.81307 0.0558,-0.0513 0.11059,-0.10398 0.16642,-0.15557 0.25109,-0.23442 0.4998,-0.47175 0.74454,-0.71253 0.0516,-0.0503 0.10345,-0.1008 0.15504,-0.15134 0.5797,-0.57573 1.14194,-1.16919 1.68566,-1.77958 0.0471,-0.0527 0.0937,-0.10584 0.1405,-0.15902 0.25479,-0.28892 0.50588,-0.58076 0.75194,-0.87709 0.0135,-0.0161 0.0275,-0.032 0.0408,-0.0482 0.27014,-0.32596 0.53525,-0.65696 0.79534,-0.99192 0.0196,-0.0251 0.0386,-0.0505 0.0579,-0.0759 0.23521,-0.30427 0.46567,-0.61224 0.69188,-0.92366 0.0326,-0.045 0.0656,-0.0897 0.0982,-0.13493 0.48895,-0.67813 0.95646,-1.3724 1.40308,-2.08148 0.0249,-0.0397 0.0492,-0.0796 0.0738,-0.11933 0.20981,-0.33602 0.41487,-0.67495 0.61436,-1.01732 0.0124,-0.0212 0.0254,-0.0421 0.0378,-0.0635 0.21748,-0.37465 0.42942,-0.75327 0.635,-1.13559 -8.92599,-2.28865 -19.99351,-3.64358 -31.98284,-3.64358 z"
       id="path918" />
    <path
       style="fill:#f04e3e;stroke-width:0.26458332"
       inkscape:connector-curvature="0"
       d="m 317.93127,125.19712 c -10.78309,0 -19.52651,8.74131 -19.52651,19.52625 0,10.78362 15.72948,38.51011 19.52651,38.51011 4.3397,0 19.52652,-27.72569 19.52652,-38.51011 -2.7e-4,-10.78521 -8.74369,-19.52625 -19.52652,-19.52625 z m 0,29.01686 c -5.39115,0 -9.76207,-4.37039 -9.76207,-9.7626 0,-5.39194 4.37092,-9.76233 9.76207,-9.76233 5.39195,0 9.76445,4.37065 9.76445,9.76233 0,5.39194 -4.3725,9.7626 -9.76445,9.7626 z"
       id="path920" />
    <path
       style="fill:#f15b47;stroke-width:0.26458332"
       inkscape:connector-curvature="0"
       d="m 327.69704,144.45085 c 0,5.39221 -4.3725,9.7626 -9.76445,9.7626 v 29.0195 c 4.3397,0 19.52652,-27.72569 19.52652,-38.51011 0,-10.78521 -8.74342,-19.52625 -19.52652,-19.52625 v 9.49193 c 5.39195,0 9.76445,4.37065 9.76445,9.7626 z"
       id="path922" />
    <path
       style="fill:#ffffff;stroke-width:0.46102408"
       inkscape:connector-curvature="0"
       d="m -135.18104,97.13658 c -18.78905,0 -34.02404,15.23132 -34.02404,34.02357 0,18.78996 27.40788,67.10207 34.02404,67.10207 7.56173,0 34.02405,-48.31073 34.02405,-67.10207 -4.8e-4,-18.79272 -15.23547,-34.02357 -34.02405,-34.02357 z m 0,50.56051 c -9.39383,0 -17.00996,-7.61519 -17.00996,-17.01086 0,-9.3952 7.61613,-17.01042 17.00996,-17.01042 9.39522,0 17.01409,7.61568 17.01409,17.01042 0,9.3952 -7.61887,17.01086 -17.01409,17.01086 z"
       id="path920-4"
       inkscape:export-filename="/home/falk/path920-4.png"
       inkscape:export-xdpi="150"
       inkscape:export-ydpi="150" />
    <g
       style="fill:none;stroke:#ffffff;stroke-width:2;stroke-linecap:round;stroke-linejoin:round;stroke-opacity:1"
       id="g978"
       transform="matrix(3.9291018,0,0,3.9291018,-184.37442,219.25456)"
       inkscape:export-filename="/home/falk/g978.png"
       inkscape:export-xdpi="150"
       inkscape:export-ydpi="150">
      <path
         id="path961"
         d="m 18,13 v 6 a 2,2 0 0 1 -2,2 H 5 A 2,2 0 0 1 3,19 V 8 A 2,2 0 0 1 5,6 h 6"
         inkscape:connector-curvature="0"
         style="stroke:#ffffff;stroke-opacity:1" />
      <polyline
         id="polyline963"
         points="15 3 21 3 21 9"
         style="stroke:#ffffff;stroke-opacity:1" />
      <line
         id="line965"
         y2="3"
         x2="21"
         y1="14"
         x1="10"
         style="fill:#ffffff;stroke:#ffffff;stroke-opacity:1" />
    </g>
  </g>
</svg>
